solid OpenSCAD_Model
  facet normal -1 0 0
    outer loop
      vertex 0 117.5 0
      vertex 0 0 17.5
      vertex 0 117.5 5
    endloop
  endfacet
  facet normal -1 0 0
    outer loop
      vertex 0 -10 36
      vertex 0 0 33.7831
      vertex 0 0 17.5
    endloop
  endfacet
  facet normal -1 0 0
    outer loop
      vertex 0 -10 0
      vertex 0 0 17.5
      vertex 0 117.5 0
    endloop
  endfacet
  facet normal -1 0 0
    outer loop
      vertex 0 -10 36
      vertex 0 0 17.5
      vertex 0 -10 0
    endloop
  endfacet
  facet normal -1 0 0
    outer loop
      vertex 0 0 33.7831
      vertex 0 -10 36
      vertex 0 -6.26954 44
    endloop
  endfacet
  facet normal -1 0 0
    outer loop
      vertex 0 123.5 5
      vertex 0 140.5 0
      vertex 0 123.5 0
    endloop
  endfacet
  facet normal -1 0 0
    outer loop
      vertex 0 123.463 5.4693
      vertex 0 140.5 0
      vertex 0 123.5 5
    endloop
  endfacet
  facet normal -1 0 0
    outer loop
      vertex 0 123.353 5.92705
      vertex 0 140.5 0
      vertex 0 123.463 5.4693
    endloop
  endfacet
  facet normal -1 0 0
    outer loop
      vertex 0 140.5 0
      vertex 0 123.353 5.92705
      vertex 0 140.5 17.5
    endloop
  endfacet
  facet normal -1 0 0
    outer loop
      vertex 0 123.173 6.36197
      vertex 0 140.5 17.5
      vertex 0 123.353 5.92705
    endloop
  endfacet
  facet normal -1 0 0
    outer loop
      vertex 0 122.927 6.76336
      vertex 0 140.5 17.5
      vertex 0 123.173 6.36197
    endloop
  endfacet
  facet normal -1 0 0
    outer loop
      vertex 0 122.621 7.12132
      vertex 0 140.5 17.5
      vertex 0 122.927 6.76336
    endloop
  endfacet
  facet normal -1 0 0
    outer loop
      vertex 0 122.263 7.42705
      vertex 0 140.5 17.5
      vertex 0 122.621 7.12132
    endloop
  endfacet
  facet normal -1 0 0
    outer loop
      vertex 0 121.862 7.67302
      vertex 0 140.5 17.5
      vertex 0 122.263 7.42705
    endloop
  endfacet
  facet normal -1 0 0
    outer loop
      vertex 0 121.427 7.85317
      vertex 0 140.5 17.5
      vertex 0 121.862 7.67302
    endloop
  endfacet
  facet normal -1 0 0
    outer loop
      vertex 0 120.969 7.96306
      vertex 0 140.5 17.5
      vertex 0 121.427 7.85317
    endloop
  endfacet
  facet normal -1 0 0
    outer loop
      vertex 0 120.5 8
      vertex 0 140.5 17.5
      vertex 0 120.969 7.96306
    endloop
  endfacet
  facet normal -1 0 0
    outer loop
      vertex 0 120.031 7.96306
      vertex 0 140.5 17.5
      vertex 0 120.5 8
    endloop
  endfacet
  facet normal -1 0 0
    outer loop
      vertex 0 119.573 7.85317
      vertex 0 140.5 17.5
      vertex 0 120.031 7.96306
    endloop
  endfacet
  facet normal -1 0 0
    outer loop
      vertex 0 0 17.5
      vertex 0 119.573 7.85317
      vertex 0 119.138 7.67302
    endloop
  endfacet
  facet normal -1 0 0
    outer loop
      vertex 0 119.573 7.85317
      vertex 0 0 17.5
      vertex 0 140.5 17.5
    endloop
  endfacet
  facet normal -1 0 0
    outer loop
      vertex 0 118.737 7.42705
      vertex 0 0 17.5
      vertex 0 119.138 7.67302
    endloop
  endfacet
  facet normal -1 0 0
    outer loop
      vertex 0 118.379 7.12132
      vertex 0 0 17.5
      vertex 0 118.737 7.42705
    endloop
  endfacet
  facet normal -1 0 0
    outer loop
      vertex 0 118.073 6.76336
      vertex 0 0 17.5
      vertex 0 118.379 7.12132
    endloop
  endfacet
  facet normal -1 0 0
    outer loop
      vertex 0 117.827 6.36197
      vertex 0 0 17.5
      vertex 0 118.073 6.76336
    endloop
  endfacet
  facet normal -1 0 0
    outer loop
      vertex 0 117.647 5.92705
      vertex 0 0 17.5
      vertex 0 117.827 6.36197
    endloop
  endfacet
  facet normal -1 0 0
    outer loop
      vertex 0 117.537 5.4693
      vertex 0 0 17.5
      vertex 0 117.647 5.92705
    endloop
  endfacet
  facet normal -1 0 0
    outer loop
      vertex 0 0 17.5
      vertex 0 117.537 5.4693
      vertex 0 117.5 5
    endloop
  endfacet
  facet normal -1 -0 0
    outer loop
      vertex 0 4.76424 44
      vertex 0 0 33.7831
      vertex 0 -6.26954 44
    endloop
  endfacet
  facet normal -0 0 1
    outer loop
      vertex 0 140.5 17.5
      vertex 7 0 17.5
      vertex 7 140.5 17.5
    endloop
  endfacet
  facet normal 0 0 1
    outer loop
      vertex 7 0 17.5
      vertex 0 140.5 17.5
      vertex 0 0 17.5
    endloop
  endfacet
  facet normal -0 0 1
    outer loop
      vertex 10.5 140.5 17.5
      vertex 17.5 0 17.5
      vertex 17.5 140.5 17.5
    endloop
  endfacet
  facet normal 0 0 1
    outer loop
      vertex 17.5 0 17.5
      vertex 10.5 140.5 17.5
      vertex 10.5 0 17.5
    endloop
  endfacet
  facet normal 1 -0 0
    outer loop
      vertex 17.5 -10 36
      vertex 17.5 0 33.7831
      vertex 17.5 -6.26954 44
    endloop
  endfacet
  facet normal 1 -0 0
    outer loop
      vertex 17.5 -6.26954 44
      vertex 17.5 0 33.7831
      vertex 17.5 4.76424 44
    endloop
  endfacet
  facet normal 1 -0 0
    outer loop
      vertex 17.5 123.353 5.92705
      vertex 17.5 140.5 0
      vertex 17.5 140.5 17.5
    endloop
  endfacet
  facet normal 1 0 0
    outer loop
      vertex 17.5 140.5 0
      vertex 17.5 123.463 5.4693
      vertex 17.5 123.5 5
    endloop
  endfacet
  facet normal 1 0 0
    outer loop
      vertex 17.5 140.5 0
      vertex 17.5 123.353 5.92705
      vertex 17.5 123.463 5.4693
    endloop
  endfacet
  facet normal 1 0 0
    outer loop
      vertex 17.5 140.5 17.5
      vertex 17.5 123.173 6.36197
      vertex 17.5 123.353 5.92705
    endloop
  endfacet
  facet normal 1 0 0
    outer loop
      vertex 17.5 140.5 17.5
      vertex 17.5 122.927 6.76336
      vertex 17.5 123.173 6.36197
    endloop
  endfacet
  facet normal 1 0 0
    outer loop
      vertex 17.5 140.5 17.5
      vertex 17.5 122.621 7.12132
      vertex 17.5 122.927 6.76336
    endloop
  endfacet
  facet normal 1 0 0
    outer loop
      vertex 17.5 140.5 17.5
      vertex 17.5 122.263 7.42705
      vertex 17.5 122.621 7.12132
    endloop
  endfacet
  facet normal 1 0 0
    outer loop
      vertex 17.5 140.5 17.5
      vertex 17.5 121.862 7.67302
      vertex 17.5 122.263 7.42705
    endloop
  endfacet
  facet normal 1 0 0
    outer loop
      vertex 17.5 140.5 17.5
      vertex 17.5 121.427 7.85317
      vertex 17.5 121.862 7.67302
    endloop
  endfacet
  facet normal 1 0 0
    outer loop
      vertex 17.5 140.5 17.5
      vertex 17.5 120.969 7.96306
      vertex 17.5 121.427 7.85317
    endloop
  endfacet
  facet normal 1 0 0
    outer loop
      vertex 17.5 140.5 17.5
      vertex 17.5 120.5 8
      vertex 17.5 120.969 7.96306
    endloop
  endfacet
  facet normal 1 0 0
    outer loop
      vertex 17.5 140.5 17.5
      vertex 17.5 120.031 7.96306
      vertex 17.5 120.5 8
    endloop
  endfacet
  facet normal 1 0 0
    outer loop
      vertex 17.5 140.5 17.5
      vertex 17.5 119.573 7.85317
      vertex 17.5 120.031 7.96306
    endloop
  endfacet
  facet normal 1 -0 0
    outer loop
      vertex 17.5 0 17.5
      vertex 17.5 119.573 7.85317
      vertex 17.5 140.5 17.5
    endloop
  endfacet
  facet normal 1 0 0
    outer loop
      vertex 17.5 119.573 7.85317
      vertex 17.5 0 17.5
      vertex 17.5 119.138 7.67302
    endloop
  endfacet
  facet normal 1 0 0
    outer loop
      vertex 17.5 0 17.5
      vertex 17.5 118.737 7.42705
      vertex 17.5 119.138 7.67302
    endloop
  endfacet
  facet normal 1 0 0
    outer loop
      vertex 17.5 0 17.5
      vertex 17.5 118.379 7.12132
      vertex 17.5 118.737 7.42705
    endloop
  endfacet
  facet normal 1 0 0
    outer loop
      vertex 17.5 0 17.5
      vertex 17.5 118.073 6.76336
      vertex 17.5 118.379 7.12132
    endloop
  endfacet
  facet normal 1 0 0
    outer loop
      vertex 17.5 0 17.5
      vertex 17.5 117.827 6.36197
      vertex 17.5 118.073 6.76336
    endloop
  endfacet
  facet normal 1 0 0
    outer loop
      vertex 17.5 0 17.5
      vertex 17.5 117.647 5.92705
      vertex 17.5 117.827 6.36197
    endloop
  endfacet
  facet normal 1 0 0
    outer loop
      vertex 17.5 0 17.5
      vertex 17.5 117.537 5.4693
      vertex 17.5 117.647 5.92705
    endloop
  endfacet
  facet normal 1 0 0
    outer loop
      vertex 17.5 0 17.5
      vertex 17.5 117.5 5
      vertex 17.5 117.537 5.4693
    endloop
  endfacet
  facet normal 1 0 0
    outer loop
      vertex 17.5 0 17.5
      vertex 17.5 117.5 0
      vertex 17.5 117.5 5
    endloop
  endfacet
  facet normal 1 0 0
    outer loop
      vertex 17.5 0 33.7831
      vertex 17.5 -10 36
      vertex 17.5 0 17.5
    endloop
  endfacet
  facet normal 1 0 0
    outer loop
      vertex 17.5 0 17.5
      vertex 17.5 -10 0
      vertex 17.5 117.5 0
    endloop
  endfacet
  facet normal 1 0 0
    outer loop
      vertex 17.5 -10 0
      vertex 17.5 0 17.5
      vertex 17.5 -10 36
    endloop
  endfacet
  facet normal 1 0 0
    outer loop
      vertex 17.5 140.5 0
      vertex 17.5 123.5 5
      vertex 17.5 123.5 0
    endloop
  endfacet
  facet normal 0 1 0
    outer loop
      vertex 17.5 140.5 17.5
      vertex 10.5 140.5 6
      vertex 10.5 140.5 17.5
    endloop
  endfacet
  facet normal 0 1 0
    outer loop
      vertex 10.5 140.5 6
      vertex 17.5 140.5 0
      vertex 7 140.5 6
    endloop
  endfacet
  facet normal 0 1 -0
    outer loop
      vertex 17.5 140.5 0
      vertex 10.5 140.5 6
      vertex 17.5 140.5 17.5
    endloop
  endfacet
  facet normal 0 1 -0
    outer loop
      vertex 7 140.5 6
      vertex 0 140.5 17.5
      vertex 7 140.5 17.5
    endloop
  endfacet
  facet normal 0 1 0
    outer loop
      vertex 7 140.5 6
      vertex 0 140.5 0
      vertex 0 140.5 17.5
    endloop
  endfacet
  facet normal 0 1 0
    outer loop
      vertex 0 140.5 0
      vertex 7 140.5 6
      vertex 17.5 140.5 0
    endloop
  endfacet
  facet normal 0 0 -1
    outer loop
      vertex 0 -10 0
      vertex 17.5 117.5 0
      vertex 17.5 -10 0
    endloop
  endfacet
  facet normal -0 0 -1
    outer loop
      vertex 17.5 117.5 0
      vertex 0 -10 0
      vertex 0 117.5 0
    endloop
  endfacet
  facet normal 0 0 -1
    outer loop
      vertex 0 123.5 0
      vertex 17.5 140.5 0
      vertex 17.5 123.5 0
    endloop
  endfacet
  facet normal -0 0 -1
    outer loop
      vertex 17.5 140.5 0
      vertex 0 123.5 0
      vertex 0 140.5 0
    endloop
  endfacet
  facet normal 0 1 -0
    outer loop
      vertex 10.5 0 6
      vertex 7 0 17.5
      vertex 10.5 0 17.5
    endloop
  endfacet
  facet normal 0 1 0
    outer loop
      vertex 7 0 17.5
      vertex 10.5 0 6
      vertex 7 0 6
    endloop
  endfacet
  facet normal 0 1 0
    outer loop
      vertex 10.5 0 17.5
      vertex 17.5 0 33.7831
      vertex 17.5 0 17.5
    endloop
  endfacet
  facet normal 0 1 0
    outer loop
      vertex 17.5 0 33.7831
      vertex 10.5 0 17.5
      vertex 0 0 33.7831
    endloop
  endfacet
  facet normal 0 1 -0
    outer loop
      vertex 7 0 17.5
      vertex 0 0 33.7831
      vertex 10.5 0 17.5
    endloop
  endfacet
  facet normal 0 1 0
    outer loop
      vertex 0 0 33.7831
      vertex 7 0 17.5
      vertex 0 0 17.5
    endloop
  endfacet
  facet normal 1 -0 0
    outer loop
      vertex 7 123.173 6.36197
      vertex 7 140.5 6
      vertex 7 140.5 17.5
    endloop
  endfacet
  facet normal 1 0 0
    outer loop
      vertex 7 140.5 6
      vertex 7 123.173 6.36197
      vertex 7 123.323 6
    endloop
  endfacet
  facet normal 1 0 0
    outer loop
      vertex 7 140.5 17.5
      vertex 7 122.927 6.76336
      vertex 7 123.173 6.36197
    endloop
  endfacet
  facet normal 1 0 0
    outer loop
      vertex 7 140.5 17.5
      vertex 7 122.621 7.12132
      vertex 7 122.927 6.76336
    endloop
  endfacet
  facet normal 1 0 0
    outer loop
      vertex 7 140.5 17.5
      vertex 7 122.263 7.42705
      vertex 7 122.621 7.12132
    endloop
  endfacet
  facet normal 1 0 0
    outer loop
      vertex 7 140.5 17.5
      vertex 7 121.862 7.67302
      vertex 7 122.263 7.42705
    endloop
  endfacet
  facet normal 1 0 0
    outer loop
      vertex 7 140.5 17.5
      vertex 7 121.427 7.85317
      vertex 7 121.862 7.67302
    endloop
  endfacet
  facet normal 1 0 0
    outer loop
      vertex 7 140.5 17.5
      vertex 7 120.969 7.96306
      vertex 7 121.427 7.85317
    endloop
  endfacet
  facet normal 1 0 0
    outer loop
      vertex 7 140.5 17.5
      vertex 7 120.5 8
      vertex 7 120.969 7.96306
    endloop
  endfacet
  facet normal 1 0 0
    outer loop
      vertex 7 140.5 17.5
      vertex 7 120.031 7.96306
      vertex 7 120.5 8
    endloop
  endfacet
  facet normal 1 0 0
    outer loop
      vertex 7 140.5 17.5
      vertex 7 119.573 7.85317
      vertex 7 120.031 7.96306
    endloop
  endfacet
  facet normal 1 -0 0
    outer loop
      vertex 7 0 17.5
      vertex 7 119.573 7.85317
      vertex 7 140.5 17.5
    endloop
  endfacet
  facet normal 1 0 0
    outer loop
      vertex 7 119.573 7.85317
      vertex 7 0 17.5
      vertex 7 119.138 7.67302
    endloop
  endfacet
  facet normal 1 0 0
    outer loop
      vertex 7 0 17.5
      vertex 7 118.737 7.42705
      vertex 7 119.138 7.67302
    endloop
  endfacet
  facet normal 1 0 0
    outer loop
      vertex 7 0 17.5
      vertex 7 118.379 7.12132
      vertex 7 118.737 7.42705
    endloop
  endfacet
  facet normal 1 0 0
    outer loop
      vertex 7 0 17.5
      vertex 7 118.073 6.76336
      vertex 7 118.379 7.12132
    endloop
  endfacet
  facet normal 1 0 0
    outer loop
      vertex 7 0 17.5
      vertex 7 117.827 6.36197
      vertex 7 118.073 6.76336
    endloop
  endfacet
  facet normal 1 0 0
    outer loop
      vertex 7 0 17.5
      vertex 7 117.677 6
      vertex 7 117.827 6.36197
    endloop
  endfacet
  facet normal 1 0 0
    outer loop
      vertex 7 117.677 6
      vertex 7 0 17.5
      vertex 7 0 6
    endloop
  endfacet
  facet normal -1 0 0
    outer loop
      vertex 10.5 123.173 6.36197
      vertex 10.5 140.5 6
      vertex 10.5 123.323 6
    endloop
  endfacet
  facet normal -1 0 0
    outer loop
      vertex 10.5 140.5 6
      vertex 10.5 123.173 6.36197
      vertex 10.5 140.5 17.5
    endloop
  endfacet
  facet normal -1 0 0
    outer loop
      vertex 10.5 122.927 6.76336
      vertex 10.5 140.5 17.5
      vertex 10.5 123.173 6.36197
    endloop
  endfacet
  facet normal -1 0 0
    outer loop
      vertex 10.5 122.621 7.12132
      vertex 10.5 140.5 17.5
      vertex 10.5 122.927 6.76336
    endloop
  endfacet
  facet normal -1 0 0
    outer loop
      vertex 10.5 122.263 7.42705
      vertex 10.5 140.5 17.5
      vertex 10.5 122.621 7.12132
    endloop
  endfacet
  facet normal -1 0 0
    outer loop
      vertex 10.5 121.862 7.67302
      vertex 10.5 140.5 17.5
      vertex 10.5 122.263 7.42705
    endloop
  endfacet
  facet normal -1 0 0
    outer loop
      vertex 10.5 121.427 7.85317
      vertex 10.5 140.5 17.5
      vertex 10.5 121.862 7.67302
    endloop
  endfacet
  facet normal -1 0 0
    outer loop
      vertex 10.5 120.969 7.96306
      vertex 10.5 140.5 17.5
      vertex 10.5 121.427 7.85317
    endloop
  endfacet
  facet normal -1 0 0
    outer loop
      vertex 10.5 120.5 8
      vertex 10.5 140.5 17.5
      vertex 10.5 120.969 7.96306
    endloop
  endfacet
  facet normal -1 0 0
    outer loop
      vertex 10.5 120.031 7.96306
      vertex 10.5 140.5 17.5
      vertex 10.5 120.5 8
    endloop
  endfacet
  facet normal -1 0 0
    outer loop
      vertex 10.5 119.573 7.85317
      vertex 10.5 140.5 17.5
      vertex 10.5 120.031 7.96306
    endloop
  endfacet
  facet normal -1 0 0
    outer loop
      vertex 10.5 0 17.5
      vertex 10.5 119.573 7.85317
      vertex 10.5 119.138 7.67302
    endloop
  endfacet
  facet normal -1 0 0
    outer loop
      vertex 10.5 0 17.5
      vertex 10.5 117.677 6
      vertex 10.5 0 6
    endloop
  endfacet
  facet normal -1 0 0
    outer loop
      vertex 10.5 117.677 6
      vertex 10.5 0 17.5
      vertex 10.5 117.827 6.36197
    endloop
  endfacet
  facet normal -1 0 0
    outer loop
      vertex 10.5 117.827 6.36197
      vertex 10.5 0 17.5
      vertex 10.5 118.073 6.76336
    endloop
  endfacet
  facet normal -1 0 0
    outer loop
      vertex 10.5 118.073 6.76336
      vertex 10.5 0 17.5
      vertex 10.5 118.379 7.12132
    endloop
  endfacet
  facet normal -1 0 0
    outer loop
      vertex 10.5 118.379 7.12132
      vertex 10.5 0 17.5
      vertex 10.5 118.737 7.42705
    endloop
  endfacet
  facet normal -1 0 0
    outer loop
      vertex 10.5 118.737 7.42705
      vertex 10.5 0 17.5
      vertex 10.5 119.138 7.67302
    endloop
  endfacet
  facet normal -1 0 0
    outer loop
      vertex 10.5 119.573 7.85317
      vertex 10.5 0 17.5
      vertex 10.5 140.5 17.5
    endloop
  endfacet
  facet normal -0 0 1
    outer loop
      vertex 7 140.5 6
      vertex 10.5 123.323 6
      vertex 10.5 140.5 6
    endloop
  endfacet
  facet normal 0 0 1
    outer loop
      vertex 10.5 123.323 6
      vertex 7 140.5 6
      vertex 7 123.323 6
    endloop
  endfacet
  facet normal -0 0 1
    outer loop
      vertex 7 117.677 6
      vertex 10.5 0 6
      vertex 10.5 117.677 6
    endloop
  endfacet
  facet normal 0 0 1
    outer loop
      vertex 10.5 0 6
      vertex 7 117.677 6
      vertex 7 0 6
    endloop
  endfacet
  facet normal 0 -1 0
    outer loop
      vertex 0 -10 0
      vertex 17.5 -10 36
      vertex 0 -10 36
    endloop
  endfacet
  facet normal 0 -1 -0
    outer loop
      vertex 17.5 -10 36
      vertex 0 -10 0
      vertex 17.5 -10 0
    endloop
  endfacet
  facet normal 0 -0.906308 0.422618
    outer loop
      vertex 0 -10 36
      vertex 17.5 -6.26954 44
      vertex 0 -6.26954 44
    endloop
  endfacet
  facet normal 0 -0.906308 0.422618
    outer loop
      vertex 17.5 -6.26954 44
      vertex 0 -10 36
      vertex 17.5 -10 36
    endloop
  endfacet
  facet normal 0 0.906308 -0.422618
    outer loop
      vertex 17.5 0 33.7831
      vertex 0 4.76424 44
      vertex 17.5 4.76424 44
    endloop
  endfacet
  facet normal 0 0.906308 -0.422618
    outer loop
      vertex 0 4.76424 44
      vertex 17.5 0 33.7831
      vertex 0 0 33.7831
    endloop
  endfacet
  facet normal 0 -0.0784615 -0.996917
    outer loop
      vertex 0 120.5 8
      vertex 7 120.969 7.96306
      vertex 7 120.5 8
    endloop
  endfacet
  facet normal -0 -0.0784615 -0.996917
    outer loop
      vertex 7 120.969 7.96306
      vertex 0 120.5 8
      vertex 0 120.969 7.96306
    endloop
  endfacet
  facet normal 0 -0.0784615 -0.996917
    outer loop
      vertex 10.5 120.5 8
      vertex 17.5 120.969 7.96306
      vertex 17.5 120.5 8
    endloop
  endfacet
  facet normal -0 -0.0784615 -0.996917
    outer loop
      vertex 17.5 120.969 7.96306
      vertex 10.5 120.5 8
      vertex 10.5 120.969 7.96306
    endloop
  endfacet
  facet normal 0 -0.760412 -0.649441
    outer loop
      vertex 10.5 122.927 6.76336
      vertex 17.5 122.621 7.12132
      vertex 10.5 122.621 7.12132
    endloop
  endfacet
  facet normal 0 -0.760412 -0.649441
    outer loop
      vertex 17.5 122.621 7.12132
      vertex 10.5 122.927 6.76336
      vertex 17.5 122.927 6.76336
    endloop
  endfacet
  facet normal 0 -0.760412 -0.649441
    outer loop
      vertex 0 122.927 6.76336
      vertex 7 122.621 7.12132
      vertex 0 122.621 7.12132
    endloop
  endfacet
  facet normal 0 -0.760412 -0.649441
    outer loop
      vertex 7 122.621 7.12132
      vertex 0 122.927 6.76336
      vertex 7 122.927 6.76336
    endloop
  endfacet
  facet normal 0 -0.92388 -0.382683
    outer loop
      vertex 0 123.173 6.36197
      vertex 7 123.323 6
      vertex 7 123.173 6.36197
    endloop
  endfacet
  facet normal 0 -0.923864 -0.38272
    outer loop
      vertex 7 123.323 6
      vertex 0 123.353 5.92705
      vertex 10.5 123.323 6
    endloop
  endfacet
  facet normal -3.81889e-07 -0.923877 -0.382689
    outer loop
      vertex 0 123.353 5.92705
      vertex 7 123.323 6
      vertex 0 123.173 6.36197
    endloop
  endfacet
  facet normal 0 -0.92388 -0.382683
    outer loop
      vertex 10.5 123.323 6
      vertex 17.5 123.173 6.36197
      vertex 10.5 123.173 6.36197
    endloop
  endfacet
  facet normal 3.81889e-07 -0.923877 -0.382689
    outer loop
      vertex 10.5 123.323 6
      vertex 17.5 123.353 5.92705
      vertex 17.5 123.173 6.36197
    endloop
  endfacet
  facet normal -0 -0.923864 -0.38272
    outer loop
      vertex 17.5 123.353 5.92705
      vertex 10.5 123.323 6
      vertex 0 123.353 5.92705
    endloop
  endfacet
  facet normal 0 -0.522501 -0.852639
    outer loop
      vertex 0 121.862 7.67302
      vertex 7 122.263 7.42705
      vertex 7 121.862 7.67302
    endloop
  endfacet
  facet normal -0 -0.522501 -0.852639
    outer loop
      vertex 7 122.263 7.42705
      vertex 0 121.862 7.67302
      vertex 0 122.263 7.42705
    endloop
  endfacet
  facet normal 0 -0.522501 -0.852639
    outer loop
      vertex 10.5 121.862 7.67302
      vertex 17.5 122.263 7.42705
      vertex 17.5 121.862 7.67302
    endloop
  endfacet
  facet normal -0 -0.522501 -0.852639
    outer loop
      vertex 17.5 122.263 7.42705
      vertex 10.5 121.862 7.67302
      vertex 10.5 122.263 7.42705
    endloop
  endfacet
  facet normal 0 -0.649441 -0.760412
    outer loop
      vertex 10.5 122.263 7.42705
      vertex 17.5 122.621 7.12132
      vertex 17.5 122.263 7.42705
    endloop
  endfacet
  facet normal -0 -0.649441 -0.760412
    outer loop
      vertex 17.5 122.621 7.12132
      vertex 10.5 122.263 7.42705
      vertex 10.5 122.621 7.12132
    endloop
  endfacet
  facet normal 0 -0.649441 -0.760412
    outer loop
      vertex 0 122.263 7.42705
      vertex 7 122.621 7.12132
      vertex 7 122.263 7.42705
    endloop
  endfacet
  facet normal -0 -0.649441 -0.760412
    outer loop
      vertex 7 122.621 7.12132
      vertex 0 122.263 7.42705
      vertex 0 122.621 7.12132
    endloop
  endfacet
  facet normal 0 -0.382683 -0.92388
    outer loop
      vertex 0 121.427 7.85317
      vertex 7 121.862 7.67302
      vertex 7 121.427 7.85317
    endloop
  endfacet
  facet normal -0 -0.382683 -0.92388
    outer loop
      vertex 7 121.862 7.67302
      vertex 0 121.427 7.85317
      vertex 0 121.862 7.67302
    endloop
  endfacet
  facet normal 0 -0.382683 -0.92388
    outer loop
      vertex 10.5 121.427 7.85317
      vertex 17.5 121.862 7.67302
      vertex 17.5 121.427 7.85317
    endloop
  endfacet
  facet normal -0 -0.382683 -0.92388
    outer loop
      vertex 17.5 121.862 7.67302
      vertex 10.5 121.427 7.85317
      vertex 10.5 121.862 7.67302
    endloop
  endfacet
  facet normal 0 -0.852637 -0.522503
    outer loop
      vertex 0 123.173 6.36197
      vertex 7 122.927 6.76336
      vertex 0 122.927 6.76336
    endloop
  endfacet
  facet normal 0 -0.852637 -0.522503
    outer loop
      vertex 7 122.927 6.76336
      vertex 0 123.173 6.36197
      vertex 7 123.173 6.36197
    endloop
  endfacet
  facet normal 0 -0.852637 -0.522503
    outer loop
      vertex 10.5 123.173 6.36197
      vertex 17.5 122.927 6.76336
      vertex 10.5 122.927 6.76336
    endloop
  endfacet
  facet normal 0 -0.852637 -0.522503
    outer loop
      vertex 17.5 122.927 6.76336
      vertex 10.5 123.173 6.36197
      vertex 17.5 123.173 6.36197
    endloop
  endfacet
  facet normal 0 -0.972371 -0.233442
    outer loop
      vertex 0 123.463 5.4693
      vertex 17.5 123.353 5.92705
      vertex 0 123.353 5.92705
    endloop
  endfacet
  facet normal 0 -0.972371 -0.233442
    outer loop
      vertex 17.5 123.353 5.92705
      vertex 0 123.463 5.4693
      vertex 17.5 123.463 5.4693
    endloop
  endfacet
  facet normal 0 -0.233444 -0.97237
    outer loop
      vertex 0 120.969 7.96306
      vertex 7 121.427 7.85317
      vertex 7 120.969 7.96306
    endloop
  endfacet
  facet normal -0 -0.233444 -0.97237
    outer loop
      vertex 7 121.427 7.85317
      vertex 0 120.969 7.96306
      vertex 0 121.427 7.85317
    endloop
  endfacet
  facet normal 0 -0.233444 -0.97237
    outer loop
      vertex 10.5 120.969 7.96306
      vertex 17.5 121.427 7.85317
      vertex 17.5 120.969 7.96306
    endloop
  endfacet
  facet normal -0 -0.233444 -0.97237
    outer loop
      vertex 17.5 121.427 7.85317
      vertex 10.5 120.969 7.96306
      vertex 10.5 121.427 7.85317
    endloop
  endfacet
  facet normal 0 -0.996918 -0.0784569
    outer loop
      vertex 0 123.5 5
      vertex 17.5 123.463 5.4693
      vertex 0 123.463 5.4693
    endloop
  endfacet
  facet normal 0 -0.996918 -0.0784569
    outer loop
      vertex 17.5 123.463 5.4693
      vertex 0 123.5 5
      vertex 17.5 123.5 5
    endloop
  endfacet
  facet normal 0 0.92388 -0.382683
    outer loop
      vertex 17.5 117.827 6.36197
      vertex 10.5 117.677 6
      vertex 10.5 117.827 6.36197
    endloop
  endfacet
  facet normal 0 0.923864 -0.38272
    outer loop
      vertex 10.5 117.677 6
      vertex 17.5 117.647 5.92705
      vertex 7 117.677 6
    endloop
  endfacet
  facet normal 3.81889e-07 0.923877 -0.382689
    outer loop
      vertex 17.5 117.647 5.92705
      vertex 10.5 117.677 6
      vertex 17.5 117.827 6.36197
    endloop
  endfacet
  facet normal 0 0.92388 -0.382683
    outer loop
      vertex 7 117.677 6
      vertex 0 117.827 6.36197
      vertex 7 117.827 6.36197
    endloop
  endfacet
  facet normal -3.81889e-07 0.923877 -0.382689
    outer loop
      vertex 7 117.677 6
      vertex 0 117.647 5.92705
      vertex 0 117.827 6.36197
    endloop
  endfacet
  facet normal 0 0.923864 -0.38272
    outer loop
      vertex 0 117.647 5.92705
      vertex 7 117.677 6
      vertex 17.5 117.647 5.92705
    endloop
  endfacet
  facet normal 0 0.972371 -0.233442
    outer loop
      vertex 17.5 117.537 5.4693
      vertex 0 117.647 5.92705
      vertex 17.5 117.647 5.92705
    endloop
  endfacet
  facet normal 0 0.972371 -0.233442
    outer loop
      vertex 0 117.647 5.92705
      vertex 17.5 117.537 5.4693
      vertex 0 117.537 5.4693
    endloop
  endfacet
  facet normal 0 0.522493 -0.852643
    outer loop
      vertex 0 118.737 7.42705
      vertex 7 119.138 7.67302
      vertex 7 118.737 7.42705
    endloop
  endfacet
  facet normal 0 0.522493 -0.852643
    outer loop
      vertex 7 119.138 7.67302
      vertex 0 118.737 7.42705
      vertex 0 119.138 7.67302
    endloop
  endfacet
  facet normal 0 0.522493 -0.852643
    outer loop
      vertex 10.5 118.737 7.42705
      vertex 17.5 119.138 7.67302
      vertex 17.5 118.737 7.42705
    endloop
  endfacet
  facet normal 0 0.522493 -0.852643
    outer loop
      vertex 17.5 119.138 7.67302
      vertex 10.5 118.737 7.42705
      vertex 10.5 119.138 7.67302
    endloop
  endfacet
  facet normal 0 0.996918 -0.0784569
    outer loop
      vertex 17.5 117.5 5
      vertex 0 117.537 5.4693
      vertex 17.5 117.537 5.4693
    endloop
  endfacet
  facet normal 0 0.996918 -0.0784569
    outer loop
      vertex 0 117.537 5.4693
      vertex 17.5 117.5 5
      vertex 0 117.5 5
    endloop
  endfacet
  facet normal 0 0.852637 -0.522503
    outer loop
      vertex 7 117.827 6.36197
      vertex 0 118.073 6.76336
      vertex 7 118.073 6.76336
    endloop
  endfacet
  facet normal 0 0.852637 -0.522503
    outer loop
      vertex 0 118.073 6.76336
      vertex 7 117.827 6.36197
      vertex 0 117.827 6.36197
    endloop
  endfacet
  facet normal 0 0.852637 -0.522503
    outer loop
      vertex 17.5 117.827 6.36197
      vertex 10.5 118.073 6.76336
      vertex 17.5 118.073 6.76336
    endloop
  endfacet
  facet normal 0 0.852637 -0.522503
    outer loop
      vertex 10.5 118.073 6.76336
      vertex 17.5 117.827 6.36197
      vertex 10.5 117.827 6.36197
    endloop
  endfacet
  facet normal 0 0.760412 -0.649441
    outer loop
      vertex 7 118.073 6.76336
      vertex 0 118.379 7.12132
      vertex 7 118.379 7.12132
    endloop
  endfacet
  facet normal 0 0.760412 -0.649441
    outer loop
      vertex 0 118.379 7.12132
      vertex 7 118.073 6.76336
      vertex 0 118.073 6.76336
    endloop
  endfacet
  facet normal 0 0.760412 -0.649441
    outer loop
      vertex 17.5 118.073 6.76336
      vertex 10.5 118.379 7.12132
      vertex 17.5 118.379 7.12132
    endloop
  endfacet
  facet normal 0 0.760412 -0.649441
    outer loop
      vertex 10.5 118.379 7.12132
      vertex 17.5 118.073 6.76336
      vertex 10.5 118.073 6.76336
    endloop
  endfacet
  facet normal 0 0.649449 -0.760405
    outer loop
      vertex 10.5 118.379 7.12132
      vertex 17.5 118.737 7.42705
      vertex 17.5 118.379 7.12132
    endloop
  endfacet
  facet normal 0 0.649449 -0.760405
    outer loop
      vertex 17.5 118.737 7.42705
      vertex 10.5 118.379 7.12132
      vertex 10.5 118.737 7.42705
    endloop
  endfacet
  facet normal 0 0.649449 -0.760405
    outer loop
      vertex 0 118.379 7.12132
      vertex 7 118.737 7.42705
      vertex 7 118.379 7.12132
    endloop
  endfacet
  facet normal 0 0.649449 -0.760405
    outer loop
      vertex 7 118.737 7.42705
      vertex 0 118.379 7.12132
      vertex 0 118.737 7.42705
    endloop
  endfacet
  facet normal 0 0.233447 -0.972369
    outer loop
      vertex 10.5 119.573 7.85317
      vertex 17.5 120.031 7.96306
      vertex 17.5 119.573 7.85317
    endloop
  endfacet
  facet normal 0 0.233447 -0.972369
    outer loop
      vertex 17.5 120.031 7.96306
      vertex 10.5 119.573 7.85317
      vertex 10.5 120.031 7.96306
    endloop
  endfacet
  facet normal 0 0.233447 -0.972369
    outer loop
      vertex 0 119.573 7.85317
      vertex 7 120.031 7.96306
      vertex 7 119.573 7.85317
    endloop
  endfacet
  facet normal 0 0.233447 -0.972369
    outer loop
      vertex 7 120.031 7.96306
      vertex 0 119.573 7.85317
      vertex 0 120.031 7.96306
    endloop
  endfacet
  facet normal 0 0.0784603 -0.996917
    outer loop
      vertex 0 120.031 7.96306
      vertex 7 120.5 8
      vertex 7 120.031 7.96306
    endloop
  endfacet
  facet normal 0 0.0784603 -0.996917
    outer loop
      vertex 7 120.5 8
      vertex 0 120.031 7.96306
      vertex 0 120.5 8
    endloop
  endfacet
  facet normal 0 0.0784603 -0.996917
    outer loop
      vertex 10.5 120.031 7.96306
      vertex 17.5 120.5 8
      vertex 17.5 120.031 7.96306
    endloop
  endfacet
  facet normal 0 0.0784603 -0.996917
    outer loop
      vertex 17.5 120.5 8
      vertex 10.5 120.031 7.96306
      vertex 10.5 120.5 8
    endloop
  endfacet
  facet normal 0 0.382683 -0.92388
    outer loop
      vertex 0 119.138 7.67302
      vertex 7 119.573 7.85317
      vertex 7 119.138 7.67302
    endloop
  endfacet
  facet normal 0 0.382683 -0.92388
    outer loop
      vertex 7 119.573 7.85317
      vertex 0 119.138 7.67302
      vertex 0 119.573 7.85317
    endloop
  endfacet
  facet normal 0 0.382683 -0.92388
    outer loop
      vertex 10.5 119.138 7.67302
      vertex 17.5 119.573 7.85317
      vertex 17.5 119.138 7.67302
    endloop
  endfacet
  facet normal 0 0.382683 -0.92388
    outer loop
      vertex 17.5 119.573 7.85317
      vertex 10.5 119.138 7.67302
      vertex 10.5 119.573 7.85317
    endloop
  endfacet
  facet normal 0 1 -0
    outer loop
      vertex 17.5 117.5 0
      vertex 0 117.5 5
      vertex 17.5 117.5 5
    endloop
  endfacet
  facet normal 0 1 0
    outer loop
      vertex 0 117.5 5
      vertex 17.5 117.5 0
      vertex 0 117.5 0
    endloop
  endfacet
  facet normal 0 -1 0
    outer loop
      vertex 0 123.5 0
      vertex 17.5 123.5 5
      vertex 0 123.5 5
    endloop
  endfacet
  facet normal 0 -1 -0
    outer loop
      vertex 17.5 123.5 5
      vertex 0 123.5 0
      vertex 17.5 123.5 0
    endloop
  endfacet
  facet normal -0 0 1
    outer loop
      vertex 0 4.76424 44
      vertex 17.5 -6.26954 44
      vertex 17.5 4.76424 44
    endloop
  endfacet
  facet normal 0 0 1
    outer loop
      vertex 17.5 -6.26954 44
      vertex 0 4.76424 44
      vertex 0 -6.26954 44
    endloop
  endfacet
endsolid OpenSCAD_Model
