solid OpenSCAD_Model
  facet normal 0 -0.971921 0.235307
    outer loop
      vertex 0 0 0.00999928
      vertex 15.8 2.3 9.51
      vertex 2.3 2.3 9.51
    endloop
  endfacet
  facet normal 0 -0.971921 0.235307
    outer loop
      vertex 15.8 2.3 9.51
      vertex 0 0 0.00999928
      vertex 18.1 0 0.00999928
    endloop
  endfacet
  facet normal -1 0 0
    outer loop
      vertex 0 0 0
      vertex 0 18.1 0.00999928
      vertex 0 18.1 0
    endloop
  endfacet
  facet normal -1 -0 0
    outer loop
      vertex 0 18.1 0.00999928
      vertex 0 0 0
      vertex 0 0 0.00999928
    endloop
  endfacet
  facet normal 0 0 -1
    outer loop
      vertex 18.1 0 0
      vertex 16.5 1.6 0
      vertex 18.1 18.1 0
    endloop
  endfacet
  facet normal 0 0 -1
    outer loop
      vertex 18.1 0 0
      vertex 1.6 1.6 0
      vertex 16.5 1.6 0
    endloop
  endfacet
  facet normal -0 0 -1
    outer loop
      vertex 1.6 1.6 0
      vertex 0 0 0
      vertex 1.6 16.5 0
    endloop
  endfacet
  facet normal 0 0 -1
    outer loop
      vertex 0 0 0
      vertex 1.6 1.6 0
      vertex 18.1 0 0
    endloop
  endfacet
  facet normal 0 0 -1
    outer loop
      vertex 16.5 16.5 0
      vertex 18.1 18.1 0
      vertex 16.5 1.6 0
    endloop
  endfacet
  facet normal 0 0 -1
    outer loop
      vertex 1.6 16.5 0
      vertex 18.1 18.1 0
      vertex 16.5 16.5 0
    endloop
  endfacet
  facet normal 0 0 -1
    outer loop
      vertex 1.6 16.5 0
      vertex 0 18.1 0
      vertex 18.1 18.1 0
    endloop
  endfacet
  facet normal 0 0 -1
    outer loop
      vertex 0 18.1 0
      vertex 1.6 16.5 0
      vertex 0 0 0
    endloop
  endfacet
  facet normal -0 0 1
    outer loop
      vertex 5.79199 12.798 9.51
      vertex 7.30561 11.286 9.51
      vertex 5.95649 12.9825 9.51
    endloop
  endfacet
  facet normal 0 0 1
    outer loop
      vertex 7.30561 11.286 9.51
      vertex 5.79199 12.798 9.51
      vertex 5.992 11.286 9.51
    endloop
  endfacet
  facet normal -0 0 1
    outer loop
      vertex 5.58949 12.6475 9.51
      vertex 5.992 11.286 9.51
      vertex 5.79199 12.798 9.51
    endloop
  endfacet
  facet normal -0 0 1
    outer loop
      vertex 5.358 12.54 9.51
      vertex 5.992 11.286 9.51
      vertex 5.58949 12.6475 9.51
    endloop
  endfacet
  facet normal -0 0 1
    outer loop
      vertex 5.0975 12.4755 9.51
      vertex 5.992 11.286 9.51
      vertex 5.358 12.54 9.51
    endloop
  endfacet
  facet normal -0 0 1
    outer loop
      vertex 4.80799 12.454 9.51
      vertex 5.992 11.286 9.51
      vertex 5.0975 12.4755 9.51
    endloop
  endfacet
  facet normal 0 0 1
    outer loop
      vertex 3.63999 11.286 9.51
      vertex 4.80799 12.454 9.51
      vertex 4.52499 12.4755 9.51
    endloop
  endfacet
  facet normal 0 0 1
    outer loop
      vertex 3.63999 11.286 9.51
      vertex 4.52499 12.4755 9.51
      vertex 4.268 12.54 9.51
    endloop
  endfacet
  facet normal 0 0 1
    outer loop
      vertex 3.63999 11.286 9.51
      vertex 4.268 12.54 9.51
      vertex 4.037 12.6475 9.51
    endloop
  endfacet
  facet normal 0 0 1
    outer loop
      vertex 4.80799 12.454 9.51
      vertex 3.63999 11.286 9.51
      vertex 5.992 11.286 9.51
    endloop
  endfacet
  facet normal 0 0 1
    outer loop
      vertex 3.83199 12.798 9.51
      vertex 3.63999 11.286 9.51
      vertex 4.037 12.6475 9.51
    endloop
  endfacet
  facet normal 0 0 1
    outer loop
      vertex 3.66399 12.9825 9.51
      vertex 3.63999 11.286 9.51
      vertex 3.83199 12.798 9.51
    endloop
  endfacet
  facet normal 0 0 1
    outer loop
      vertex 3.47199 13.4265 9.51
      vertex 3.63999 11.286 9.51
      vertex 3.54398 13.192 9.51
    endloop
  endfacet
  facet normal 0 0 1
    outer loop
      vertex 3.54398 13.192 9.51
      vertex 3.63999 11.286 9.51
      vertex 3.66399 12.9825 9.51
    endloop
  endfacet
  facet normal 0 0 1
    outer loop
      vertex 10.1976 9.16749 9.51
      vertex 12.1056 7.97399 9.51
      vertex 12.0911 8.37199 9.51
    endloop
  endfacet
  facet normal 0 0 1
    outer loop
      vertex 15.8 15.8 9.51
      vertex 14.4576 8.27799 9.51
      vertex 15.8 2.3 9.51
    endloop
  endfacet
  facet normal 0 0 1
    outer loop
      vertex 15.8 15.8 9.51
      vertex 14.4211 8.98899 9.51
      vertex 14.4576 8.27799 9.51
    endloop
  endfacet
  facet normal 0 0 1
    outer loop
      vertex 15.8 15.8 9.51
      vertex 14.3116 9.61799 9.51
      vertex 14.4211 8.98899 9.51
    endloop
  endfacet
  facet normal 0 0 1
    outer loop
      vertex 15.8 15.8 9.51
      vertex 14.1291 10.165 9.51
      vertex 14.3116 9.61799 9.51
    endloop
  endfacet
  facet normal 0 0 1
    outer loop
      vertex 15.8 15.8 9.51
      vertex 13.8736 10.63 9.51
      vertex 14.1291 10.165 9.51
    endloop
  endfacet
  facet normal 0 0 1
    outer loop
      vertex 15.8 15.8 9.51
      vertex 13.5371 11.001 9.51
      vertex 13.8736 10.63 9.51
    endloop
  endfacet
  facet normal 0 0 1
    outer loop
      vertex 15.8 15.8 9.51
      vertex 13.1116 11.266 9.51
      vertex 13.5371 11.001 9.51
    endloop
  endfacet
  facet normal 0 0 1
    outer loop
      vertex 15.8 15.8 9.51
      vertex 12.5971 11.425 9.51
      vertex 13.1116 11.266 9.51
    endloop
  endfacet
  facet normal 0 0 1
    outer loop
      vertex 15.8 15.8 9.51
      vertex 11.9936 11.478 9.51
      vertex 12.5971 11.425 9.51
    endloop
  endfacet
  facet normal 0 0 1
    outer loop
      vertex 15.8 15.8 9.51
      vertex 11.5986 11.4555 9.51
      vertex 11.9936 11.478 9.51
    endloop
  endfacet
  facet normal -0 0 1
    outer loop
      vertex 6.074 14.178 9.51
      vertex 11.5986 11.4555 9.51
      vertex 15.8 15.8 9.51
    endloop
  endfacet
  facet normal 0 0 1
    outer loop
      vertex 11.5986 11.4555 9.51
      vertex 6.074 14.178 9.51
      vertex 11.2296 11.388 9.51
    endloop
  endfacet
  facet normal 0 -0 1
    outer loop
      vertex 9.22561 11.286 9.51
      vertex 11.2296 11.388 9.51
      vertex 6.074 14.178 9.51
    endloop
  endfacet
  facet normal 0 0 1
    outer loop
      vertex 11.2296 11.388 9.51
      vertex 9.22561 11.286 9.51
      vertex 10.8866 11.2755 9.51
    endloop
  endfacet
  facet normal 0 0 1
    outer loop
      vertex 10.5696 11.118 9.51
      vertex 9.22561 11.286 9.51
      vertex 10.2716 10.9305 9.51
    endloop
  endfacet
  facet normal 0 0 1
    outer loop
      vertex 10.2716 10.9305 9.51
      vertex 9.22561 11.286 9.51
      vertex 9.98562 10.728 9.51
    endloop
  endfacet
  facet normal 0 0 1
    outer loop
      vertex 9.71162 10.5105 9.51
      vertex 9.38561 10.278 9.51
      vertex 9.44962 10.278 9.51
    endloop
  endfacet
  facet normal 0 0 1
    outer loop
      vertex 9.98562 10.728 9.51
      vertex 9.22561 11.286 9.51
      vertex 9.71162 10.5105 9.51
    endloop
  endfacet
  facet normal 0 0 1
    outer loop
      vertex 9.71162 10.5105 9.51
      vertex 9.22561 11.286 9.51
      vertex 9.38561 10.278 9.51
    endloop
  endfacet
  facet normal 0 0 1
    outer loop
      vertex 10.8866 11.2755 9.51
      vertex 9.22561 11.286 9.51
      vertex 10.5696 11.118 9.51
    endloop
  endfacet
  facet normal 0 0 1
    outer loop
      vertex 9.22561 11.286 9.51
      vertex 6.14449 13.4265 9.51
      vertex 7.30561 11.286 9.51
    endloop
  endfacet
  facet normal -0 -0 1
    outer loop
      vertex 6.16799 13.686 9.51
      vertex 9.22561 11.286 9.51
      vertex 6.14449 13.945 9.51
    endloop
  endfacet
  facet normal -0 0 1
    outer loop
      vertex 6.14449 13.4265 9.51
      vertex 9.22561 11.286 9.51
      vertex 6.16799 13.686 9.51
    endloop
  endfacet
  facet normal 0 0 1
    outer loop
      vertex 9.22561 11.286 9.51
      vertex 6.074 14.178 9.51
      vertex 6.14449 13.945 9.51
    endloop
  endfacet
  facet normal 0 0 1
    outer loop
      vertex 15.8 15.8 9.51
      vertex 5.95649 14.385 9.51
      vertex 6.074 14.178 9.51
    endloop
  endfacet
  facet normal 0 0 1
    outer loop
      vertex 15.8 15.8 9.51
      vertex 5.79199 14.566 9.51
      vertex 5.95649 14.385 9.51
    endloop
  endfacet
  facet normal 0 0 1
    outer loop
      vertex 15.8 15.8 9.51
      vertex 5.58949 14.713 9.51
      vertex 5.79199 14.566 9.51
    endloop
  endfacet
  facet normal 0 0 1
    outer loop
      vertex 15.8 15.8 9.51
      vertex 5.358 14.818 9.51
      vertex 5.58949 14.713 9.51
    endloop
  endfacet
  facet normal 0 0 1
    outer loop
      vertex 15.8 15.8 9.51
      vertex 5.0975 14.881 9.51
      vertex 5.358 14.818 9.51
    endloop
  endfacet
  facet normal -0 0 1
    outer loop
      vertex 2.3 15.8 9.51
      vertex 5.0975 14.881 9.51
      vertex 15.8 15.8 9.51
    endloop
  endfacet
  facet normal 0 0 1
    outer loop
      vertex 5.0975 14.881 9.51
      vertex 2.3 15.8 9.51
      vertex 4.80799 14.902 9.51
    endloop
  endfacet
  facet normal 0 0 1
    outer loop
      vertex 3.47199 13.945 9.51
      vertex 2.3 15.8 9.51
      vertex 3.44799 13.686 9.51
    endloop
  endfacet
  facet normal 0 0 1
    outer loop
      vertex 3.54398 14.178 9.51
      vertex 2.3 15.8 9.51
      vertex 3.47199 13.945 9.51
    endloop
  endfacet
  facet normal 0 0 1
    outer loop
      vertex 3.66399 14.385 9.51
      vertex 2.3 15.8 9.51
      vertex 3.54398 14.178 9.51
    endloop
  endfacet
  facet normal 0 0 1
    outer loop
      vertex 3.83199 14.566 9.51
      vertex 2.3 15.8 9.51
      vertex 3.66399 14.385 9.51
    endloop
  endfacet
  facet normal 0 0 1
    outer loop
      vertex 4.037 14.713 9.51
      vertex 2.3 15.8 9.51
      vertex 3.83199 14.566 9.51
    endloop
  endfacet
  facet normal 0 0 1
    outer loop
      vertex 4.268 14.818 9.51
      vertex 2.3 15.8 9.51
      vertex 4.037 14.713 9.51
    endloop
  endfacet
  facet normal 0 0 1
    outer loop
      vertex 4.52499 14.881 9.51
      vertex 2.3 15.8 9.51
      vertex 4.268 14.818 9.51
    endloop
  endfacet
  facet normal 0 0 1
    outer loop
      vertex 4.80799 14.902 9.51
      vertex 2.3 15.8 9.51
      vertex 4.52499 14.881 9.51
    endloop
  endfacet
  facet normal -0 0 1
    outer loop
      vertex 14.4576 3.35 9.51
      vertex 15.8 2.3 9.51
      vertex 14.4576 8.27799 9.51
    endloop
  endfacet
  facet normal -0 0 1
    outer loop
      vertex 12.1056 3.35 9.51
      vertex 15.8 2.3 9.51
      vertex 14.4576 3.35 9.51
    endloop
  endfacet
  facet normal 0 0 1
    outer loop
      vertex 10.7136 9.42799 9.51
      vertex 12.0911 8.37199 9.51
      vertex 12.0476 8.70199 9.51
    endloop
  endfacet
  facet normal 0 0 1
    outer loop
      vertex 11.1296 9.47799 9.51
      vertex 12.0476 8.70199 9.51
      vertex 11.9751 8.964 9.51
    endloop
  endfacet
  facet normal 0 0 1
    outer loop
      vertex 11.5716 9.39799 9.51
      vertex 11.9751 8.964 9.51
      vertex 11.8736 9.158 9.51
    endloop
  endfacet
  facet normal 0 0 1
    outer loop
      vertex 11.5716 9.39799 9.51
      vertex 11.8736 9.158 9.51
      vertex 11.7401 9.298 9.51
    endloop
  endfacet
  facet normal 0 0 1
    outer loop
      vertex 11.9751 8.964 9.51
      vertex 11.5716 9.39799 9.51
      vertex 11.3681 9.45799 9.51
    endloop
  endfacet
  facet normal 0 0 1
    outer loop
      vertex 11.9751 8.964 9.51
      vertex 11.3681 9.45799 9.51
      vertex 11.1296 9.47799 9.51
    endloop
  endfacet
  facet normal 0 0 1
    outer loop
      vertex 12.0476 8.70199 9.51
      vertex 11.1296 9.47799 9.51
      vertex 10.9136 9.46549 9.51
    endloop
  endfacet
  facet normal 0 0 1
    outer loop
      vertex 12.0476 8.70199 9.51
      vertex 10.9136 9.46549 9.51
      vertex 10.7136 9.42799 9.51
    endloop
  endfacet
  facet normal 0 0 1
    outer loop
      vertex 12.0911 8.37199 9.51
      vertex 10.7136 9.42799 9.51
      vertex 10.5296 9.36549 9.51
    endloop
  endfacet
  facet normal 0 0 1
    outer loop
      vertex 12.0911 8.37199 9.51
      vertex 10.5296 9.36549 9.51
      vertex 10.3616 9.27799 9.51
    endloop
  endfacet
  facet normal 0 0 1
    outer loop
      vertex 12.0911 8.37199 9.51
      vertex 10.3616 9.27799 9.51
      vertex 10.1976 9.16749 9.51
    endloop
  endfacet
  facet normal 0 0 1
    outer loop
      vertex 12.1056 7.97399 9.51
      vertex 10.1976 9.16749 9.51
      vertex 10.0256 9.03599 9.51
    endloop
  endfacet
  facet normal 0 0 1
    outer loop
      vertex 12.1056 7.97399 9.51
      vertex 10.0256 9.03599 9.51
      vertex 9.84562 8.88349 9.51
    endloop
  endfacet
  facet normal 0 0 1
    outer loop
      vertex 12.1056 7.97399 9.51
      vertex 9.84562 8.88349 9.51
      vertex 9.65762 8.70998 9.51
    endloop
  endfacet
  facet normal 0 0 1
    outer loop
      vertex 12.1056 7.97399 9.51
      vertex 9.65762 8.70998 9.51
      vertex 9.65762 3.35 9.51
    endloop
  endfacet
  facet normal 0 0 1
    outer loop
      vertex 12.1056 7.97399 9.51
      vertex 9.65762 3.35 9.51
      vertex 12.1056 3.35 9.51
    endloop
  endfacet
  facet normal -0 0 1
    outer loop
      vertex 9.65762 3.35 9.51
      vertex 15.8 2.3 9.51
      vertex 12.1056 3.35 9.51
    endloop
  endfacet
  facet normal 0 0 1
    outer loop
      vertex 2.3 2.3 9.51
      vertex 9.65762 3.35 9.51
      vertex 7.30561 3.35 9.51
    endloop
  endfacet
  facet normal -0 0 1
    outer loop
      vertex 6.074 13.192 9.51
      vertex 7.30561 11.286 9.51
      vertex 6.14449 13.4265 9.51
    endloop
  endfacet
  facet normal -0 0 1
    outer loop
      vertex 5.95649 12.9825 9.51
      vertex 7.30561 11.286 9.51
      vertex 6.074 13.192 9.51
    endloop
  endfacet
  facet normal 0 0 1
    outer loop
      vertex 7.30561 11.286 9.51
      vertex 5.992 11.286 9.51
      vertex 7.30561 3.35 9.51
    endloop
  endfacet
  facet normal 0 0 1
    outer loop
      vertex 5.992 3.35 9.51
      vertex 7.30561 3.35 9.51
      vertex 5.992 11.286 9.51
    endloop
  endfacet
  facet normal 0 0 1
    outer loop
      vertex 2.3 2.3 9.51
      vertex 7.30561 3.35 9.51
      vertex 5.992 3.35 9.51
    endloop
  endfacet
  facet normal 0 0 1
    outer loop
      vertex 2.3 2.3 9.51
      vertex 5.992 3.35 9.51
      vertex 3.63999 3.35 9.51
    endloop
  endfacet
  facet normal 0 0 1
    outer loop
      vertex 3.63999 11.286 9.51
      vertex 3.47199 13.4265 9.51
      vertex 2.3 15.8 9.51
    endloop
  endfacet
  facet normal 0 0 1
    outer loop
      vertex 2.3 15.8 9.51
      vertex 3.47199 13.4265 9.51
      vertex 3.44799 13.686 9.51
    endloop
  endfacet
  facet normal 0 0 1
    outer loop
      vertex 3.63999 11.286 9.51
      vertex 2.3 15.8 9.51
      vertex 2.3 2.3 9.51
    endloop
  endfacet
  facet normal 0 0 1
    outer loop
      vertex 9.65762 3.35 9.51
      vertex 2.3 2.3 9.51
      vertex 15.8 2.3 9.51
    endloop
  endfacet
  facet normal 0 0 1
    outer loop
      vertex 3.63999 11.286 9.51
      vertex 2.3 2.3 9.51
      vertex 3.63999 3.35 9.51
    endloop
  endfacet
  facet normal 0 -1 0
    outer loop
      vertex 0 0 0
      vertex 18.1 0 0.00999928
      vertex 0 0 0.00999928
    endloop
  endfacet
  facet normal 0 -1 -0
    outer loop
      vertex 18.1 0 0.00999928
      vertex 0 0 0
      vertex 18.1 0 0
    endloop
  endfacet
  facet normal 0.971921 -0 0.235307
    outer loop
      vertex 15.8 2.3 9.51
      vertex 18.1 18.1 0.00999928
      vertex 15.8 15.8 9.51
    endloop
  endfacet
  facet normal 0.971921 0 0.235307
    outer loop
      vertex 18.1 18.1 0.00999928
      vertex 15.8 2.3 9.51
      vertex 18.1 0 0.00999928
    endloop
  endfacet
  facet normal 1 -0 0
    outer loop
      vertex 18.1 0 0.00999928
      vertex 18.1 18.1 0
      vertex 18.1 18.1 0.00999928
    endloop
  endfacet
  facet normal 1 0 0
    outer loop
      vertex 18.1 18.1 0
      vertex 18.1 0 0.00999928
      vertex 18.1 0 0
    endloop
  endfacet
  facet normal -0.971921 0 0.235307
    outer loop
      vertex 0 18.1 0.00999928
      vertex 2.3 2.3 9.51
      vertex 2.3 15.8 9.51
    endloop
  endfacet
  facet normal -0.971921 0 0.235307
    outer loop
      vertex 2.3 2.3 9.51
      vertex 0 18.1 0.00999928
      vertex 0 0 0.00999928
    endloop
  endfacet
  facet normal 0 1 -0
    outer loop
      vertex 18.1 18.1 0
      vertex 0 18.1 0.00999928
      vertex 18.1 18.1 0.00999928
    endloop
  endfacet
  facet normal 0 1 0
    outer loop
      vertex 0 18.1 0.00999928
      vertex 18.1 18.1 0
      vertex 0 18.1 0
    endloop
  endfacet
  facet normal 0 0.971921 0.235307
    outer loop
      vertex 18.1 18.1 0.00999928
      vertex 2.3 15.8 9.51
      vertex 15.8 15.8 9.51
    endloop
  endfacet
  facet normal 0 0.971921 0.235307
    outer loop
      vertex 2.3 15.8 9.51
      vertex 18.1 18.1 0.00999928
      vertex 0 18.1 0.00999928
    endloop
  endfacet
  facet normal 0 0.973417 -0.229039
    outer loop
      vertex 16.5 1.6 0.00999928
      vertex 2.8 2.8 5.11
      vertex 15.3 2.8 5.11
    endloop
  endfacet
  facet normal 0 0.973417 -0.229039
    outer loop
      vertex 2.8 2.8 5.11
      vertex 16.5 1.6 0.00999928
      vertex 1.6 1.6 0.00999928
    endloop
  endfacet
  facet normal 1 -0 0
    outer loop
      vertex 1.6 1.6 0.00999928
      vertex 1.6 16.5 0
      vertex 1.6 16.5 0.00999928
    endloop
  endfacet
  facet normal 1 0 0
    outer loop
      vertex 1.6 16.5 0
      vertex 1.6 1.6 0.00999928
      vertex 1.6 1.6 0
    endloop
  endfacet
  facet normal 0 0 -1
    outer loop
      vertex 15.3 2.8 5.11
      vertex 12.25 6.7 5.11
      vertex 15.3 15.3 5.11
    endloop
  endfacet
  facet normal 0 0 -1
    outer loop
      vertex 15.3 2.8 5.11
      vertex 5.85 6.7 5.11
      vertex 12.25 6.7 5.11
    endloop
  endfacet
  facet normal -0 0 -1
    outer loop
      vertex 5.85 6.7 5.11
      vertex 2.8 2.8 5.11
      vertex 5.85 11.4 5.11
    endloop
  endfacet
  facet normal 0 0 -1
    outer loop
      vertex 2.8 2.8 5.11
      vertex 5.85 6.7 5.11
      vertex 15.3 2.8 5.11
    endloop
  endfacet
  facet normal 0 0 -1
    outer loop
      vertex 12.25 11.4 5.11
      vertex 15.3 15.3 5.11
      vertex 12.25 6.7 5.11
    endloop
  endfacet
  facet normal 0 0 -1
    outer loop
      vertex 5.85 11.4 5.11
      vertex 15.3 15.3 5.11
      vertex 12.25 11.4 5.11
    endloop
  endfacet
  facet normal 0 0 -1
    outer loop
      vertex 5.85 11.4 5.11
      vertex 2.8 15.3 5.11
      vertex 15.3 15.3 5.11
    endloop
  endfacet
  facet normal 0 0 -1
    outer loop
      vertex 2.8 15.3 5.11
      vertex 5.85 11.4 5.11
      vertex 2.8 2.8 5.11
    endloop
  endfacet
  facet normal 0 1 -0
    outer loop
      vertex 16.5 1.6 0
      vertex 1.6 1.6 0.00999928
      vertex 16.5 1.6 0.00999928
    endloop
  endfacet
  facet normal 0 1 0
    outer loop
      vertex 1.6 1.6 0.00999928
      vertex 16.5 1.6 0
      vertex 1.6 1.6 0
    endloop
  endfacet
  facet normal -0.973417 0 -0.229039
    outer loop
      vertex 16.5 16.5 0.00999928
      vertex 15.3 2.8 5.11
      vertex 15.3 15.3 5.11
    endloop
  endfacet
  facet normal -0.973417 0 -0.229039
    outer loop
      vertex 15.3 2.8 5.11
      vertex 16.5 16.5 0.00999928
      vertex 16.5 1.6 0.00999928
    endloop
  endfacet
  facet normal -1 0 0
    outer loop
      vertex 16.5 1.6 0
      vertex 16.5 16.5 0.00999928
      vertex 16.5 16.5 0
    endloop
  endfacet
  facet normal -1 -0 0
    outer loop
      vertex 16.5 16.5 0.00999928
      vertex 16.5 1.6 0
      vertex 16.5 1.6 0.00999928
    endloop
  endfacet
  facet normal 0.973417 0 -0.229039
    outer loop
      vertex 2.8 2.8 5.11
      vertex 1.6 16.5 0.00999928
      vertex 2.8 15.3 5.11
    endloop
  endfacet
  facet normal 0.973417 0 -0.229039
    outer loop
      vertex 1.6 16.5 0.00999928
      vertex 2.8 2.8 5.11
      vertex 1.6 1.6 0.00999928
    endloop
  endfacet
  facet normal 0 -1 0
    outer loop
      vertex 1.6 16.5 0
      vertex 16.5 16.5 0.00999928
      vertex 1.6 16.5 0.00999928
    endloop
  endfacet
  facet normal 0 -1 -0
    outer loop
      vertex 16.5 16.5 0.00999928
      vertex 1.6 16.5 0
      vertex 16.5 16.5 0
    endloop
  endfacet
  facet normal 0 -0.973417 -0.229039
    outer loop
      vertex 1.6 16.5 0.00999928
      vertex 15.3 15.3 5.11
      vertex 2.8 15.3 5.11
    endloop
  endfacet
  facet normal 0 -0.973417 -0.229039
    outer loop
      vertex 15.3 15.3 5.11
      vertex 1.6 16.5 0.00999928
      vertex 16.5 16.5 0.00999928
    endloop
  endfacet
  facet normal -1 0 0
    outer loop
      vertex 5.85 8.8 0
      vertex 5.85 6.7 0
      vertex 5.85 8.8 0.5
    endloop
  endfacet
  facet normal -1 0 0
    outer loop
      vertex 5.85 9.3 0.5
      vertex 5.85 11.4 0
      vertex 5.85 9.3 0
    endloop
  endfacet
  facet normal -1 0 0
    outer loop
      vertex 5.85 11.4 0
      vertex 5.85 9.3 0.5
      vertex 5.85 11.4 5.11
    endloop
  endfacet
  facet normal -1 0 0
    outer loop
      vertex 5.85 8.8 0.5
      vertex 5.85 11.4 5.11
      vertex 5.85 9.3 0.5
    endloop
  endfacet
  facet normal -1 0 0
    outer loop
      vertex 5.85 6.7 5.11
      vertex 5.85 8.8 0.5
      vertex 5.85 6.7 0
    endloop
  endfacet
  facet normal -1 0 0
    outer loop
      vertex 5.85 8.8 0.5
      vertex 5.85 6.7 5.11
      vertex 5.85 11.4 5.11
    endloop
  endfacet
  facet normal 1 0 0
    outer loop
      vertex 12.25 11.4 5.11
      vertex 12.25 9.3 0.5
      vertex 12.25 11.4 0
    endloop
  endfacet
  facet normal 1 0 0
    outer loop
      vertex 12.25 11.4 5.11
      vertex 12.25 8.8 0.5
      vertex 12.25 9.3 0.5
    endloop
  endfacet
  facet normal 1 -0 0
    outer loop
      vertex 12.25 6.7 5.11
      vertex 12.25 8.8 0.5
      vertex 12.25 11.4 5.11
    endloop
  endfacet
  facet normal 1 0 0
    outer loop
      vertex 12.25 6.7 0
      vertex 12.25 8.8 0.5
      vertex 12.25 6.7 5.11
    endloop
  endfacet
  facet normal 1 0 0
    outer loop
      vertex 12.25 8.8 0.5
      vertex 12.25 6.7 0
      vertex 12.25 8.8 0
    endloop
  endfacet
  facet normal 1 0 0
    outer loop
      vertex 12.25 11.4 0
      vertex 12.25 9.3 0.5
      vertex 12.25 9.3 0
    endloop
  endfacet
  facet normal 0 0 -1
    outer loop
      vertex 6.8 9.3 0
      vertex 5.85 9.3 0
      vertex 6.8 9.85 0
    endloop
  endfacet
  facet normal 0 0 -1
    outer loop
      vertex 6.8 9.85 0
      vertex 8.25 11.4 0
      vertex 8.25 9.85 0
    endloop
  endfacet
  facet normal 0 0 -1
    outer loop
      vertex 5.85 11.4 0
      vertex 6.8 9.85 0
      vertex 5.85 9.3 0
    endloop
  endfacet
  facet normal 0 0 -1
    outer loop
      vertex 6.8 9.85 0
      vertex 5.85 11.4 0
      vertex 8.25 11.4 0
    endloop
  endfacet
  facet normal 0 0 -1
    outer loop
      vertex 8.25 6.7 0
      vertex 6.8 8.25 0
      vertex 8.25 8.25 0
    endloop
  endfacet
  facet normal 0 0 -1
    outer loop
      vertex 5.85 6.7 0
      vertex 6.8 8.25 0
      vertex 8.25 6.7 0
    endloop
  endfacet
  facet normal 0 0 -1
    outer loop
      vertex 5.85 8.8 0
      vertex 6.8 8.25 0
      vertex 5.85 6.7 0
    endloop
  endfacet
  facet normal 0 0 -1
    outer loop
      vertex 6.8 8.25 0
      vertex 5.85 8.8 0
      vertex 6.8 8.8 0
    endloop
  endfacet
  facet normal 0 0 -1
    outer loop
      vertex 12.25 6.7 0
      vertex 11.3 8.25 0
      vertex 12.25 8.8 0
    endloop
  endfacet
  facet normal 0 0 -1
    outer loop
      vertex 9.85 6.7 0
      vertex 11.3 8.25 0
      vertex 12.25 6.7 0
    endloop
  endfacet
  facet normal -0 0 -1
    outer loop
      vertex 11.3 8.25 0
      vertex 9.85 6.7 0
      vertex 9.85 8.25 0
    endloop
  endfacet
  facet normal -0 0 -1
    outer loop
      vertex 12.25 8.8 0
      vertex 11.3 8.25 0
      vertex 11.3 8.8 0
    endloop
  endfacet
  facet normal 0 0 -1
    outer loop
      vertex 11.3 9.85 0
      vertex 12.25 9.3 0
      vertex 11.3 9.3 0
    endloop
  endfacet
  facet normal 0 0 -1
    outer loop
      vertex 12.25 9.3 0
      vertex 11.3 9.85 0
      vertex 12.25 11.4 0
    endloop
  endfacet
  facet normal 0 0 -1
    outer loop
      vertex 9.85 11.4 0
      vertex 11.3 9.85 0
      vertex 9.85 9.85 0
    endloop
  endfacet
  facet normal 0 0 -1
    outer loop
      vertex 11.3 9.85 0
      vertex 9.85 11.4 0
      vertex 12.25 11.4 0
    endloop
  endfacet
  facet normal 0 -1 0
    outer loop
      vertex 5.85 6.7 5.11
      vertex 8.25 6.7 4.2
      vertex 12.25 6.7 5.11
    endloop
  endfacet
  facet normal 0 -1 0
    outer loop
      vertex 5.85 6.7 0
      vertex 8.25 6.7 4.2
      vertex 5.85 6.7 5.11
    endloop
  endfacet
  facet normal 0 -1 -0
    outer loop
      vertex 8.25 6.7 4.2
      vertex 5.85 6.7 0
      vertex 8.25 6.7 0
    endloop
  endfacet
  facet normal 0 -1 0
    outer loop
      vertex 9.85 6.7 4.2
      vertex 12.25 6.7 5.11
      vertex 8.25 6.7 4.2
    endloop
  endfacet
  facet normal 0 -1 0
    outer loop
      vertex 12.25 6.7 0
      vertex 9.85 6.7 4.2
      vertex 9.85 6.7 0
    endloop
  endfacet
  facet normal 0 -1 0
    outer loop
      vertex 9.85 6.7 4.2
      vertex 12.25 6.7 0
      vertex 12.25 6.7 5.11
    endloop
  endfacet
  facet normal 0 1 0
    outer loop
      vertex 12.25 11.4 5.11
      vertex 9.85 11.4 4.2
      vertex 5.85 11.4 5.11
    endloop
  endfacet
  facet normal 0 1 -0
    outer loop
      vertex 12.25 11.4 0
      vertex 9.85 11.4 4.2
      vertex 12.25 11.4 5.11
    endloop
  endfacet
  facet normal 0 1 0
    outer loop
      vertex 9.85 11.4 4.2
      vertex 12.25 11.4 0
      vertex 9.85 11.4 0
    endloop
  endfacet
  facet normal 0 1 -0
    outer loop
      vertex 8.25 11.4 4.2
      vertex 5.85 11.4 5.11
      vertex 9.85 11.4 4.2
    endloop
  endfacet
  facet normal 0 1 0
    outer loop
      vertex 5.85 11.4 0
      vertex 8.25 11.4 4.2
      vertex 8.25 11.4 0
    endloop
  endfacet
  facet normal 0 1 0
    outer loop
      vertex 8.25 11.4 4.2
      vertex 5.85 11.4 0
      vertex 5.85 11.4 5.11
    endloop
  endfacet
  facet normal 1 0 0
    outer loop
      vertex 6.8 9.85 4.2
      vertex 6.8 9.3 0.5
      vertex 6.8 9.85 0
    endloop
  endfacet
  facet normal 1 0 0
    outer loop
      vertex 6.8 9.85 4.2
      vertex 6.8 8.8 0.5
      vertex 6.8 9.3 0.5
    endloop
  endfacet
  facet normal 1 -0 0
    outer loop
      vertex 6.8 8.25 4.2
      vertex 6.8 8.8 0.5
      vertex 6.8 9.85 4.2
    endloop
  endfacet
  facet normal 1 0 0
    outer loop
      vertex 6.8 8.25 0
      vertex 6.8 8.8 0.5
      vertex 6.8 8.25 4.2
    endloop
  endfacet
  facet normal 1 0 0
    outer loop
      vertex 6.8 8.8 0.5
      vertex 6.8 8.25 0
      vertex 6.8 8.8 0
    endloop
  endfacet
  facet normal 1 0 0
    outer loop
      vertex 6.8 9.85 0
      vertex 6.8 9.3 0.5
      vertex 6.8 9.3 0
    endloop
  endfacet
  facet normal 0 0 -1
    outer loop
      vertex 6.8 8.25 4.2
      vertex 8.25 9.85 4.2
      vertex 8.25 8.25 4.2
    endloop
  endfacet
  facet normal -0 0 -1
    outer loop
      vertex 8.25 9.85 4.2
      vertex 6.8 8.25 4.2
      vertex 6.8 9.85 4.2
    endloop
  endfacet
  facet normal 0 0 -1
    outer loop
      vertex 8.25 8.25 4.2
      vertex 9.85 8.25 4.2
      vertex 9.85 6.7 4.2
    endloop
  endfacet
  facet normal 0 0 -1
    outer loop
      vertex 9.85 8.25 4.2
      vertex 8.25 8.25 4.2
      vertex 9.85 9.85 4.2
    endloop
  endfacet
  facet normal 0 0 -1
    outer loop
      vertex 8.25 8.25 4.2
      vertex 9.85 6.7 4.2
      vertex 8.25 6.7 4.2
    endloop
  endfacet
  facet normal 0 0 -1
    outer loop
      vertex 8.25 9.85 4.2
      vertex 9.85 9.85 4.2
      vertex 8.25 8.25 4.2
    endloop
  endfacet
  facet normal 0 0 -1
    outer loop
      vertex 9.85 9.85 4.2
      vertex 8.25 9.85 4.2
      vertex 9.85 11.4 4.2
    endloop
  endfacet
  facet normal -0 0 -1
    outer loop
      vertex 9.85 11.4 4.2
      vertex 8.25 9.85 4.2
      vertex 8.25 11.4 4.2
    endloop
  endfacet
  facet normal 0 0 -1
    outer loop
      vertex 9.85 8.25 4.2
      vertex 11.3 9.85 4.2
      vertex 11.3 8.25 4.2
    endloop
  endfacet
  facet normal -0 0 -1
    outer loop
      vertex 11.3 9.85 4.2
      vertex 9.85 8.25 4.2
      vertex 9.85 9.85 4.2
    endloop
  endfacet
  facet normal -1 0 0
    outer loop
      vertex 11.3 8.8 0
      vertex 11.3 8.25 0
      vertex 11.3 8.8 0.5
    endloop
  endfacet
  facet normal -1 0 0
    outer loop
      vertex 11.3 9.3 0.5
      vertex 11.3 9.85 0
      vertex 11.3 9.3 0
    endloop
  endfacet
  facet normal -1 0 0
    outer loop
      vertex 11.3 9.85 0
      vertex 11.3 9.3 0.5
      vertex 11.3 9.85 4.2
    endloop
  endfacet
  facet normal -1 0 0
    outer loop
      vertex 11.3 8.8 0.5
      vertex 11.3 9.85 4.2
      vertex 11.3 9.3 0.5
    endloop
  endfacet
  facet normal -1 0 0
    outer loop
      vertex 11.3 8.25 4.2
      vertex 11.3 8.8 0.5
      vertex 11.3 8.25 0
    endloop
  endfacet
  facet normal -1 0 0
    outer loop
      vertex 11.3 8.8 0.5
      vertex 11.3 8.25 4.2
      vertex 11.3 9.85 4.2
    endloop
  endfacet
  facet normal 0 -1 0
    outer loop
      vertex 9.85 9.85 0
      vertex 11.3 9.85 4.2
      vertex 9.85 9.85 4.2
    endloop
  endfacet
  facet normal 0 -1 -0
    outer loop
      vertex 11.3 9.85 4.2
      vertex 9.85 9.85 0
      vertex 11.3 9.85 0
    endloop
  endfacet
  facet normal 0 -1 0
    outer loop
      vertex 6.8 9.85 0
      vertex 8.25 9.85 4.2
      vertex 6.8 9.85 4.2
    endloop
  endfacet
  facet normal 0 -1 -0
    outer loop
      vertex 8.25 9.85 4.2
      vertex 6.8 9.85 0
      vertex 8.25 9.85 0
    endloop
  endfacet
  facet normal 0 1 -0
    outer loop
      vertex 8.25 8.25 0
      vertex 6.8 8.25 4.2
      vertex 8.25 8.25 4.2
    endloop
  endfacet
  facet normal 0 1 0
    outer loop
      vertex 6.8 8.25 4.2
      vertex 8.25 8.25 0
      vertex 6.8 8.25 0
    endloop
  endfacet
  facet normal 0 1 -0
    outer loop
      vertex 11.3 8.25 0
      vertex 9.85 8.25 4.2
      vertex 11.3 8.25 4.2
    endloop
  endfacet
  facet normal 0 1 0
    outer loop
      vertex 9.85 8.25 4.2
      vertex 11.3 8.25 0
      vertex 9.85 8.25 0
    endloop
  endfacet
  facet normal 1 -0 0
    outer loop
      vertex 8.25 6.7 4.2
      vertex 8.25 8.25 0
      vertex 8.25 8.25 4.2
    endloop
  endfacet
  facet normal 1 0 0
    outer loop
      vertex 8.25 8.25 0
      vertex 8.25 6.7 4.2
      vertex 8.25 6.7 0
    endloop
  endfacet
  facet normal 1 -0 0
    outer loop
      vertex 8.25 9.85 4.2
      vertex 8.25 11.4 0
      vertex 8.25 11.4 4.2
    endloop
  endfacet
  facet normal 1 0 0
    outer loop
      vertex 8.25 11.4 0
      vertex 8.25 9.85 4.2
      vertex 8.25 9.85 0
    endloop
  endfacet
  facet normal -1 0 0
    outer loop
      vertex 9.85 6.7 0
      vertex 9.85 8.25 4.2
      vertex 9.85 8.25 0
    endloop
  endfacet
  facet normal -1 -0 0
    outer loop
      vertex 9.85 8.25 4.2
      vertex 9.85 6.7 0
      vertex 9.85 6.7 4.2
    endloop
  endfacet
  facet normal -1 0 0
    outer loop
      vertex 9.85 9.85 0
      vertex 9.85 11.4 4.2
      vertex 9.85 11.4 0
    endloop
  endfacet
  facet normal -1 -0 0
    outer loop
      vertex 9.85 11.4 4.2
      vertex 9.85 9.85 0
      vertex 9.85 9.85 4.2
    endloop
  endfacet
  facet normal 0 0 -1
    outer loop
      vertex 5.85 8.8 0.5
      vertex 6.8 9.3 0.5
      vertex 6.8 8.8 0.5
    endloop
  endfacet
  facet normal -0 0 -1
    outer loop
      vertex 6.8 9.3 0.5
      vertex 5.85 8.8 0.5
      vertex 5.85 9.3 0.5
    endloop
  endfacet
  facet normal 0 0 -1
    outer loop
      vertex 11.3 8.8 0.5
      vertex 12.25 9.3 0.5
      vertex 12.25 8.8 0.5
    endloop
  endfacet
  facet normal -0 0 -1
    outer loop
      vertex 12.25 9.3 0.5
      vertex 11.3 8.8 0.5
      vertex 11.3 9.3 0.5
    endloop
  endfacet
  facet normal 0 -1 0
    outer loop
      vertex 5.85 9.3 0
      vertex 6.8 9.3 0.5
      vertex 5.85 9.3 0.5
    endloop
  endfacet
  facet normal 0 -1 -0
    outer loop
      vertex 6.8 9.3 0.5
      vertex 5.85 9.3 0
      vertex 6.8 9.3 0
    endloop
  endfacet
  facet normal 0 -1 0
    outer loop
      vertex 11.3 9.3 0
      vertex 12.25 9.3 0.5
      vertex 11.3 9.3 0.5
    endloop
  endfacet
  facet normal 0 -1 -0
    outer loop
      vertex 12.25 9.3 0.5
      vertex 11.3 9.3 0
      vertex 12.25 9.3 0
    endloop
  endfacet
  facet normal 0 1 -0
    outer loop
      vertex 6.8 8.8 0
      vertex 5.85 8.8 0.5
      vertex 6.8 8.8 0.5
    endloop
  endfacet
  facet normal 0 1 0
    outer loop
      vertex 5.85 8.8 0.5
      vertex 6.8 8.8 0
      vertex 5.85 8.8 0
    endloop
  endfacet
  facet normal 0 1 -0
    outer loop
      vertex 12.25 8.8 0
      vertex 11.3 8.8 0.5
      vertex 12.25 8.8 0.5
    endloop
  endfacet
  facet normal 0 1 0
    outer loop
      vertex 11.3 8.8 0.5
      vertex 12.25 8.8 0
      vertex 11.3 8.8 0
    endloop
  endfacet
  facet normal 0 0 1
    outer loop
      vertex 5.58949 14.713 10.5
      vertex 6.16799 13.686 10.5
      vertex 6.14449 13.945 10.5
    endloop
  endfacet
  facet normal 0 0 1
    outer loop
      vertex 5.79199 14.566 10.5
      vertex 6.14449 13.945 10.5
      vertex 6.074 14.178 10.5
    endloop
  endfacet
  facet normal 0 0 1
    outer loop
      vertex 5.58949 14.713 10.5
      vertex 6.14449 13.945 10.5
      vertex 5.79199 14.566 10.5
    endloop
  endfacet
  facet normal 0 0 1
    outer loop
      vertex 5.79199 14.566 10.5
      vertex 6.074 14.178 10.5
      vertex 5.95649 14.385 10.5
    endloop
  endfacet
  facet normal 0 0 1
    outer loop
      vertex 5.358 14.818 10.5
      vertex 6.16799 13.686 10.5
      vertex 5.58949 14.713 10.5
    endloop
  endfacet
  facet normal 0 -0 1
    outer loop
      vertex 5.58949 12.6475 10.5
      vertex 6.16799 13.686 10.5
      vertex 5.358 14.818 10.5
    endloop
  endfacet
  facet normal 0 0 1
    outer loop
      vertex 6.074 13.192 10.5
      vertex 5.79199 12.798 10.5
      vertex 5.95649 12.9825 10.5
    endloop
  endfacet
  facet normal 0 0 1
    outer loop
      vertex 6.14449 13.4265 10.5
      vertex 5.79199 12.798 10.5
      vertex 6.074 13.192 10.5
    endloop
  endfacet
  facet normal 0 0 1
    outer loop
      vertex 6.14449 13.4265 10.5
      vertex 5.58949 12.6475 10.5
      vertex 5.79199 12.798 10.5
    endloop
  endfacet
  facet normal 0 0 1
    outer loop
      vertex 6.16799 13.686 10.5
      vertex 5.58949 12.6475 10.5
      vertex 6.14449 13.4265 10.5
    endloop
  endfacet
  facet normal 0 0 1
    outer loop
      vertex 5.358 14.818 10.5
      vertex 5.358 12.54 10.5
      vertex 5.58949 12.6475 10.5
    endloop
  endfacet
  facet normal 0 0 1
    outer loop
      vertex 5.0975 14.881 10.5
      vertex 5.358 12.54 10.5
      vertex 5.358 14.818 10.5
    endloop
  endfacet
  facet normal 0 0 1
    outer loop
      vertex 5.0975 14.881 10.5
      vertex 5.0975 12.4755 10.5
      vertex 5.358 12.54 10.5
    endloop
  endfacet
  facet normal 0 0 1
    outer loop
      vertex 4.80799 14.902 10.5
      vertex 5.0975 12.4755 10.5
      vertex 5.0975 14.881 10.5
    endloop
  endfacet
  facet normal 0 0 1
    outer loop
      vertex 4.80799 14.902 10.5
      vertex 4.80799 12.454 10.5
      vertex 5.0975 12.4755 10.5
    endloop
  endfacet
  facet normal -0 0 1
    outer loop
      vertex 4.52499 14.881 10.5
      vertex 4.80799 12.454 10.5
      vertex 4.80799 14.902 10.5
    endloop
  endfacet
  facet normal 0 0 1
    outer loop
      vertex 4.52499 14.881 10.5
      vertex 4.52499 12.4755 10.5
      vertex 4.80799 12.454 10.5
    endloop
  endfacet
  facet normal -0 0 1
    outer loop
      vertex 4.268 14.818 10.5
      vertex 4.52499 12.4755 10.5
      vertex 4.52499 14.881 10.5
    endloop
  endfacet
  facet normal 0 0 1
    outer loop
      vertex 4.268 14.818 10.5
      vertex 4.268 12.54 10.5
      vertex 4.52499 12.4755 10.5
    endloop
  endfacet
  facet normal -0 0 1
    outer loop
      vertex 4.037 14.713 10.5
      vertex 4.268 12.54 10.5
      vertex 4.268 14.818 10.5
    endloop
  endfacet
  facet normal 0 0 1
    outer loop
      vertex 4.037 14.713 10.5
      vertex 4.037 12.6475 10.5
      vertex 4.268 12.54 10.5
    endloop
  endfacet
  facet normal 0 0 1
    outer loop
      vertex 3.44799 13.686 10.5
      vertex 4.037 14.713 10.5
      vertex 3.83199 14.566 10.5
    endloop
  endfacet
  facet normal 0 0 1
    outer loop
      vertex 4.037 14.713 10.5
      vertex 3.44799 13.686 10.5
      vertex 4.037 12.6475 10.5
    endloop
  endfacet
  facet normal 0 0 1
    outer loop
      vertex 3.47199 13.945 10.5
      vertex 3.83199 14.566 10.5
      vertex 3.66399 14.385 10.5
    endloop
  endfacet
  facet normal 0 0 1
    outer loop
      vertex 4.037 12.6475 10.5
      vertex 3.44799 13.686 10.5
      vertex 3.83199 12.798 10.5
    endloop
  endfacet
  facet normal 0 0 1
    outer loop
      vertex 3.47199 13.945 10.5
      vertex 3.66399 14.385 10.5
      vertex 3.54398 14.178 10.5
    endloop
  endfacet
  facet normal -0 -0 1
    outer loop
      vertex 3.47199 13.4265 10.5
      vertex 3.83199 12.798 10.5
      vertex 3.44799 13.686 10.5
    endloop
  endfacet
  facet normal 0 0 1
    outer loop
      vertex 3.83199 14.566 10.5
      vertex 3.47199 13.945 10.5
      vertex 3.44799 13.686 10.5
    endloop
  endfacet
  facet normal 0 0 1
    outer loop
      vertex 3.83199 12.798 10.5
      vertex 3.47199 13.4265 10.5
      vertex 3.66399 12.9825 10.5
    endloop
  endfacet
  facet normal 0 0 1
    outer loop
      vertex 3.66399 12.9825 10.5
      vertex 3.47199 13.4265 10.5
      vertex 3.54398 13.192 10.5
    endloop
  endfacet
  facet normal 0 0 1
    outer loop
      vertex 14.4576 8.27799 10.5
      vertex 12.0911 8.37199 10.5
      vertex 12.1056 7.97399 10.5
    endloop
  endfacet
  facet normal 0 0 1
    outer loop
      vertex 13.1116 11.266 10.5
      vertex 12.0476 8.70199 10.5
      vertex 12.0911 8.37199 10.5
    endloop
  endfacet
  facet normal 0 0 1
    outer loop
      vertex 11.5716 9.39799 10.5
      vertex 12.5971 11.425 10.5
      vertex 11.9936 11.478 10.5
    endloop
  endfacet
  facet normal 0 0 1
    outer loop
      vertex 13.1116 11.266 10.5
      vertex 11.9751 8.964 10.5
      vertex 12.0476 8.70199 10.5
    endloop
  endfacet
  facet normal 0 0 1
    outer loop
      vertex 13.1116 11.266 10.5
      vertex 11.8736 9.158 10.5
      vertex 11.9751 8.964 10.5
    endloop
  endfacet
  facet normal 0 0 1
    outer loop
      vertex 13.1116 11.266 10.5
      vertex 11.7401 9.298 10.5
      vertex 11.8736 9.158 10.5
    endloop
  endfacet
  facet normal 0 0 1
    outer loop
      vertex 11.5716 9.39799 10.5
      vertex 11.9936 11.478 10.5
      vertex 11.5986 11.4555 10.5
    endloop
  endfacet
  facet normal 0 0 1
    outer loop
      vertex 12.5971 11.425 10.5
      vertex 11.5716 9.39799 10.5
      vertex 11.7401 9.298 10.5
    endloop
  endfacet
  facet normal 0 0 1
    outer loop
      vertex 11.5986 11.4555 10.5
      vertex 11.3681 9.45799 10.5
      vertex 11.5716 9.39799 10.5
    endloop
  endfacet
  facet normal -0 0 1
    outer loop
      vertex 11.2296 11.388 10.5
      vertex 11.3681 9.45799 10.5
      vertex 11.5986 11.4555 10.5
    endloop
  endfacet
  facet normal -0 0 1
    outer loop
      vertex 10.8866 11.2755 10.5
      vertex 11.3681 9.45799 10.5
      vertex 11.2296 11.388 10.5
    endloop
  endfacet
  facet normal 0 0 1
    outer loop
      vertex 11.3681 9.45799 10.5
      vertex 10.8866 11.2755 10.5
      vertex 11.1296 9.47799 10.5
    endloop
  endfacet
  facet normal -0 0 1
    outer loop
      vertex 10.5696 11.118 10.5
      vertex 11.1296 9.47799 10.5
      vertex 10.8866 11.2755 10.5
    endloop
  endfacet
  facet normal 0 0 1
    outer loop
      vertex 11.1296 9.47799 10.5
      vertex 10.5696 11.118 10.5
      vertex 10.9136 9.46549 10.5
    endloop
  endfacet
  facet normal -0 0 1
    outer loop
      vertex 10.2716 10.9305 10.5
      vertex 10.9136 9.46549 10.5
      vertex 10.5696 11.118 10.5
    endloop
  endfacet
  facet normal 0 0 1
    outer loop
      vertex 10.9136 9.46549 10.5
      vertex 10.2716 10.9305 10.5
      vertex 10.7136 9.42799 10.5
    endloop
  endfacet
  facet normal -0 0 1
    outer loop
      vertex 9.98562 10.728 10.5
      vertex 10.7136 9.42799 10.5
      vertex 10.2716 10.9305 10.5
    endloop
  endfacet
  facet normal 0 0 1
    outer loop
      vertex 10.7136 9.42799 10.5
      vertex 9.98562 10.728 10.5
      vertex 10.5296 9.36549 10.5
    endloop
  endfacet
  facet normal -0 0 1
    outer loop
      vertex 9.71162 10.5105 10.5
      vertex 10.5296 9.36549 10.5
      vertex 9.98562 10.728 10.5
    endloop
  endfacet
  facet normal 0 0 1
    outer loop
      vertex 10.5296 9.36549 10.5
      vertex 9.71162 10.5105 10.5
      vertex 10.3616 9.27799 10.5
    endloop
  endfacet
  facet normal -0 0 1
    outer loop
      vertex 9.44962 10.278 10.5
      vertex 10.3616 9.27799 10.5
      vertex 9.71162 10.5105 10.5
    endloop
  endfacet
  facet normal 0 0 1
    outer loop
      vertex 10.3616 9.27799 10.5
      vertex 9.44962 10.278 10.5
      vertex 10.1976 9.16749 10.5
    endloop
  endfacet
  facet normal 0 0 1
    outer loop
      vertex 10.1976 9.16749 10.5
      vertex 9.44962 10.278 10.5
      vertex 10.0256 9.03599 10.5
    endloop
  endfacet
  facet normal 0 0 1
    outer loop
      vertex 10.0256 9.03599 10.5
      vertex 9.44962 10.278 10.5
      vertex 9.84562 8.88349 10.5
    endloop
  endfacet
  facet normal -0 0 1
    outer loop
      vertex 9.38561 10.278 10.5
      vertex 9.84562 8.88349 10.5
      vertex 9.44962 10.278 10.5
    endloop
  endfacet
  facet normal 0 0 1
    outer loop
      vertex 9.84562 8.88349 10.5
      vertex 9.38561 10.278 10.5
      vertex 9.65762 8.70998 10.5
    endloop
  endfacet
  facet normal 0 0 1
    outer loop
      vertex 7.30561 11.286 10.5
      vertex 9.65762 8.70998 10.5
      vertex 9.38561 10.278 10.5
    endloop
  endfacet
  facet normal -0 0 1
    outer loop
      vertex 7.30561 11.286 10.5
      vertex 9.38561 10.278 10.5
      vertex 9.22561 11.286 10.5
    endloop
  endfacet
  facet normal 0 0 1
    outer loop
      vertex 9.65762 8.70998 10.5
      vertex 7.30561 11.286 10.5
      vertex 7.30561 3.35 10.5
    endloop
  endfacet
  facet normal 0 0 1
    outer loop
      vertex 9.65762 8.70998 10.5
      vertex 7.30561 3.35 10.5
      vertex 9.65762 3.35 10.5
    endloop
  endfacet
  facet normal -0 0 1
    outer loop
      vertex 12.0911 8.37199 10.5
      vertex 14.4576 8.27799 10.5
      vertex 14.4211 8.98899 10.5
    endloop
  endfacet
  facet normal 0 0 1
    outer loop
      vertex 12.0911 8.37199 10.5
      vertex 14.4211 8.98899 10.5
      vertex 14.3116 9.61799 10.5
    endloop
  endfacet
  facet normal 0 0 1
    outer loop
      vertex 12.0911 8.37199 10.5
      vertex 14.3116 9.61799 10.5
      vertex 14.1291 10.165 10.5
    endloop
  endfacet
  facet normal 0 0 1
    outer loop
      vertex 12.0911 8.37199 10.5
      vertex 14.1291 10.165 10.5
      vertex 13.8736 10.63 10.5
    endloop
  endfacet
  facet normal 0 0 1
    outer loop
      vertex 12.0911 8.37199 10.5
      vertex 13.8736 10.63 10.5
      vertex 13.5371 11.001 10.5
    endloop
  endfacet
  facet normal 0 0 1
    outer loop
      vertex 12.0911 8.37199 10.5
      vertex 13.5371 11.001 10.5
      vertex 13.1116 11.266 10.5
    endloop
  endfacet
  facet normal 0 0 1
    outer loop
      vertex 11.7401 9.298 10.5
      vertex 13.1116 11.266 10.5
      vertex 12.5971 11.425 10.5
    endloop
  endfacet
  facet normal 0 0 1
    outer loop
      vertex 14.4576 8.27799 10.5
      vertex 12.1056 7.97399 10.5
      vertex 14.4576 3.35 10.5
    endloop
  endfacet
  facet normal 0 0 1
    outer loop
      vertex 14.4576 3.35 10.5
      vertex 12.1056 7.97399 10.5
      vertex 12.1056 3.35 10.5
    endloop
  endfacet
  facet normal -0 0 1
    outer loop
      vertex 3.63999 11.286 10.5
      vertex 5.992 3.35 10.5
      vertex 5.992 11.286 10.5
    endloop
  endfacet
  facet normal 0 0 1
    outer loop
      vertex 5.992 3.35 10.5
      vertex 3.63999 11.286 10.5
      vertex 3.63999 3.35 10.5
    endloop
  endfacet
  facet normal 0.240341 -0.970689 0
    outer loop
      vertex 5.0975 12.4755 9.51
      vertex 5.358 12.54 10.5
      vertex 5.0975 12.4755 10.5
    endloop
  endfacet
  facet normal 0.240341 -0.970689 0
    outer loop
      vertex 5.358 12.54 10.5
      vertex 5.0975 12.4755 9.51
      vertex 5.358 12.54 9.51
    endloop
  endfacet
  facet normal 0.421176 -0.906979 0
    outer loop
      vertex 5.358 12.54 9.51
      vertex 5.58949 12.6475 10.5
      vertex 5.358 12.54 10.5
    endloop
  endfacet
  facet normal 0.421176 -0.906979 0
    outer loop
      vertex 5.58949 12.6475 10.5
      vertex 5.358 12.54 9.51
      vertex 5.58949 12.6475 9.51
    endloop
  endfacet
  facet normal 0.59654 -0.802583 0
    outer loop
      vertex 5.58949 12.6475 9.51
      vertex 5.79199 12.798 10.5
      vertex 5.58949 12.6475 10.5
    endloop
  endfacet
  facet normal 0.59654 -0.802583 0
    outer loop
      vertex 5.79199 12.798 10.5
      vertex 5.58949 12.6475 9.51
      vertex 5.79199 12.798 9.51
    endloop
  endfacet
  facet normal 0.746383 -0.665516 0
    outer loop
      vertex 5.79199 12.798 10.5
      vertex 5.95649 12.9825 9.51
      vertex 5.95649 12.9825 10.5
    endloop
  endfacet
  facet normal 0.746383 -0.665516 0
    outer loop
      vertex 5.95649 12.9825 9.51
      vertex 5.79199 12.798 10.5
      vertex 5.79199 12.798 9.51
    endloop
  endfacet
  facet normal 0.872175 -0.489193 0
    outer loop
      vertex 5.95649 12.9825 10.5
      vertex 6.074 13.192 9.51
      vertex 6.074 13.192 10.5
    endloop
  endfacet
  facet normal 0.872175 -0.489193 0
    outer loop
      vertex 6.074 13.192 9.51
      vertex 5.95649 12.9825 10.5
      vertex 5.95649 12.9825 9.51
    endloop
  endfacet
  facet normal 0.957661 -0.287897 0
    outer loop
      vertex 6.074 13.192 10.5
      vertex 6.14449 13.4265 9.51
      vertex 6.14449 13.4265 10.5
    endloop
  endfacet
  facet normal 0.957661 -0.287897 0
    outer loop
      vertex 6.14449 13.4265 9.51
      vertex 6.074 13.192 10.5
      vertex 6.074 13.192 9.51
    endloop
  endfacet
  facet normal 0.995925 -0.090182 0
    outer loop
      vertex 6.14449 13.4265 10.5
      vertex 6.16799 13.686 9.51
      vertex 6.16799 13.686 10.5
    endloop
  endfacet
  facet normal 0.995925 -0.090182 0
    outer loop
      vertex 6.16799 13.686 9.51
      vertex 6.14449 13.4265 10.5
      vertex 6.14449 13.4265 9.51
    endloop
  endfacet
  facet normal 0.995909 0.0903612 0
    outer loop
      vertex 6.16799 13.686 10.5
      vertex 6.14449 13.945 9.51
      vertex 6.14449 13.945 10.5
    endloop
  endfacet
  facet normal 0.995909 0.0903612 0
    outer loop
      vertex 6.14449 13.945 9.51
      vertex 6.16799 13.686 10.5
      vertex 6.16799 13.686 9.51
    endloop
  endfacet
  facet normal 0.957151 0.28959 0
    outer loop
      vertex 6.14449 13.945 10.5
      vertex 6.074 14.178 9.51
      vertex 6.074 14.178 10.5
    endloop
  endfacet
  facet normal 0.957151 0.28959 0
    outer loop
      vertex 6.074 14.178 9.51
      vertex 6.14449 13.945 10.5
      vertex 6.14449 13.945 9.51
    endloop
  endfacet
  facet normal 0.869648 0.493672 0
    outer loop
      vertex 6.074 14.178 10.5
      vertex 5.95649 14.385 9.51
      vertex 5.95649 14.385 10.5
    endloop
  endfacet
  facet normal 0.869648 0.493672 0
    outer loop
      vertex 5.95649 14.385 9.51
      vertex 6.074 14.178 10.5
      vertex 6.074 14.178 9.51
    endloop
  endfacet
  facet normal 0.740022 0.672583 0
    outer loop
      vertex 5.95649 14.385 10.5
      vertex 5.79199 14.566 9.51
      vertex 5.79199 14.566 10.5
    endloop
  endfacet
  facet normal 0.740022 0.672583 0
    outer loop
      vertex 5.79199 14.566 9.51
      vertex 5.95649 14.385 10.5
      vertex 5.95649 14.385 9.51
    endloop
  endfacet
  facet normal 0.587468 0.809247 -0
    outer loop
      vertex 5.79199 14.566 9.51
      vertex 5.58949 14.713 10.5
      vertex 5.79199 14.566 10.5
    endloop
  endfacet
  facet normal 0.587468 0.809247 0
    outer loop
      vertex 5.58949 14.713 10.5
      vertex 5.79199 14.566 9.51
      vertex 5.58949 14.713 9.51
    endloop
  endfacet
  facet normal 0.413061 0.910703 -0
    outer loop
      vertex 5.58949 14.713 9.51
      vertex 5.358 14.818 10.5
      vertex 5.58949 14.713 10.5
    endloop
  endfacet
  facet normal 0.413061 0.910703 0
    outer loop
      vertex 5.358 14.818 10.5
      vertex 5.58949 14.713 9.51
      vertex 5.358 14.818 9.51
    endloop
  endfacet
  facet normal 0.23508 0.971976 -0
    outer loop
      vertex 5.358 14.818 9.51
      vertex 5.0975 14.881 10.5
      vertex 5.358 14.818 10.5
    endloop
  endfacet
  facet normal 0.23508 0.971976 0
    outer loop
      vertex 5.0975 14.881 10.5
      vertex 5.358 14.818 9.51
      vertex 5.0975 14.881 9.51
    endloop
  endfacet
  facet normal 0.0723341 0.99738 -0
    outer loop
      vertex 5.0975 14.881 9.51
      vertex 4.80799 14.902 10.5
      vertex 5.0975 14.881 10.5
    endloop
  endfacet
  facet normal 0.0723341 0.99738 0
    outer loop
      vertex 4.80799 14.902 10.5
      vertex 5.0975 14.881 9.51
      vertex 4.80799 14.902 9.51
    endloop
  endfacet
  facet normal -0.0739866 0.997259 0
    outer loop
      vertex 4.80799 14.902 9.51
      vertex 4.52499 14.881 10.5
      vertex 4.80799 14.902 10.5
    endloop
  endfacet
  facet normal -0.0739866 0.997259 0
    outer loop
      vertex 4.52499 14.881 10.5
      vertex 4.80799 14.902 9.51
      vertex 4.52499 14.881 9.51
    endloop
  endfacet
  facet normal -0.23811 0.971238 0
    outer loop
      vertex 4.52499 14.881 9.51
      vertex 4.268 14.818 10.5
      vertex 4.52499 14.881 10.5
    endloop
  endfacet
  facet normal -0.23811 0.971238 0
    outer loop
      vertex 4.268 14.818 10.5
      vertex 4.52499 14.881 9.51
      vertex 4.268 14.818 9.51
    endloop
  endfacet
  facet normal -0.413785 0.910375 0
    outer loop
      vertex 4.268 14.818 9.51
      vertex 4.037 14.713 10.5
      vertex 4.268 14.818 10.5
    endloop
  endfacet
  facet normal -0.413785 0.910375 0
    outer loop
      vertex 4.037 14.713 10.5
      vertex 4.268 14.818 9.51
      vertex 4.037 14.713 9.51
    endloop
  endfacet
  facet normal -0.582742 0.812657 0
    outer loop
      vertex 4.037 14.713 9.51
      vertex 3.83199 14.566 10.5
      vertex 4.037 14.713 10.5
    endloop
  endfacet
  facet normal -0.582742 0.812657 0
    outer loop
      vertex 3.83199 14.566 10.5
      vertex 4.037 14.713 9.51
      vertex 3.83199 14.566 9.51
    endloop
  endfacet
  facet normal -0.732939 0.680295 0
    outer loop
      vertex 3.66399 14.385 9.51
      vertex 3.83199 14.566 10.5
      vertex 3.83199 14.566 9.51
    endloop
  endfacet
  facet normal -0.732939 0.680295 0
    outer loop
      vertex 3.83199 14.566 10.5
      vertex 3.66399 14.385 9.51
      vertex 3.66399 14.385 10.5
    endloop
  endfacet
  facet normal -0.865122 0.501562 0
    outer loop
      vertex 3.54398 14.178 9.51
      vertex 3.66399 14.385 10.5
      vertex 3.66399 14.385 9.51
    endloop
  endfacet
  facet normal -0.865122 0.501562 0
    outer loop
      vertex 3.66399 14.385 10.5
      vertex 3.54398 14.178 9.51
      vertex 3.54398 14.178 10.5
    endloop
  endfacet
  facet normal -0.955435 0.295202 0
    outer loop
      vertex 3.47199 13.945 9.51
      vertex 3.54398 14.178 10.5
      vertex 3.54398 14.178 9.51
    endloop
  endfacet
  facet normal -0.955435 0.295202 0
    outer loop
      vertex 3.54398 14.178 10.5
      vertex 3.47199 13.945 9.51
      vertex 3.47199 13.945 10.5
    endloop
  endfacet
  facet normal -0.995733 0.0922812 0
    outer loop
      vertex 3.44799 13.686 9.51
      vertex 3.47199 13.945 10.5
      vertex 3.47199 13.945 9.51
    endloop
  endfacet
  facet normal -0.995733 0.0922812 0
    outer loop
      vertex 3.47199 13.945 10.5
      vertex 3.44799 13.686 9.51
      vertex 3.44799 13.686 10.5
    endloop
  endfacet
  facet normal -0.99575 -0.0920982 0
    outer loop
      vertex 3.47199 13.4265 9.51
      vertex 3.44799 13.686 10.5
      vertex 3.44799 13.686 9.51
    endloop
  endfacet
  facet normal -0.99575 -0.0920982 0
    outer loop
      vertex 3.44799 13.686 10.5
      vertex 3.47199 13.4265 9.51
      vertex 3.47199 13.4265 10.5
    endloop
  endfacet
  facet normal -0.955964 -0.293483 0
    outer loop
      vertex 3.54398 13.192 9.51
      vertex 3.47199 13.4265 10.5
      vertex 3.47199 13.4265 9.51
    endloop
  endfacet
  facet normal -0.955964 -0.293483 0
    outer loop
      vertex 3.47199 13.4265 10.5
      vertex 3.54398 13.192 9.51
      vertex 3.54398 13.192 10.5
    endloop
  endfacet
  facet normal -0.867718 -0.497057 0
    outer loop
      vertex 3.66399 12.9825 9.51
      vertex 3.54398 13.192 10.5
      vertex 3.54398 13.192 9.51
    endloop
  endfacet
  facet normal -0.867718 -0.497057 0
    outer loop
      vertex 3.54398 13.192 10.5
      vertex 3.66399 12.9825 9.51
      vertex 3.66399 12.9825 10.5
    endloop
  endfacet
  facet normal -0.739386 -0.673281 0
    outer loop
      vertex 3.83199 12.798 9.51
      vertex 3.66399 12.9825 10.5
      vertex 3.66399 12.9825 9.51
    endloop
  endfacet
  facet normal -0.739386 -0.673281 0
    outer loop
      vertex 3.66399 12.9825 10.5
      vertex 3.83199 12.798 9.51
      vertex 3.83199 12.798 10.5
    endloop
  endfacet
  facet normal -0.591819 -0.806071 0
    outer loop
      vertex 3.83199 12.798 9.51
      vertex 4.037 12.6475 10.5
      vertex 3.83199 12.798 10.5
    endloop
  endfacet
  facet normal -0.591819 -0.806071 -0
    outer loop
      vertex 4.037 12.6475 10.5
      vertex 3.83199 12.798 9.51
      vertex 4.037 12.6475 9.51
    endloop
  endfacet
  facet normal -0.421908 -0.906639 0
    outer loop
      vertex 4.037 12.6475 9.51
      vertex 4.268 12.54 10.5
      vertex 4.037 12.6475 10.5
    endloop
  endfacet
  facet normal -0.421908 -0.906639 -0
    outer loop
      vertex 4.268 12.54 10.5
      vertex 4.037 12.6475 9.51
      vertex 4.268 12.54 9.51
    endloop
  endfacet
  facet normal -0.24343 -0.969919 0
    outer loop
      vertex 4.268 12.54 9.51
      vertex 4.52499 12.4755 10.5
      vertex 4.268 12.54 10.5
    endloop
  endfacet
  facet normal -0.24343 -0.969919 -0
    outer loop
      vertex 4.52499 12.4755 10.5
      vertex 4.268 12.54 9.51
      vertex 4.52499 12.4755 9.51
    endloop
  endfacet
  facet normal -0.0757509 -0.997127 0
    outer loop
      vertex 4.52499 12.4755 9.51
      vertex 4.80799 12.454 10.5
      vertex 4.52499 12.4755 10.5
    endloop
  endfacet
  facet normal -0.0757509 -0.997127 -0
    outer loop
      vertex 4.80799 12.454 10.5
      vertex 4.52499 12.4755 9.51
      vertex 4.80799 12.454 9.51
    endloop
  endfacet
  facet normal 0.0740595 -0.997254 0
    outer loop
      vertex 4.80799 12.454 9.51
      vertex 5.0975 12.4755 10.5
      vertex 4.80799 12.454 10.5
    endloop
  endfacet
  facet normal 0.0740595 -0.997254 0
    outer loop
      vertex 5.0975 12.4755 10.5
      vertex 4.80799 12.454 9.51
      vertex 5.0975 12.4755 9.51
    endloop
  endfacet
  facet normal 0.678208 -0.73487 0
    outer loop
      vertex 9.65762 8.70998 9.51
      vertex 9.84562 8.88349 10.5
      vertex 9.65762 8.70998 10.5
    endloop
  endfacet
  facet normal 0.678208 -0.73487 0
    outer loop
      vertex 9.84562 8.88349 10.5
      vertex 9.65762 8.70998 9.51
      vertex 9.84562 8.88349 9.51
    endloop
  endfacet
  facet normal 0.646423 -0.762979 0
    outer loop
      vertex 9.84562 8.88349 9.51
      vertex 10.0256 9.03599 10.5
      vertex 9.84562 8.88349 10.5
    endloop
  endfacet
  facet normal 0.646423 -0.762979 0
    outer loop
      vertex 10.0256 9.03599 10.5
      vertex 9.84562 8.88349 9.51
      vertex 10.0256 9.03599 9.51
    endloop
  endfacet
  facet normal 0.607372 -0.794418 0
    outer loop
      vertex 10.0256 9.03599 9.51
      vertex 10.1976 9.16749 10.5
      vertex 10.0256 9.03599 10.5
    endloop
  endfacet
  facet normal 0.607372 -0.794418 0
    outer loop
      vertex 10.1976 9.16749 10.5
      vertex 10.0256 9.03599 9.51
      vertex 10.1976 9.16749 9.51
    endloop
  endfacet
  facet normal 0.558789 -0.82931 0
    outer loop
      vertex 10.1976 9.16749 9.51
      vertex 10.3616 9.27799 10.5
      vertex 10.1976 9.16749 10.5
    endloop
  endfacet
  facet normal 0.558789 -0.82931 0
    outer loop
      vertex 10.3616 9.27799 10.5
      vertex 10.1976 9.16749 9.51
      vertex 10.3616 9.27799 9.51
    endloop
  endfacet
  facet normal 0.461911 -0.886926 0
    outer loop
      vertex 10.3616 9.27799 9.51
      vertex 10.5296 9.36549 10.5
      vertex 10.3616 9.27799 10.5
    endloop
  endfacet
  facet normal 0.461911 -0.886926 0
    outer loop
      vertex 10.5296 9.36549 10.5
      vertex 10.3616 9.27799 9.51
      vertex 10.5296 9.36549 9.51
    endloop
  endfacet
  facet normal 0.321617 -0.94687 0
    outer loop
      vertex 10.5296 9.36549 9.51
      vertex 10.7136 9.42799 10.5
      vertex 10.5296 9.36549 10.5
    endloop
  endfacet
  facet normal 0.321617 -0.94687 0
    outer loop
      vertex 10.7136 9.42799 10.5
      vertex 10.5296 9.36549 9.51
      vertex 10.7136 9.42799 9.51
    endloop
  endfacet
  facet normal 0.18432 -0.982866 0
    outer loop
      vertex 10.7136 9.42799 9.51
      vertex 10.9136 9.46549 10.5
      vertex 10.7136 9.42799 10.5
    endloop
  endfacet
  facet normal 0.18432 -0.982866 0
    outer loop
      vertex 10.9136 9.46549 10.5
      vertex 10.7136 9.42799 9.51
      vertex 10.9136 9.46549 9.51
    endloop
  endfacet
  facet normal 0.0577587 -0.998331 0
    outer loop
      vertex 10.9136 9.46549 9.51
      vertex 11.1296 9.47799 10.5
      vertex 10.9136 9.46549 10.5
    endloop
  endfacet
  facet normal 0.0577587 -0.998331 0
    outer loop
      vertex 11.1296 9.47799 10.5
      vertex 10.9136 9.46549 9.51
      vertex 11.1296 9.47799 9.51
    endloop
  endfacet
  facet normal -0.0835837 -0.996501 0
    outer loop
      vertex 11.1296 9.47799 9.51
      vertex 11.3681 9.45799 10.5
      vertex 11.1296 9.47799 10.5
    endloop
  endfacet
  facet normal -0.0835837 -0.996501 -0
    outer loop
      vertex 11.3681 9.45799 10.5
      vertex 11.1296 9.47799 9.51
      vertex 11.3681 9.45799 9.51
    endloop
  endfacet
  facet normal -0.282785 -0.959183 0
    outer loop
      vertex 11.3681 9.45799 9.51
      vertex 11.5716 9.39799 10.5
      vertex 11.3681 9.45799 10.5
    endloop
  endfacet
  facet normal -0.282785 -0.959183 -0
    outer loop
      vertex 11.5716 9.39799 10.5
      vertex 11.3681 9.45799 9.51
      vertex 11.5716 9.39799 9.51
    endloop
  endfacet
  facet normal -0.510321 -0.859984 0
    outer loop
      vertex 11.5716 9.39799 9.51
      vertex 11.7401 9.298 10.5
      vertex 11.5716 9.39799 10.5
    endloop
  endfacet
  facet normal -0.510321 -0.859984 -0
    outer loop
      vertex 11.7401 9.298 10.5
      vertex 11.5716 9.39799 9.51
      vertex 11.7401 9.298 9.51
    endloop
  endfacet
  facet normal -0.723708 -0.690106 0
    outer loop
      vertex 11.8736 9.158 9.51
      vertex 11.7401 9.298 10.5
      vertex 11.7401 9.298 9.51
    endloop
  endfacet
  facet normal -0.723708 -0.690106 0
    outer loop
      vertex 11.7401 9.298 10.5
      vertex 11.8736 9.158 9.51
      vertex 11.8736 9.158 10.5
    endloop
  endfacet
  facet normal -0.886052 -0.463585 0
    outer loop
      vertex 11.9751 8.964 9.51
      vertex 11.8736 9.158 10.5
      vertex 11.8736 9.158 9.51
    endloop
  endfacet
  facet normal -0.886052 -0.463585 0
    outer loop
      vertex 11.8736 9.158 10.5
      vertex 11.9751 8.964 9.51
      vertex 11.9751 8.964 10.5
    endloop
  endfacet
  facet normal -0.963788 -0.266668 0
    outer loop
      vertex 12.0476 8.70199 9.51
      vertex 11.9751 8.964 10.5
      vertex 11.9751 8.964 9.51
    endloop
  endfacet
  facet normal -0.963788 -0.266668 0
    outer loop
      vertex 11.9751 8.964 10.5
      vertex 12.0476 8.70199 9.51
      vertex 12.0476 8.70199 10.5
    endloop
  endfacet
  facet normal -0.991423 -0.130695 0
    outer loop
      vertex 12.0911 8.37199 9.51
      vertex 12.0476 8.70199 10.5
      vertex 12.0476 8.70199 9.51
    endloop
  endfacet
  facet normal -0.991423 -0.130695 0
    outer loop
      vertex 12.0476 8.70199 10.5
      vertex 12.0911 8.37199 9.51
      vertex 12.0911 8.37199 10.5
    endloop
  endfacet
  facet normal -0.999337 -0.0363981 0
    outer loop
      vertex 12.1056 7.97399 9.51
      vertex 12.0911 8.37199 10.5
      vertex 12.0911 8.37199 9.51
    endloop
  endfacet
  facet normal -0.999337 -0.0363981 0
    outer loop
      vertex 12.0911 8.37199 10.5
      vertex 12.1056 7.97399 9.51
      vertex 12.1056 7.97399 10.5
    endloop
  endfacet
  facet normal -1 0 0
    outer loop
      vertex 12.1056 3.35 9.51
      vertex 12.1056 7.97399 10.5
      vertex 12.1056 7.97399 9.51
    endloop
  endfacet
  facet normal -1 -0 0
    outer loop
      vertex 12.1056 7.97399 10.5
      vertex 12.1056 3.35 9.51
      vertex 12.1056 3.35 10.5
    endloop
  endfacet
  facet normal 0 -1 0
    outer loop
      vertex 12.1056 3.35 9.51
      vertex 14.4576 3.35 10.5
      vertex 12.1056 3.35 10.5
    endloop
  endfacet
  facet normal 0 -1 -0
    outer loop
      vertex 14.4576 3.35 10.5
      vertex 12.1056 3.35 9.51
      vertex 14.4576 3.35 9.51
    endloop
  endfacet
  facet normal 1 -0 0
    outer loop
      vertex 14.4576 3.35 10.5
      vertex 14.4576 8.27799 9.51
      vertex 14.4576 8.27799 10.5
    endloop
  endfacet
  facet normal 1 0 0
    outer loop
      vertex 14.4576 8.27799 9.51
      vertex 14.4576 3.35 10.5
      vertex 14.4576 3.35 9.51
    endloop
  endfacet
  facet normal 0.998685 0.0512674 0
    outer loop
      vertex 14.4576 8.27799 10.5
      vertex 14.4211 8.98899 9.51
      vertex 14.4211 8.98899 10.5
    endloop
  endfacet
  facet normal 0.998685 0.0512674 0
    outer loop
      vertex 14.4211 8.98899 9.51
      vertex 14.4576 8.27799 10.5
      vertex 14.4576 8.27799 9.51
    endloop
  endfacet
  facet normal 0.985184 0.171503 0
    outer loop
      vertex 14.4211 8.98899 10.5
      vertex 14.3116 9.61799 9.51
      vertex 14.3116 9.61799 10.5
    endloop
  endfacet
  facet normal 0.985184 0.171503 0
    outer loop
      vertex 14.3116 9.61799 9.51
      vertex 14.4211 8.98899 10.5
      vertex 14.4211 8.98899 9.51
    endloop
  endfacet
  facet normal 0.948591 0.316506 0
    outer loop
      vertex 14.3116 9.61799 10.5
      vertex 14.1291 10.165 9.51
      vertex 14.1291 10.165 10.5
    endloop
  endfacet
  facet normal 0.948591 0.316506 0
    outer loop
      vertex 14.1291 10.165 9.51
      vertex 14.3116 9.61799 10.5
      vertex 14.3116 9.61799 9.51
    endloop
  endfacet
  facet normal 0.876425 0.481538 0
    outer loop
      vertex 14.1291 10.165 10.5
      vertex 13.8736 10.63 9.51
      vertex 13.8736 10.63 10.5
    endloop
  endfacet
  facet normal 0.876425 0.481538 0
    outer loop
      vertex 13.8736 10.63 9.51
      vertex 14.1291 10.165 10.5
      vertex 14.1291 10.165 9.51
    endloop
  endfacet
  facet normal 0.740694 0.671843 0
    outer loop
      vertex 13.8736 10.63 10.5
      vertex 13.5371 11.001 9.51
      vertex 13.5371 11.001 10.5
    endloop
  endfacet
  facet normal 0.740694 0.671843 0
    outer loop
      vertex 13.5371 11.001 9.51
      vertex 13.8736 10.63 10.5
      vertex 13.8736 10.63 9.51
    endloop
  endfacet
  facet normal 0.528647 0.848842 -0
    outer loop
      vertex 13.5371 11.001 9.51
      vertex 13.1116 11.266 10.5
      vertex 13.5371 11.001 10.5
    endloop
  endfacet
  facet normal 0.528647 0.848842 0
    outer loop
      vertex 13.1116 11.266 10.5
      vertex 13.5371 11.001 9.51
      vertex 13.1116 11.266 9.51
    endloop
  endfacet
  facet normal 0.295282 0.95541 -0
    outer loop
      vertex 13.1116 11.266 9.51
      vertex 12.5971 11.425 10.5
      vertex 13.1116 11.266 10.5
    endloop
  endfacet
  facet normal 0.295282 0.95541 0
    outer loop
      vertex 12.5971 11.425 10.5
      vertex 13.1116 11.266 9.51
      vertex 12.5971 11.425 9.51
    endloop
  endfacet
  facet normal 0.0874741 0.996167 -0
    outer loop
      vertex 12.5971 11.425 9.51
      vertex 11.9936 11.478 10.5
      vertex 12.5971 11.425 10.5
    endloop
  endfacet
  facet normal 0.0874741 0.996167 0
    outer loop
      vertex 11.9936 11.478 10.5
      vertex 12.5971 11.425 9.51
      vertex 11.9936 11.478 9.51
    endloop
  endfacet
  facet normal -0.0568477 0.998383 0
    outer loop
      vertex 11.9936 11.478 9.51
      vertex 11.5986 11.4555 10.5
      vertex 11.9936 11.478 10.5
    endloop
  endfacet
  facet normal -0.0568477 0.998383 0
    outer loop
      vertex 11.5986 11.4555 10.5
      vertex 11.9936 11.478 9.51
      vertex 11.5986 11.4555 9.51
    endloop
  endfacet
  facet normal -0.179959 0.983674 0
    outer loop
      vertex 11.5986 11.4555 9.51
      vertex 11.2296 11.388 10.5
      vertex 11.5986 11.4555 10.5
    endloop
  endfacet
  facet normal -0.179959 0.983674 0
    outer loop
      vertex 11.2296 11.388 10.5
      vertex 11.5986 11.4555 9.51
      vertex 11.2296 11.388 9.51
    endloop
  endfacet
  facet normal -0.311659 0.950194 0
    outer loop
      vertex 11.2296 11.388 9.51
      vertex 10.8866 11.2755 10.5
      vertex 11.2296 11.388 10.5
    endloop
  endfacet
  facet normal -0.311659 0.950194 0
    outer loop
      vertex 10.8866 11.2755 10.5
      vertex 11.2296 11.388 9.51
      vertex 10.8866 11.2755 9.51
    endloop
  endfacet
  facet normal -0.444953 0.895554 0
    outer loop
      vertex 10.8866 11.2755 9.51
      vertex 10.5696 11.118 10.5
      vertex 10.8866 11.2755 10.5
    endloop
  endfacet
  facet normal -0.444953 0.895554 0
    outer loop
      vertex 10.5696 11.118 10.5
      vertex 10.8866 11.2755 9.51
      vertex 10.5696 11.118 9.51
    endloop
  endfacet
  facet normal -0.532544 0.846402 0
    outer loop
      vertex 10.5696 11.118 9.51
      vertex 10.2716 10.9305 10.5
      vertex 10.5696 11.118 10.5
    endloop
  endfacet
  facet normal -0.532544 0.846402 0
    outer loop
      vertex 10.2716 10.9305 10.5
      vertex 10.5696 11.118 9.51
      vertex 10.2716 10.9305 9.51
    endloop
  endfacet
  facet normal -0.577864 0.816133 0
    outer loop
      vertex 10.2716 10.9305 9.51
      vertex 9.98562 10.728 10.5
      vertex 10.2716 10.9305 10.5
    endloop
  endfacet
  facet normal -0.577864 0.816133 0
    outer loop
      vertex 9.98562 10.728 10.5
      vertex 10.2716 10.9305 9.51
      vertex 9.98562 10.728 9.51
    endloop
  endfacet
  facet normal -0.621722 0.783238 0
    outer loop
      vertex 9.98562 10.728 9.51
      vertex 9.71162 10.5105 10.5
      vertex 9.98562 10.728 10.5
    endloop
  endfacet
  facet normal -0.621722 0.783238 0
    outer loop
      vertex 9.71162 10.5105 10.5
      vertex 9.98562 10.728 9.51
      vertex 9.71162 10.5105 9.51
    endloop
  endfacet
  facet normal -0.66375 0.747955 0
    outer loop
      vertex 9.71162 10.5105 9.51
      vertex 9.44962 10.278 10.5
      vertex 9.71162 10.5105 10.5
    endloop
  endfacet
  facet normal -0.66375 0.747955 0
    outer loop
      vertex 9.44962 10.278 10.5
      vertex 9.71162 10.5105 9.51
      vertex 9.44962 10.278 9.51
    endloop
  endfacet
  facet normal 0 1 -0
    outer loop
      vertex 9.44962 10.278 9.51
      vertex 9.38561 10.278 10.5
      vertex 9.44962 10.278 10.5
    endloop
  endfacet
  facet normal 0 1 0
    outer loop
      vertex 9.38561 10.278 10.5
      vertex 9.44962 10.278 9.51
      vertex 9.38561 10.278 9.51
    endloop
  endfacet
  facet normal 0.987635 0.156772 0
    outer loop
      vertex 9.38561 10.278 10.5
      vertex 9.22561 11.286 9.51
      vertex 9.22561 11.286 10.5
    endloop
  endfacet
  facet normal 0.987635 0.156772 0
    outer loop
      vertex 9.22561 11.286 9.51
      vertex 9.38561 10.278 10.5
      vertex 9.38561 10.278 9.51
    endloop
  endfacet
  facet normal 0 1 -0
    outer loop
      vertex 9.22561 11.286 9.51
      vertex 7.30561 11.286 10.5
      vertex 9.22561 11.286 10.5
    endloop
  endfacet
  facet normal 0 1 0
    outer loop
      vertex 7.30561 11.286 10.5
      vertex 9.22561 11.286 9.51
      vertex 7.30561 11.286 9.51
    endloop
  endfacet
  facet normal -1 0 0
    outer loop
      vertex 7.30561 3.35 9.51
      vertex 7.30561 11.286 10.5
      vertex 7.30561 11.286 9.51
    endloop
  endfacet
  facet normal -1 -0 0
    outer loop
      vertex 7.30561 11.286 10.5
      vertex 7.30561 3.35 9.51
      vertex 7.30561 3.35 10.5
    endloop
  endfacet
  facet normal 0 -1 0
    outer loop
      vertex 7.30561 3.35 9.51
      vertex 9.65762 3.35 10.5
      vertex 7.30561 3.35 10.5
    endloop
  endfacet
  facet normal 0 -1 -0
    outer loop
      vertex 9.65762 3.35 10.5
      vertex 7.30561 3.35 9.51
      vertex 9.65762 3.35 9.51
    endloop
  endfacet
  facet normal 1 -0 0
    outer loop
      vertex 9.65762 3.35 10.5
      vertex 9.65762 8.70998 9.51
      vertex 9.65762 8.70998 10.5
    endloop
  endfacet
  facet normal 1 0 0
    outer loop
      vertex 9.65762 8.70998 9.51
      vertex 9.65762 3.35 10.5
      vertex 9.65762 3.35 9.51
    endloop
  endfacet
  facet normal 0 1 -0
    outer loop
      vertex 5.992 11.286 9.51
      vertex 3.63999 11.286 10.5
      vertex 5.992 11.286 10.5
    endloop
  endfacet
  facet normal 0 1 0
    outer loop
      vertex 3.63999 11.286 10.5
      vertex 5.992 11.286 9.51
      vertex 3.63999 11.286 9.51
    endloop
  endfacet
  facet normal -1 0 0
    outer loop
      vertex 3.63999 3.35 9.51
      vertex 3.63999 11.286 10.5
      vertex 3.63999 11.286 9.51
    endloop
  endfacet
  facet normal -1 -0 0
    outer loop
      vertex 3.63999 11.286 10.5
      vertex 3.63999 3.35 9.51
      vertex 3.63999 3.35 10.5
    endloop
  endfacet
  facet normal 0 -1 0
    outer loop
      vertex 3.63999 3.35 9.51
      vertex 5.992 3.35 10.5
      vertex 3.63999 3.35 10.5
    endloop
  endfacet
  facet normal 0 -1 -0
    outer loop
      vertex 5.992 3.35 10.5
      vertex 3.63999 3.35 9.51
      vertex 5.992 3.35 9.51
    endloop
  endfacet
  facet normal 1 -0 0
    outer loop
      vertex 5.992 3.35 10.5
      vertex 5.992 11.286 9.51
      vertex 5.992 11.286 10.5
    endloop
  endfacet
  facet normal 1 0 0
    outer loop
      vertex 5.992 11.286 9.51
      vertex 5.992 3.35 10.5
      vertex 5.992 3.35 9.51
    endloop
  endfacet
endsolid OpenSCAD_Model
