solid OpenSCAD_Model
  facet normal 0.994522 0 -0.104529
    outer loop
      vertex 3 2 39.5
      vertex 2.67221 18.5 36.3813
      vertex 3 18.5 39.5
    endloop
  endfacet
  facet normal 0.994522 0 -0.104529
    outer loop
      vertex 2.67221 18.5 36.3813
      vertex 3 2 39.5
      vertex 2.67221 2 36.3813
    endloop
  endfacet
  facet normal 0 1 -0
    outer loop
      vertex 34.8 2 44.6875
      vertex 28.9 2 89
      vertex 34.8 2 89
    endloop
  endfacet
  facet normal 0 1 -0
    outer loop
      vertex 34.1278 2 42.6187
      vertex 28.9 2 89
      vertex 34.8 2 44.6875
    endloop
  endfacet
  facet normal 0 1 -0
    outer loop
      vertex 33.8 2 39.5
      vertex 28.9 2 89
      vertex 34.1278 2 42.6187
    endloop
  endfacet
  facet normal 0 1 0
    outer loop
      vertex 28.9 2 2
      vertex 34.8 2 34.3125
      vertex 34.8 2 2
    endloop
  endfacet
  facet normal 0 1 0
    outer loop
      vertex 34.8 2 34.3125
      vertex 28.9 2 2
      vertex 34.1278 2 36.3813
    endloop
  endfacet
  facet normal 0 1 0
    outer loop
      vertex 34.1278 2 36.3813
      vertex 28.9 2 2
      vertex 33.8 2 39.5
    endloop
  endfacet
  facet normal 0 1 0
    outer loop
      vertex 33.8 2 39.5
      vertex 28.9 2 2
      vertex 28.9 2 89
    endloop
  endfacet
  facet normal 0 1 0
    outer loop
      vertex 7.9 2 89
      vertex 2 2 44.6875
      vertex 2 2 89
    endloop
  endfacet
  facet normal 0 1 0
    outer loop
      vertex 7.9 2 89
      vertex 2.67221 2 42.6187
      vertex 2 2 44.6875
    endloop
  endfacet
  facet normal 0 1 0
    outer loop
      vertex 7.9 2 89
      vertex 3 2 39.5
      vertex 2.67221 2 42.6187
    endloop
  endfacet
  facet normal 0 1 -0
    outer loop
      vertex 7.9 2 2
      vertex 3 2 39.5
      vertex 7.9 2 89
    endloop
  endfacet
  facet normal 0 1 0
    outer loop
      vertex 7.9 2 2
      vertex 2.67221 2 36.3813
      vertex 3 2 39.5
    endloop
  endfacet
  facet normal 0 1 0
    outer loop
      vertex 7.9 2 2
      vertex 2 2 34.3125
      vertex 2.67221 2 36.3813
    endloop
  endfacet
  facet normal 0 1 0
    outer loop
      vertex 2 2 34.3125
      vertex 7.9 2 2
      vertex 2 2 2
    endloop
  endfacet
  facet normal 0.951057 0 -0.309017
    outer loop
      vertex 2.67221 2 36.3813
      vertex 2 18.5 34.3125
      vertex 2.67221 18.5 36.3813
    endloop
  endfacet
  facet normal 0.951057 0 -0.309017
    outer loop
      vertex 2 18.5 34.3125
      vertex 2.67221 2 36.3813
      vertex 2 2 34.3125
    endloop
  endfacet
  facet normal 0 -1 0
    outer loop
      vertex 2 18.5 44.6875
      vertex 34.8 18.5 89
      vertex 2 18.5 89
    endloop
  endfacet
  facet normal 0 -1 0
    outer loop
      vertex 2 18.5 44.6875
      vertex 34.8 18.5 44.6875
      vertex 34.8 18.5 89
    endloop
  endfacet
  facet normal 0 -1 0
    outer loop
      vertex 2.67221 18.5 42.6187
      vertex 34.8 18.5 44.6875
      vertex 2 18.5 44.6875
    endloop
  endfacet
  facet normal 0 -1 0
    outer loop
      vertex 2.67221 18.5 42.6187
      vertex 34.1278 18.5 42.6187
      vertex 34.8 18.5 44.6875
    endloop
  endfacet
  facet normal 0 -1 0
    outer loop
      vertex 3 18.5 39.5
      vertex 34.1278 18.5 42.6187
      vertex 2.67221 18.5 42.6187
    endloop
  endfacet
  facet normal 0 -1 0
    outer loop
      vertex 3 18.5 39.5
      vertex 33.8 18.5 39.5
      vertex 34.1278 18.5 42.6187
    endloop
  endfacet
  facet normal 0 -1 0
    outer loop
      vertex 2.67221 18.5 36.3813
      vertex 33.8 18.5 39.5
      vertex 3 18.5 39.5
    endloop
  endfacet
  facet normal 0 -1 0
    outer loop
      vertex 2.67221 18.5 36.3813
      vertex 34.1278 18.5 36.3813
      vertex 33.8 18.5 39.5
    endloop
  endfacet
  facet normal 0 -1 0
    outer loop
      vertex 2.67221 18.5 36.3813
      vertex 34.8 18.5 34.3125
      vertex 34.1278 18.5 36.3813
    endloop
  endfacet
  facet normal 0 -1 0
    outer loop
      vertex 2 18.5 34.3125
      vertex 34.8 18.5 34.3125
      vertex 2.67221 18.5 36.3813
    endloop
  endfacet
  facet normal 0 -1 0
    outer loop
      vertex 2 18.5 2
      vertex 34.8 18.5 34.3125
      vertex 2 18.5 34.3125
    endloop
  endfacet
  facet normal 0 -1 -0
    outer loop
      vertex 34.8 18.5 34.3125
      vertex 2 18.5 2
      vertex 34.8 18.5 2
    endloop
  endfacet
  facet normal 0.994522 -0 0.104529
    outer loop
      vertex 2.67221 2 42.6187
      vertex 3 18.5 39.5
      vertex 2.67221 18.5 42.6187
    endloop
  endfacet
  facet normal 0.994522 0 0.104529
    outer loop
      vertex 3 18.5 39.5
      vertex 2.67221 2 42.6187
      vertex 3 2 39.5
    endloop
  endfacet
  facet normal 0.951057 -0 0.309017
    outer loop
      vertex 2 2 44.6875
      vertex 2.67221 18.5 42.6187
      vertex 2 18.5 44.6875
    endloop
  endfacet
  facet normal 0.951057 0 0.309017
    outer loop
      vertex 2.67221 18.5 42.6187
      vertex 2 2 44.6875
      vertex 2.67221 2 42.6187
    endloop
  endfacet
  facet normal -0.951056 0 -0.309018
    outer loop
      vertex 34.8 2 34.3125
      vertex 34.1278 18.5 36.3813
      vertex 34.8 18.5 34.3125
    endloop
  endfacet
  facet normal -0.951056 -0 -0.309018
    outer loop
      vertex 34.1278 18.5 36.3813
      vertex 34.8 2 34.3125
      vertex 34.1278 2 36.3813
    endloop
  endfacet
  facet normal -0.994522 0 -0.104528
    outer loop
      vertex 34.1278 2 36.3813
      vertex 33.8 18.5 39.5
      vertex 34.1278 18.5 36.3813
    endloop
  endfacet
  facet normal -0.994522 -0 -0.104528
    outer loop
      vertex 33.8 18.5 39.5
      vertex 34.1278 2 36.3813
      vertex 33.8 2 39.5
    endloop
  endfacet
  facet normal -0.994522 0 0.104528
    outer loop
      vertex 33.8 2 39.5
      vertex 34.1278 18.5 42.6187
      vertex 33.8 18.5 39.5
    endloop
  endfacet
  facet normal -0.994522 0 0.104528
    outer loop
      vertex 34.1278 18.5 42.6187
      vertex 33.8 2 39.5
      vertex 34.1278 2 42.6187
    endloop
  endfacet
  facet normal -0.951056 0 0.309018
    outer loop
      vertex 34.1278 2 42.6187
      vertex 34.8 18.5 44.6875
      vertex 34.1278 18.5 42.6187
    endloop
  endfacet
  facet normal -0.951056 0 0.309018
    outer loop
      vertex 34.8 18.5 44.6875
      vertex 34.1278 2 42.6187
      vertex 34.8 2 44.6875
    endloop
  endfacet
  facet normal -1 0 0
    outer loop
      vertex 0 0 0
      vertex 0 20.5 89
      vertex 0 20.5 0
    endloop
  endfacet
  facet normal -1 -0 0
    outer loop
      vertex 0 20.5 89
      vertex 0 0 0
      vertex 0 0 89
    endloop
  endfacet
  facet normal 0 0 1
    outer loop
      vertex 36.8 20.5 89
      vertex 34.8 18.5 89
      vertex 36.8 0 89
    endloop
  endfacet
  facet normal 0 0 1
    outer loop
      vertex 36.8 20.5 89
      vertex 2 18.5 89
      vertex 34.8 18.5 89
    endloop
  endfacet
  facet normal 0 0 1
    outer loop
      vertex 2 18.5 89
      vertex 0 20.5 89
      vertex 2 2 89
    endloop
  endfacet
  facet normal -0 0 1
    outer loop
      vertex 0 20.5 89
      vertex 2 18.5 89
      vertex 36.8 20.5 89
    endloop
  endfacet
  facet normal -0 0 1
    outer loop
      vertex 34.8 2 89
      vertex 36.8 0 89
      vertex 34.8 18.5 89
    endloop
  endfacet
  facet normal 0 0 1
    outer loop
      vertex 28.9 0 89
      vertex 34.8 2 89
      vertex 28.9 2 89
    endloop
  endfacet
  facet normal 0 0 1
    outer loop
      vertex 34.8 2 89
      vertex 28.9 0 89
      vertex 36.8 0 89
    endloop
  endfacet
  facet normal -0 0 1
    outer loop
      vertex 2 2 89
      vertex 7.9 0 89
      vertex 7.9 2 89
    endloop
  endfacet
  facet normal 0 0 1
    outer loop
      vertex 2 2 89
      vertex 0 0 89
      vertex 7.9 0 89
    endloop
  endfacet
  facet normal 0 0 1
    outer loop
      vertex 0 0 89
      vertex 2 2 89
      vertex 0 20.5 89
    endloop
  endfacet
  facet normal 1 -0 0
    outer loop
      vertex 36.8 0 89
      vertex 36.8 20.5 0
      vertex 36.8 20.5 89
    endloop
  endfacet
  facet normal 1 0 0
    outer loop
      vertex 36.8 20.5 0
      vertex 36.8 0 89
      vertex 36.8 0 0
    endloop
  endfacet
  facet normal 0 1 0
    outer loop
      vertex 36.8 20.5 89
      vertex 28.4 20.5 85.25
      vertex 0 20.5 89
    endloop
  endfacet
  facet normal 0 1 0
    outer loop
      vertex 36.8 20.5 89
      vertex 28.4 20.5 65.25
      vertex 28.4 20.5 85.25
    endloop
  endfacet
  facet normal 0 1 0
    outer loop
      vertex 28.4 20.5 65.25
      vertex 36.8 20.5 0
      vertex 8.4 20.5 65.25
    endloop
  endfacet
  facet normal 0 1 -0
    outer loop
      vertex 36.8 20.5 0
      vertex 28.4 20.5 65.25
      vertex 36.8 20.5 89
    endloop
  endfacet
  facet normal 0 1 -0
    outer loop
      vertex 8.4 20.5 85.25
      vertex 0 20.5 89
      vertex 28.4 20.5 85.25
    endloop
  endfacet
  facet normal 0 1 -0
    outer loop
      vertex 8.4 20.5 65.25
      vertex 0 20.5 89
      vertex 8.4 20.5 85.25
    endloop
  endfacet
  facet normal 0 1 0
    outer loop
      vertex 8.4 20.5 65.25
      vertex 0 20.5 0
      vertex 0 20.5 89
    endloop
  endfacet
  facet normal 0 1 0
    outer loop
      vertex 0 20.5 0
      vertex 8.4 20.5 65.25
      vertex 36.8 20.5 0
    endloop
  endfacet
  facet normal 0 0 -1
    outer loop
      vertex 7.9 0 0
      vertex 0 0 0
      vertex 7.9 14 0
    endloop
  endfacet
  facet normal 0 0 -1
    outer loop
      vertex 28.9 14 0
      vertex 36.8 0 0
      vertex 28.9 0 0
    endloop
  endfacet
  facet normal 0 0 -1
    outer loop
      vertex 36.8 0 0
      vertex 28.9 14 0
      vertex 36.8 20.5 0
    endloop
  endfacet
  facet normal 0 0 -1
    outer loop
      vertex 7.9 14 0
      vertex 36.8 20.5 0
      vertex 28.9 14 0
    endloop
  endfacet
  facet normal 0 0 -1
    outer loop
      vertex 7.9 14 0
      vertex 0 20.5 0
      vertex 36.8 20.5 0
    endloop
  endfacet
  facet normal 0 0 -1
    outer loop
      vertex 0 20.5 0
      vertex 7.9 14 0
      vertex 0 0 0
    endloop
  endfacet
  facet normal 0 -1 0
    outer loop
      vertex 0 0 0
      vertex 7.9 0 89
      vertex 0 0 89
    endloop
  endfacet
  facet normal 0 -1 -0
    outer loop
      vertex 7.9 0 89
      vertex 0 0 0
      vertex 7.9 0 0
    endloop
  endfacet
  facet normal 0 -1 0
    outer loop
      vertex 28.9 0 0
      vertex 36.8 0 89
      vertex 28.9 0 89
    endloop
  endfacet
  facet normal 0 -1 -0
    outer loop
      vertex 36.8 0 89
      vertex 28.9 0 0
      vertex 36.8 0 0
    endloop
  endfacet
  facet normal 1 -0 0
    outer loop
      vertex 2 2 89
      vertex 2 18.5 44.6875
      vertex 2 18.5 89
    endloop
  endfacet
  facet normal 1 0 0
    outer loop
      vertex 2 18.5 44.6875
      vertex 2 2 89
      vertex 2 2 44.6875
    endloop
  endfacet
  facet normal 1 -0 0
    outer loop
      vertex 2 2 34.3125
      vertex 2 18.5 2
      vertex 2 18.5 34.3125
    endloop
  endfacet
  facet normal 1 0 0
    outer loop
      vertex 2 18.5 2
      vertex 2 2 34.3125
      vertex 2 2 2
    endloop
  endfacet
  facet normal -1 0 0
    outer loop
      vertex 34.8 2 44.6875
      vertex 34.8 18.5 89
      vertex 34.8 18.5 44.6875
    endloop
  endfacet
  facet normal -1 -0 0
    outer loop
      vertex 34.8 18.5 89
      vertex 34.8 2 44.6875
      vertex 34.8 2 89
    endloop
  endfacet
  facet normal -1 0 0
    outer loop
      vertex 34.8 2 2
      vertex 34.8 18.5 34.3125
      vertex 34.8 18.5 2
    endloop
  endfacet
  facet normal -1 -0 0
    outer loop
      vertex 34.8 18.5 34.3125
      vertex 34.8 2 2
      vertex 34.8 2 34.3125
    endloop
  endfacet
  facet normal 0 0 1
    outer loop
      vertex 34.8 18.5 2
      vertex 28.9 14 2
      vertex 34.8 2 2
    endloop
  endfacet
  facet normal 0 0 1
    outer loop
      vertex 34.8 18.5 2
      vertex 7.9 14 2
      vertex 28.9 14 2
    endloop
  endfacet
  facet normal -0 0 1
    outer loop
      vertex 2 18.5 2
      vertex 7.9 14 2
      vertex 34.8 18.5 2
    endloop
  endfacet
  facet normal 0 0 1
    outer loop
      vertex 2 2 2
      vertex 7.9 14 2
      vertex 2 18.5 2
    endloop
  endfacet
  facet normal 0 0 1
    outer loop
      vertex 7.9 14 2
      vertex 2 2 2
      vertex 7.9 2 2
    endloop
  endfacet
  facet normal 0 0 1
    outer loop
      vertex 34.8 2 2
      vertex 28.9 14 2
      vertex 28.9 2 2
    endloop
  endfacet
  facet normal 1 0 0
    outer loop
      vertex 7.9 2 89
      vertex 7.9 0 89
      vertex 7.9 2 2
    endloop
  endfacet
  facet normal 1 -0 0
    outer loop
      vertex 7.9 2 2
      vertex 7.9 14 0
      vertex 7.9 14 2
    endloop
  endfacet
  facet normal 1 0 0
    outer loop
      vertex 7.9 2 2
      vertex 7.9 0 0
      vertex 7.9 14 0
    endloop
  endfacet
  facet normal 1 0 0
    outer loop
      vertex 7.9 0 0
      vertex 7.9 2 2
      vertex 7.9 0 89
    endloop
  endfacet
  facet normal -1 0 0
    outer loop
      vertex 28.9 14 0
      vertex 28.9 2 2
      vertex 28.9 14 2
    endloop
  endfacet
  facet normal -1 0 0
    outer loop
      vertex 28.9 0 0
      vertex 28.9 2 2
      vertex 28.9 14 0
    endloop
  endfacet
  facet normal -1 0 0
    outer loop
      vertex 28.9 0 89
      vertex 28.9 2 2
      vertex 28.9 0 0
    endloop
  endfacet
  facet normal -1 0 0
    outer loop
      vertex 28.9 2 2
      vertex 28.9 0 89
      vertex 28.9 2 89
    endloop
  endfacet
  facet normal 0 -1 0
    outer loop
      vertex 7.9 14 0
      vertex 28.9 14 2
      vertex 7.9 14 2
    endloop
  endfacet
  facet normal 0 -1 -0
    outer loop
      vertex 28.9 14 2
      vertex 7.9 14 0
      vertex 28.9 14 0
    endloop
  endfacet
  facet normal -1 0 0
    outer loop
      vertex 8.4 20.5 85.25
      vertex 8.4 29.5 74.25
      vertex 8.4 20.5 65.25
    endloop
  endfacet
  facet normal -1 0 0
    outer loop
      vertex 8.4 29.5 74.25
      vertex 8.4 20.5 85.25
      vertex 8.4 29.5 85.25
    endloop
  endfacet
  facet normal -0 0 1
    outer loop
      vertex 8.4 29.5 85.25
      vertex 28.4 20.5 85.25
      vertex 28.4 29.5 85.25
    endloop
  endfacet
  facet normal 0 0 1
    outer loop
      vertex 28.4 20.5 85.25
      vertex 8.4 29.5 85.25
      vertex 8.4 20.5 85.25
    endloop
  endfacet
  facet normal 1 -0 0
    outer loop
      vertex 28.4 20.5 85.25
      vertex 28.4 29.5 74.25
      vertex 28.4 29.5 85.25
    endloop
  endfacet
  facet normal 1 0 0
    outer loop
      vertex 28.4 29.5 74.25
      vertex 28.4 20.5 85.25
      vertex 28.4 20.5 65.25
    endloop
  endfacet
  facet normal 0 1 -0
    outer loop
      vertex 28.4 29.5 74.25
      vertex 8.4 29.5 85.25
      vertex 28.4 29.5 85.25
    endloop
  endfacet
  facet normal 0 1 0
    outer loop
      vertex 8.4 29.5 85.25
      vertex 28.4 29.5 74.25
      vertex 8.4 29.5 74.25
    endloop
  endfacet
  facet normal -0.809017 -0.587785 -0
    outer loop
      vertex 13.05 26.5 81.25
      vertex 12.6009 27.1182 71.8682
      vertex 13.05 26.5 71.25
    endloop
  endfacet
  facet normal -0.809017 -0.587785 0
    outer loop
      vertex 12.6009 27.1182 71.8682
      vertex 13.05 26.5 81.25
      vertex 12.6009 27.1182 81.25
    endloop
  endfacet
  facet normal 1 -0 0
    outer loop
      vertex 11.8741 26.1179 81.25
      vertex 11.8741 26.8821 71.6321
      vertex 11.8741 26.8821 81.25
    endloop
  endfacet
  facet normal 1 0 0
    outer loop
      vertex 11.8741 26.8821 71.6321
      vertex 11.8741 26.1179 81.25
      vertex 11.8741 26.1179 70.8679
    endloop
  endfacet
  facet normal 0.309016 -0.951057 0
    outer loop
      vertex 11.8741 26.8821 81.25
      vertex 12.6009 27.1182 71.8682
      vertex 12.6009 27.1182 81.25
    endloop
  endfacet
  facet normal 0.309016 -0.951057 0
    outer loop
      vertex 12.6009 27.1182 71.8682
      vertex 11.8741 26.8821 81.25
      vertex 11.8741 26.8821 71.6321
    endloop
  endfacet
  facet normal 0.309016 0.951057 0
    outer loop
      vertex 12.6009 25.8818 81.25
      vertex 11.8741 26.1179 70.8679
      vertex 11.8741 26.1179 81.25
    endloop
  endfacet
  facet normal 0.309016 0.951057 0
    outer loop
      vertex 11.8741 26.1179 70.8679
      vertex 12.6009 25.8818 81.25
      vertex 12.6009 25.8818 70.6318
    endloop
  endfacet
  facet normal 0 0 -1
    outer loop
      vertex 12.6009 25.8818 81.25
      vertex 12.6009 27.1182 81.25
      vertex 13.05 26.5 81.25
    endloop
  endfacet
  facet normal 0 0 -1
    outer loop
      vertex 11.8741 26.1179 81.25
      vertex 12.6009 27.1182 81.25
      vertex 12.6009 25.8818 81.25
    endloop
  endfacet
  facet normal 0 0 -1
    outer loop
      vertex 12.6009 27.1182 81.25
      vertex 11.8741 26.1179 81.25
      vertex 11.8741 26.8821 81.25
    endloop
  endfacet
  facet normal -0.809017 0.587785 0
    outer loop
      vertex 12.6009 25.8818 81.25
      vertex 13.05 26.5 71.25
      vertex 12.6009 25.8818 70.6318
    endloop
  endfacet
  facet normal -0.809017 0.587785 0
    outer loop
      vertex 13.05 26.5 71.25
      vertex 12.6009 25.8818 81.25
      vertex 13.05 26.5 81.25
    endloop
  endfacet
  facet normal -0.809017 -0.587785 -0
    outer loop
      vertex 25.05 26.5 81.25
      vertex 24.6009 27.1182 71.8682
      vertex 25.05 26.5 71.25
    endloop
  endfacet
  facet normal -0.809017 -0.587785 0
    outer loop
      vertex 24.6009 27.1182 71.8682
      vertex 25.05 26.5 81.25
      vertex 24.6009 27.1182 81.25
    endloop
  endfacet
  facet normal 1 -0 0
    outer loop
      vertex 23.8741 26.1179 81.25
      vertex 23.8741 26.8821 71.6321
      vertex 23.8741 26.8821 81.25
    endloop
  endfacet
  facet normal 1 0 0
    outer loop
      vertex 23.8741 26.8821 71.6321
      vertex 23.8741 26.1179 81.25
      vertex 23.8741 26.1179 70.8679
    endloop
  endfacet
  facet normal 0.309016 -0.951057 0
    outer loop
      vertex 23.8741 26.8821 81.25
      vertex 24.6009 27.1182 71.8682
      vertex 24.6009 27.1182 81.25
    endloop
  endfacet
  facet normal 0.309016 -0.951057 0
    outer loop
      vertex 24.6009 27.1182 71.8682
      vertex 23.8741 26.8821 81.25
      vertex 23.8741 26.8821 71.6321
    endloop
  endfacet
  facet normal 0 0 -1
    outer loop
      vertex 24.6009 25.8818 81.25
      vertex 24.6009 27.1182 81.25
      vertex 25.05 26.5 81.25
    endloop
  endfacet
  facet normal 0 0 -1
    outer loop
      vertex 23.8741 26.1179 81.25
      vertex 24.6009 27.1182 81.25
      vertex 24.6009 25.8818 81.25
    endloop
  endfacet
  facet normal 0 0 -1
    outer loop
      vertex 24.6009 27.1182 81.25
      vertex 23.8741 26.1179 81.25
      vertex 23.8741 26.8821 81.25
    endloop
  endfacet
  facet normal 0.309016 0.951057 0
    outer loop
      vertex 24.6009 25.8818 81.25
      vertex 23.8741 26.1179 70.8679
      vertex 23.8741 26.1179 81.25
    endloop
  endfacet
  facet normal 0.309016 0.951057 0
    outer loop
      vertex 23.8741 26.1179 70.8679
      vertex 24.6009 25.8818 81.25
      vertex 24.6009 25.8818 70.6318
    endloop
  endfacet
  facet normal -0.809017 0.587785 0
    outer loop
      vertex 24.6009 25.8818 81.25
      vertex 25.05 26.5 71.25
      vertex 24.6009 25.8818 70.6318
    endloop
  endfacet
  facet normal -0.809017 0.587785 0
    outer loop
      vertex 25.05 26.5 71.25
      vertex 24.6009 25.8818 81.25
      vertex 25.05 26.5 81.25
    endloop
  endfacet
  facet normal -2.10085e-07 0.707107 -0.707106
    outer loop
      vertex 28.4 29.5 74.25
      vertex 23.8741 26.8821 71.6321
      vertex 12.6009 27.1182 71.8682
    endloop
  endfacet
  facet normal -2.42971e-07 0.707107 -0.707107
    outer loop
      vertex 23.8741 26.8821 71.6321
      vertex 13.05 26.5 71.25
      vertex 12.6009 27.1182 71.8682
    endloop
  endfacet
  facet normal -2.49202e-07 0.707107 -0.707107
    outer loop
      vertex 23.8741 26.1179 70.8679
      vertex 13.05 26.5 71.25
      vertex 23.8741 26.8821 71.6321
    endloop
  endfacet
  facet normal 4.81646e-06 0.707108 -0.707105
    outer loop
      vertex 28.4 20.5 65.25
      vertex 23.8741 26.1179 70.8679
      vertex 24.6009 25.8818 70.6318
    endloop
  endfacet
  facet normal -2.42971e-07 0.707107 -0.707107
    outer loop
      vertex 23.8741 26.1179 70.8679
      vertex 12.6009 25.8818 70.6318
      vertex 13.05 26.5 71.25
    endloop
  endfacet
  facet normal 7.705e-06 0.707101 -0.707113
    outer loop
      vertex 23.8741 26.8821 71.6321
      vertex 28.4 29.5 74.25
      vertex 24.6009 27.1182 71.8682
    endloop
  endfacet
  facet normal 0 0.707107 -0.707107
    outer loop
      vertex 28.4 29.5 74.25
      vertex 25.05 26.5 71.25
      vertex 24.6009 27.1182 71.8682
    endloop
  endfacet
  facet normal 0 0.707107 -0.707107
    outer loop
      vertex 28.4 20.5 65.25
      vertex 25.05 26.5 71.25
      vertex 28.4 29.5 74.25
    endloop
  endfacet
  facet normal -2.25413e-07 0.707106 -0.707107
    outer loop
      vertex 23.8741 26.1179 70.8679
      vertex 28.4 20.5 65.25
      vertex 12.6009 25.8818 70.6318
    endloop
  endfacet
  facet normal 0 0.707107 -0.707107
    outer loop
      vertex 25.05 26.5 71.25
      vertex 28.4 20.5 65.25
      vertex 24.6009 25.8818 70.6318
    endloop
  endfacet
  facet normal 0 0.707107 -0.707107
    outer loop
      vertex 28.4 29.5 74.25
      vertex 12.6009 27.1182 71.8682
      vertex 8.4 29.5 74.25
    endloop
  endfacet
  facet normal 2.35954e-06 0.707109 -0.707105
    outer loop
      vertex 11.8741 26.8821 71.6321
      vertex 8.4 29.5 74.25
      vertex 12.6009 27.1182 71.8682
    endloop
  endfacet
  facet normal -7.76422e-07 0.707107 -0.707107
    outer loop
      vertex 11.8741 26.1179 70.8679
      vertex 8.4 29.5 74.25
      vertex 11.8741 26.8821 71.6321
    endloop
  endfacet
  facet normal 0 0.707107 -0.707107
    outer loop
      vertex 8.4 20.5 65.25
      vertex 12.6009 25.8818 70.6318
      vertex 28.4 20.5 65.25
    endloop
  endfacet
  facet normal -7.76422e-07 0.707107 -0.707107
    outer loop
      vertex 11.8741 26.1179 70.8679
      vertex 8.4 20.5 65.25
      vertex 8.4 29.5 74.25
    endloop
  endfacet
  facet normal 2.96081e-06 0.707106 -0.707108
    outer loop
      vertex 12.6009 25.8818 70.6318
      vertex 8.4 20.5 65.25
      vertex 11.8741 26.1179 70.8679
    endloop
  endfacet
endsolid OpenSCAD_Model
