solid OpenSCAD_Model
  facet normal 0 0 -1
    outer loop
      vertex 6.825 36.5711 0
      vertex 9.95565 35.3766 0
      vertex 7.43769 32.5801 0
    endloop
  endfacet
  facet normal 0 0 -1
    outer loop
      vertex 9.95565 35.3766 0
      vertex 6.825 36.5711 0
      vertex 7.65 38 0
    endloop
  endfacet
  facet normal 0 0 -1
    outer loop
      vertex 5.175 36.5711 0
      vertex 7.43769 32.5801 0
      vertex 5.55618 29.3213 0
    endloop
  endfacet
  facet normal 0 0 -1
    outer loop
      vertex 7.43769 32.5801 0
      vertex 5.175 36.5711 0
      vertex 6.825 36.5711 0
    endloop
  endfacet
  facet normal 0 0 -1
    outer loop
      vertex 4.35 38 0
      vertex 5.55618 29.3213 0
      vertex 4.39334 25.7424 0
    endloop
  endfacet
  facet normal 0 0 -1
    outer loop
      vertex 5.55618 29.3213 0
      vertex 4.35 38 0
      vertex 5.175 36.5711 0
    endloop
  endfacet
  facet normal 0 0 -1
    outer loop
      vertex 0 44 0
      vertex 4.39334 25.7424 0
      vertex 4 22 0
    endloop
  endfacet
  facet normal 0 0 -1
    outer loop
      vertex 6.825 7.42894 0
      vertex 9.95565 8.62339 0
      vertex 7.65 6 0
    endloop
  endfacet
  facet normal -0 0 -1
    outer loop
      vertex 9.95565 8.62339 0
      vertex 6.825 7.42894 0
      vertex 7.43769 11.4199 0
    endloop
  endfacet
  facet normal 0 0 -1
    outer loop
      vertex 5.175 7.42894 0
      vertex 7.43769 11.4199 0
      vertex 6.825 7.42894 0
    endloop
  endfacet
  facet normal -0 0 -1
    outer loop
      vertex 7.43769 11.4199 0
      vertex 5.175 7.42894 0
      vertex 5.55618 14.6787 0
    endloop
  endfacet
  facet normal 0 0 -1
    outer loop
      vertex 4.35 6 0
      vertex 5.55618 14.6787 0
      vertex 5.175 7.42894 0
    endloop
  endfacet
  facet normal -0 0 -1
    outer loop
      vertex 5.55618 14.6787 0
      vertex 4.35 6 0
      vertex 4.39334 18.2576 0
    endloop
  endfacet
  facet normal 0 0 -1
    outer loop
      vertex 0 0 0
      vertex 4.39334 18.2576 0
      vertex 4.35 6 0
    endloop
  endfacet
  facet normal 0 0 -1
    outer loop
      vertex 44 44 0
      vertex 39.6067 25.7424 0
      vertex 39.65 38 0
    endloop
  endfacet
  facet normal 0 0 -1
    outer loop
      vertex 38.4438 29.3213 0
      vertex 39.65 38 0
      vertex 39.6067 25.7424 0
    endloop
  endfacet
  facet normal 0 0 -1
    outer loop
      vertex 39.65 38 0
      vertex 38.4438 29.3213 0
      vertex 38.825 36.5711 0
    endloop
  endfacet
  facet normal 0 0 -1
    outer loop
      vertex 36.5623 32.5801 0
      vertex 38.825 36.5711 0
      vertex 38.4438 29.3213 0
    endloop
  endfacet
  facet normal -0 0 -1
    outer loop
      vertex 38.825 36.5711 0
      vertex 36.5623 32.5801 0
      vertex 37.175 36.5711 0
    endloop
  endfacet
  facet normal 0 0 -1
    outer loop
      vertex 34.0443 35.3766 0
      vertex 37.175 36.5711 0
      vertex 36.5623 32.5801 0
    endloop
  endfacet
  facet normal -0 0 -1
    outer loop
      vertex 37.175 36.5711 0
      vertex 34.0443 35.3766 0
      vertex 36.35 38 0
    endloop
  endfacet
  facet normal 0 0 -1
    outer loop
      vertex 44 0 0
      vertex 40 22 0
      vertex 44 44 0
    endloop
  endfacet
  facet normal 0 0 -1
    outer loop
      vertex 39.6067 18.2576 0
      vertex 44 0 0
      vertex 39.65 6 0
    endloop
  endfacet
  facet normal 0 0 -1
    outer loop
      vertex 44 0 0
      vertex 38.825 4.57106 0
      vertex 39.65 6 0
    endloop
  endfacet
  facet normal 0 0 -1
    outer loop
      vertex 44 0 0
      vertex 37.175 4.57106 0
      vertex 38.825 4.57106 0
    endloop
  endfacet
  facet normal 0 0 -1
    outer loop
      vertex 31 6.41154 0
      vertex 36.35 6 0
      vertex 37.175 4.57106 0
    endloop
  endfacet
  facet normal 0 0 -1
    outer loop
      vertex 36.35 6 0
      vertex 31 6.41154 0
      vertex 34.0443 8.62339 0
    endloop
  endfacet
  facet normal 0 0 -1
    outer loop
      vertex 27.5623 4.88098 0
      vertex 37.175 4.57106 0
      vertex 44 0 0
    endloop
  endfacet
  facet normal 0 0 -1
    outer loop
      vertex 37.175 4.57106 0
      vertex 27.5623 4.88098 0
      vertex 31 6.41154 0
    endloop
  endfacet
  facet normal 0 0 -1
    outer loop
      vertex 44 0 0
      vertex 23.8815 4.09861 0
      vertex 27.5623 4.88098 0
    endloop
  endfacet
  facet normal 0 0 -1
    outer loop
      vertex 44 0 0
      vertex 20.1185 4.09861 0
      vertex 23.8815 4.09861 0
    endloop
  endfacet
  facet normal -0 0 -1
    outer loop
      vertex 13 6.41154 0
      vertex 7.65 6 0
      vertex 9.95565 8.62339 0
    endloop
  endfacet
  facet normal 0 0 -1
    outer loop
      vertex 6.825 4.57106 0
      vertex 13 6.41154 0
      vertex 16.4377 4.88098 0
    endloop
  endfacet
  facet normal 0 0 -1
    outer loop
      vertex 0 0 0
      vertex 16.4377 4.88098 0
      vertex 20.1185 4.09861 0
    endloop
  endfacet
  facet normal 0 0 -1
    outer loop
      vertex 0 0 0
      vertex 20.1185 4.09861 0
      vertex 44 0 0
    endloop
  endfacet
  facet normal 0 0 -1
    outer loop
      vertex 13 6.41154 0
      vertex 6.825 4.57106 0
      vertex 7.65 6 0
    endloop
  endfacet
  facet normal 0 0 -1
    outer loop
      vertex 16.4377 4.88098 0
      vertex 0 0 0
      vertex 6.825 4.57106 0
    endloop
  endfacet
  facet normal -0 0 -1
    outer loop
      vertex 4.39334 18.2576 0
      vertex 0 0 0
      vertex 4 22 0
    endloop
  endfacet
  facet normal -0 0 -1
    outer loop
      vertex 5.175 4.57106 0
      vertex 0 0 0
      vertex 4.35 6 0
    endloop
  endfacet
  facet normal -0 0 -1
    outer loop
      vertex 6.825 4.57106 0
      vertex 0 0 0
      vertex 5.175 4.57106 0
    endloop
  endfacet
  facet normal 0 0 -1
    outer loop
      vertex 39.6067 25.7424 0
      vertex 44 44 0
      vertex 40 22 0
    endloop
  endfacet
  facet normal 0 0 -1
    outer loop
      vertex 38.825 39.4289 0
      vertex 44 44 0
      vertex 39.65 38 0
    endloop
  endfacet
  facet normal 0 0 -1
    outer loop
      vertex 37.175 39.4289 0
      vertex 44 44 0
      vertex 38.825 39.4289 0
    endloop
  endfacet
  facet normal 0 0 -1
    outer loop
      vertex 31 37.5885 0
      vertex 36.35 38 0
      vertex 34.0443 35.3766 0
    endloop
  endfacet
  facet normal -0 0 -1
    outer loop
      vertex 36.35 38 0
      vertex 31 37.5885 0
      vertex 37.175 39.4289 0
    endloop
  endfacet
  facet normal 0 0 -1
    outer loop
      vertex 27.5623 39.119 0
      vertex 37.175 39.4289 0
      vertex 31 37.5885 0
    endloop
  endfacet
  facet normal -0 0 -1
    outer loop
      vertex 37.175 39.4289 0
      vertex 27.5623 39.119 0
      vertex 44 44 0
    endloop
  endfacet
  facet normal 0 0 -1
    outer loop
      vertex 23.8815 39.9014 0
      vertex 44 44 0
      vertex 27.5623 39.119 0
    endloop
  endfacet
  facet normal 0 0 -1
    outer loop
      vertex 20.1185 39.9014 0
      vertex 44 44 0
      vertex 23.8815 39.9014 0
    endloop
  endfacet
  facet normal 0 0 -1
    outer loop
      vertex 7.65 38 0
      vertex 13 37.5885 0
      vertex 9.95565 35.3766 0
    endloop
  endfacet
  facet normal 0 0 -1
    outer loop
      vertex 6.825 39.4289 0
      vertex 13 37.5885 0
      vertex 7.65 38 0
    endloop
  endfacet
  facet normal 0 0 -1
    outer loop
      vertex 13 37.5885 0
      vertex 6.825 39.4289 0
      vertex 16.4377 39.119 0
    endloop
  endfacet
  facet normal 0 0 -1
    outer loop
      vertex 0 44 0
      vertex 16.4377 39.119 0
      vertex 6.825 39.4289 0
    endloop
  endfacet
  facet normal 0 0 -1
    outer loop
      vertex 16.4377 39.119 0
      vertex 0 44 0
      vertex 20.1185 39.9014 0
    endloop
  endfacet
  facet normal 0 0 -1
    outer loop
      vertex 0 44 0
      vertex 6.825 39.4289 0
      vertex 5.175 39.4289 0
    endloop
  endfacet
  facet normal 0 0 -1
    outer loop
      vertex 0 44 0
      vertex 4 22 0
      vertex 0 0 0
    endloop
  endfacet
  facet normal 0 0 -1
    outer loop
      vertex 20.1185 39.9014 0
      vertex 0 44 0
      vertex 44 44 0
    endloop
  endfacet
  facet normal 0 0 -1
    outer loop
      vertex 4.35 38 0
      vertex 0 44 0
      vertex 5.175 39.4289 0
    endloop
  endfacet
  facet normal 0 0 -1
    outer loop
      vertex 4.39334 25.7424 0
      vertex 0 44 0
      vertex 4.35 38 0
    endloop
  endfacet
  facet normal 0 0 -1
    outer loop
      vertex 44 0 0
      vertex 39.6067 18.2576 0
      vertex 40 22 0
    endloop
  endfacet
  facet normal 0 0 -1
    outer loop
      vertex 38.4438 14.6787 0
      vertex 39.65 6 0
      vertex 38.825 7.42894 0
    endloop
  endfacet
  facet normal 0 0 -1
    outer loop
      vertex 39.65 6 0
      vertex 38.4438 14.6787 0
      vertex 39.6067 18.2576 0
    endloop
  endfacet
  facet normal 0 0 -1
    outer loop
      vertex 36.5623 11.4199 0
      vertex 38.825 7.42894 0
      vertex 37.175 7.42894 0
    endloop
  endfacet
  facet normal 0 0 -1
    outer loop
      vertex 38.825 7.42894 0
      vertex 36.5623 11.4199 0
      vertex 38.4438 14.6787 0
    endloop
  endfacet
  facet normal 0 0 -1
    outer loop
      vertex 34.0443 8.62339 0
      vertex 37.175 7.42894 0
      vertex 36.35 6 0
    endloop
  endfacet
  facet normal 0 0 -1
    outer loop
      vertex 37.175 7.42894 0
      vertex 34.0443 8.62339 0
      vertex 36.5623 11.4199 0
    endloop
  endfacet
  facet normal -0.406737 -0.913545 0
    outer loop
      vertex 27.5623 39.119 0
      vertex 31 37.5885 2
      vertex 27.5623 39.119 2
    endloop
  endfacet
  facet normal -0.406737 -0.913545 -0
    outer loop
      vertex 31 37.5885 2
      vertex 27.5623 39.119 0
      vertex 31 37.5885 0
    endloop
  endfacet
  facet normal -0.994522 0.104529 0
    outer loop
      vertex 39.6067 18.2576 0
      vertex 40 22 2
      vertex 40 22 0
    endloop
  endfacet
  facet normal -0.994522 0.104529 0
    outer loop
      vertex 40 22 2
      vertex 39.6067 18.2576 0
      vertex 39.6067 18.2576 2
    endloop
  endfacet
  facet normal 0 1 -0
    outer loop
      vertex 23.8815 4.09861 0
      vertex 20.1185 4.09861 2
      vertex 23.8815 4.09861 2
    endloop
  endfacet
  facet normal 0 1 0
    outer loop
      vertex 20.1185 4.09861 2
      vertex 23.8815 4.09861 0
      vertex 20.1185 4.09861 0
    endloop
  endfacet
  facet normal 0 -1 0
    outer loop
      vertex 20.1185 39.9014 0
      vertex 23.8815 39.9014 2
      vertex 20.1185 39.9014 2
    endloop
  endfacet
  facet normal 0 -1 -0
    outer loop
      vertex 23.8815 39.9014 2
      vertex 20.1185 39.9014 0
      vertex 23.8815 39.9014 0
    endloop
  endfacet
  facet normal 0.406737 -0.913545 0
    outer loop
      vertex 13 37.5885 0
      vertex 16.4377 39.119 2
      vertex 13 37.5885 2
    endloop
  endfacet
  facet normal 0.406737 -0.913545 0
    outer loop
      vertex 16.4377 39.119 2
      vertex 13 37.5885 0
      vertex 16.4377 39.119 0
    endloop
  endfacet
  facet normal 0.951057 -0.309017 0
    outer loop
      vertex 4.39334 25.7424 2
      vertex 5.55618 29.3213 0
      vertex 5.55618 29.3213 2
    endloop
  endfacet
  facet normal 0.951057 -0.309017 0
    outer loop
      vertex 5.55618 29.3213 0
      vertex 4.39334 25.7424 2
      vertex 4.39334 25.7424 0
    endloop
  endfacet
  facet normal -0.743145 0.669131 0
    outer loop
      vertex 34.0443 8.62339 0
      vertex 36.5623 11.4199 2
      vertex 36.5623 11.4199 0
    endloop
  endfacet
  facet normal -0.743145 0.669131 0
    outer loop
      vertex 36.5623 11.4199 2
      vertex 34.0443 8.62339 0
      vertex 34.0443 8.62339 2
    endloop
  endfacet
  facet normal -0.866026 -0.5 0
    outer loop
      vertex 38.4438 29.3213 0
      vertex 36.5623 32.5801 2
      vertex 36.5623 32.5801 0
    endloop
  endfacet
  facet normal -0.866026 -0.5 0
    outer loop
      vertex 36.5623 32.5801 2
      vertex 38.4438 29.3213 0
      vertex 38.4438 29.3213 2
    endloop
  endfacet
  facet normal -0.743145 -0.669131 0
    outer loop
      vertex 36.5623 32.5801 0
      vertex 34.0443 35.3766 2
      vertex 34.0443 35.3766 0
    endloop
  endfacet
  facet normal -0.743145 -0.669131 0
    outer loop
      vertex 34.0443 35.3766 2
      vertex 36.5623 32.5801 0
      vertex 36.5623 32.5801 2
    endloop
  endfacet
  facet normal -0.587785 -0.809017 0
    outer loop
      vertex 31 37.5885 0
      vertex 34.0443 35.3766 2
      vertex 31 37.5885 2
    endloop
  endfacet
  facet normal -0.587785 -0.809017 -0
    outer loop
      vertex 34.0443 35.3766 2
      vertex 31 37.5885 0
      vertex 34.0443 35.3766 0
    endloop
  endfacet
  facet normal -0.207911 -0.978148 0
    outer loop
      vertex 23.8815 39.9014 0
      vertex 27.5623 39.119 2
      vertex 23.8815 39.9014 2
    endloop
  endfacet
  facet normal -0.207911 -0.978148 -0
    outer loop
      vertex 27.5623 39.119 2
      vertex 23.8815 39.9014 0
      vertex 27.5623 39.119 0
    endloop
  endfacet
  facet normal 0.994522 0.104528 0
    outer loop
      vertex 4.39334 18.2576 2
      vertex 4 22 0
      vertex 4 22 2
    endloop
  endfacet
  facet normal 0.994522 0.104528 0
    outer loop
      vertex 4 22 0
      vertex 4.39334 18.2576 2
      vertex 4.39334 18.2576 0
    endloop
  endfacet
  facet normal 0.866025 -0.5 0
    outer loop
      vertex 5.55618 29.3213 2
      vertex 7.43769 32.5801 0
      vertex 7.43769 32.5801 2
    endloop
  endfacet
  facet normal 0.866025 -0.5 0
    outer loop
      vertex 7.43769 32.5801 0
      vertex 5.55618 29.3213 2
      vertex 5.55618 29.3213 0
    endloop
  endfacet
  facet normal 0.587785 -0.809017 0
    outer loop
      vertex 9.95565 35.3766 0
      vertex 13 37.5885 2
      vertex 9.95565 35.3766 2
    endloop
  endfacet
  facet normal 0.587785 -0.809017 0
    outer loop
      vertex 13 37.5885 2
      vertex 9.95565 35.3766 0
      vertex 13 37.5885 0
    endloop
  endfacet
  facet normal 0.207911 -0.978148 0
    outer loop
      vertex 16.4377 39.119 0
      vertex 20.1185 39.9014 2
      vertex 16.4377 39.119 2
    endloop
  endfacet
  facet normal 0.207911 -0.978148 0
    outer loop
      vertex 20.1185 39.9014 2
      vertex 16.4377 39.119 0
      vertex 20.1185 39.9014 0
    endloop
  endfacet
  facet normal 0.743145 -0.669131 0
    outer loop
      vertex 7.43769 32.5801 2
      vertex 9.95565 35.3766 0
      vertex 9.95565 35.3766 2
    endloop
  endfacet
  facet normal 0.743145 -0.669131 0
    outer loop
      vertex 9.95565 35.3766 0
      vertex 7.43769 32.5801 2
      vertex 7.43769 32.5801 0
    endloop
  endfacet
  facet normal -0.994522 -0.104529 0
    outer loop
      vertex 40 22 0
      vertex 39.6067 25.7424 2
      vertex 39.6067 25.7424 0
    endloop
  endfacet
  facet normal -0.994522 -0.104529 0
    outer loop
      vertex 39.6067 25.7424 2
      vertex 40 22 0
      vertex 40 22 2
    endloop
  endfacet
  facet normal -0.207912 0.978148 0
    outer loop
      vertex 27.5623 4.88098 0
      vertex 23.8815 4.09861 2
      vertex 27.5623 4.88098 2
    endloop
  endfacet
  facet normal -0.207912 0.978148 0
    outer loop
      vertex 23.8815 4.09861 2
      vertex 27.5623 4.88098 0
      vertex 23.8815 4.09861 0
    endloop
  endfacet
  facet normal -0.866025 0.5 0
    outer loop
      vertex 36.5623 11.4199 0
      vertex 38.4438 14.6787 2
      vertex 38.4438 14.6787 0
    endloop
  endfacet
  facet normal -0.866025 0.5 0
    outer loop
      vertex 38.4438 14.6787 2
      vertex 36.5623 11.4199 0
      vertex 36.5623 11.4199 2
    endloop
  endfacet
  facet normal -0.951057 0.309017 0
    outer loop
      vertex 38.4438 14.6787 0
      vertex 39.6067 18.2576 2
      vertex 39.6067 18.2576 0
    endloop
  endfacet
  facet normal -0.951057 0.309017 0
    outer loop
      vertex 39.6067 18.2576 2
      vertex 38.4438 14.6787 0
      vertex 38.4438 14.6787 2
    endloop
  endfacet
  facet normal -0.406736 0.913546 0
    outer loop
      vertex 31 6.41154 0
      vertex 27.5623 4.88098 2
      vertex 31 6.41154 2
    endloop
  endfacet
  facet normal -0.406736 0.913546 0
    outer loop
      vertex 27.5623 4.88098 2
      vertex 31 6.41154 0
      vertex 27.5623 4.88098 0
    endloop
  endfacet
  facet normal -0.587786 0.809017 0
    outer loop
      vertex 34.0443 8.62339 0
      vertex 31 6.41154 2
      vertex 34.0443 8.62339 2
    endloop
  endfacet
  facet normal -0.587786 0.809017 0
    outer loop
      vertex 31 6.41154 2
      vertex 34.0443 8.62339 0
      vertex 31 6.41154 0
    endloop
  endfacet
  facet normal 0.406736 0.913546 -0
    outer loop
      vertex 16.4377 4.88098 0
      vertex 13 6.41154 2
      vertex 16.4377 4.88098 2
    endloop
  endfacet
  facet normal 0.406736 0.913546 0
    outer loop
      vertex 13 6.41154 2
      vertex 16.4377 4.88098 0
      vertex 13 6.41154 0
    endloop
  endfacet
  facet normal 0.743145 0.669131 0
    outer loop
      vertex 9.95565 8.62339 2
      vertex 7.43769 11.4199 0
      vertex 7.43769 11.4199 2
    endloop
  endfacet
  facet normal 0.743145 0.669131 0
    outer loop
      vertex 7.43769 11.4199 0
      vertex 9.95565 8.62339 2
      vertex 9.95565 8.62339 0
    endloop
  endfacet
  facet normal 0.951057 0.309017 0
    outer loop
      vertex 5.55618 14.6787 2
      vertex 4.39334 18.2576 0
      vertex 4.39334 18.2576 2
    endloop
  endfacet
  facet normal 0.951057 0.309017 0
    outer loop
      vertex 4.39334 18.2576 0
      vertex 5.55618 14.6787 2
      vertex 5.55618 14.6787 0
    endloop
  endfacet
  facet normal 0.587785 0.809017 -0
    outer loop
      vertex 13 6.41154 0
      vertex 9.95565 8.62339 2
      vertex 13 6.41154 2
    endloop
  endfacet
  facet normal 0.587785 0.809017 0
    outer loop
      vertex 9.95565 8.62339 2
      vertex 13 6.41154 0
      vertex 9.95565 8.62339 0
    endloop
  endfacet
  facet normal -0.951057 -0.309017 0
    outer loop
      vertex 39.6067 25.7424 0
      vertex 38.4438 29.3213 2
      vertex 38.4438 29.3213 0
    endloop
  endfacet
  facet normal -0.951057 -0.309017 0
    outer loop
      vertex 38.4438 29.3213 2
      vertex 39.6067 25.7424 0
      vertex 39.6067 25.7424 2
    endloop
  endfacet
  facet normal 0 0 1
    outer loop
      vertex 6.825 7.42894 2
      vertex 9.95565 8.62339 2
      vertex 7.43769 11.4199 2
    endloop
  endfacet
  facet normal 0 0 1
    outer loop
      vertex 9.95565 8.62339 2
      vertex 6.825 7.42894 2
      vertex 7.65 6 2
    endloop
  endfacet
  facet normal 0 0 1
    outer loop
      vertex 5.175 7.42894 2
      vertex 7.43769 11.4199 2
      vertex 5.55618 14.6787 2
    endloop
  endfacet
  facet normal 0 0 1
    outer loop
      vertex 7.43769 11.4199 2
      vertex 5.175 7.42894 2
      vertex 6.825 7.42894 2
    endloop
  endfacet
  facet normal 0 0 1
    outer loop
      vertex 4.35 6 2
      vertex 5.55618 14.6787 2
      vertex 4.39334 18.2576 2
    endloop
  endfacet
  facet normal 0 0 1
    outer loop
      vertex 5.55618 14.6787 2
      vertex 4.35 6 2
      vertex 5.175 7.42894 2
    endloop
  endfacet
  facet normal 0 0 1
    outer loop
      vertex 2 2 2
      vertex 4.39334 18.2576 2
      vertex 4 22 2
    endloop
  endfacet
  facet normal -0 0 1
    outer loop
      vertex 27.5623 4.88098 2
      vertex 28.5 3 2
      vertex 31 6.41154 2
    endloop
  endfacet
  facet normal -0 0 1
    outer loop
      vertex 23.8815 4.09861 2
      vertex 28.5 3 2
      vertex 27.5623 4.88098 2
    endloop
  endfacet
  facet normal -0 0 1
    outer loop
      vertex 20.1185 4.09861 2
      vertex 28.5 3 2
      vertex 23.8815 4.09861 2
    endloop
  endfacet
  facet normal 0 0 1
    outer loop
      vertex 20.1185 4.09861 2
      vertex 15.5 3 2
      vertex 28.5 3 2
    endloop
  endfacet
  facet normal 0 0 1
    outer loop
      vertex 16.4377 4.88098 2
      vertex 15.5 3 2
      vertex 20.1185 4.09861 2
    endloop
  endfacet
  facet normal 0 0 1
    outer loop
      vertex 13 6.41154 2
      vertex 15.5 3 2
      vertex 16.4377 4.88098 2
    endloop
  endfacet
  facet normal 0 0 1
    outer loop
      vertex 13 6.41154 2
      vertex 15.5 2 2
      vertex 15.5 3 2
    endloop
  endfacet
  facet normal 0 0 1
    outer loop
      vertex 7.65 6 2
      vertex 13 6.41154 2
      vertex 9.95565 8.62339 2
    endloop
  endfacet
  facet normal 0 0 1
    outer loop
      vertex 6.825 4.57106 2
      vertex 13 6.41154 2
      vertex 7.65 6 2
    endloop
  endfacet
  facet normal 0 0 1
    outer loop
      vertex 13 6.41154 2
      vertex 6.825 4.57106 2
      vertex 15.5 2 2
    endloop
  endfacet
  facet normal 0 0 1
    outer loop
      vertex 2 2 2
      vertex 6.825 4.57106 2
      vertex 5.175 4.57106 2
    endloop
  endfacet
  facet normal 0 0 1
    outer loop
      vertex 2 2 2
      vertex 4 22 2
      vertex 2 42 2
    endloop
  endfacet
  facet normal 0 0 1
    outer loop
      vertex 6.825 4.57106 2
      vertex 2 2 2
      vertex 15.5 2 2
    endloop
  endfacet
  facet normal 0 0 1
    outer loop
      vertex 4.35 6 2
      vertex 2 2 2
      vertex 5.175 4.57106 2
    endloop
  endfacet
  facet normal 0 0 1
    outer loop
      vertex 4.39334 18.2576 2
      vertex 2 2 2
      vertex 4.35 6 2
    endloop
  endfacet
  facet normal -0 0 1
    outer loop
      vertex 6.825 36.5711 2
      vertex 9.95565 35.3766 2
      vertex 7.65 38 2
    endloop
  endfacet
  facet normal 0 0 1
    outer loop
      vertex 9.95565 35.3766 2
      vertex 6.825 36.5711 2
      vertex 7.43769 32.5801 2
    endloop
  endfacet
  facet normal -0 0 1
    outer loop
      vertex 5.175 36.5711 2
      vertex 7.43769 32.5801 2
      vertex 6.825 36.5711 2
    endloop
  endfacet
  facet normal 0 0 1
    outer loop
      vertex 7.43769 32.5801 2
      vertex 5.175 36.5711 2
      vertex 5.55618 29.3213 2
    endloop
  endfacet
  facet normal 0 0 1
    outer loop
      vertex 4.35 38 2
      vertex 5.55618 29.3213 2
      vertex 5.175 36.5711 2
    endloop
  endfacet
  facet normal 0 0 1
    outer loop
      vertex 5.55618 29.3213 2
      vertex 4.35 38 2
      vertex 4.39334 25.7424 2
    endloop
  endfacet
  facet normal 0 0 1
    outer loop
      vertex 2 42 2
      vertex 4.39334 25.7424 2
      vertex 4.35 38 2
    endloop
  endfacet
  facet normal 0 0 1
    outer loop
      vertex 42 2 2
      vertex 39.6067 18.2576 2
      vertex 39.65 6 2
    endloop
  endfacet
  facet normal -0 0 1
    outer loop
      vertex 38.4438 14.6787 2
      vertex 39.65 6 2
      vertex 39.6067 18.2576 2
    endloop
  endfacet
  facet normal 0 0 1
    outer loop
      vertex 39.65 6 2
      vertex 38.4438 14.6787 2
      vertex 38.825 7.42894 2
    endloop
  endfacet
  facet normal -0 0 1
    outer loop
      vertex 36.5623 11.4199 2
      vertex 38.825 7.42894 2
      vertex 38.4438 14.6787 2
    endloop
  endfacet
  facet normal 0 0 1
    outer loop
      vertex 38.825 7.42894 2
      vertex 36.5623 11.4199 2
      vertex 37.175 7.42894 2
    endloop
  endfacet
  facet normal -0 0 1
    outer loop
      vertex 34.0443 8.62339 2
      vertex 37.175 7.42894 2
      vertex 36.5623 11.4199 2
    endloop
  endfacet
  facet normal 0 0 1
    outer loop
      vertex 37.175 7.42894 2
      vertex 34.0443 8.62339 2
      vertex 36.35 6 2
    endloop
  endfacet
  facet normal 0 0 1
    outer loop
      vertex 42 42 2
      vertex 40 22 2
      vertex 42 2 2
    endloop
  endfacet
  facet normal 0 0 1
    outer loop
      vertex 39.6067 25.7424 2
      vertex 42 42 2
      vertex 39.65 38 2
    endloop
  endfacet
  facet normal 0 0 1
    outer loop
      vertex 42 42 2
      vertex 38.825 39.4289 2
      vertex 39.65 38 2
    endloop
  endfacet
  facet normal 0 0 1
    outer loop
      vertex 42 42 2
      vertex 37.175 39.4289 2
      vertex 38.825 39.4289 2
    endloop
  endfacet
  facet normal 0 0 1
    outer loop
      vertex 31 37.5885 2
      vertex 36.35 38 2
      vertex 37.175 39.4289 2
    endloop
  endfacet
  facet normal 0 0 1
    outer loop
      vertex 36.35 38 2
      vertex 31 37.5885 2
      vertex 34.0443 35.3766 2
    endloop
  endfacet
  facet normal 0 0 1
    outer loop
      vertex 27.5623 39.119 2
      vertex 37.175 39.4289 2
      vertex 42 42 2
    endloop
  endfacet
  facet normal 0 0 1
    outer loop
      vertex 37.175 39.4289 2
      vertex 27.5623 39.119 2
      vertex 31 37.5885 2
    endloop
  endfacet
  facet normal 0 0 1
    outer loop
      vertex 42 42 2
      vertex 23.8815 39.9014 2
      vertex 27.5623 39.119 2
    endloop
  endfacet
  facet normal 0 0 1
    outer loop
      vertex 42 42 2
      vertex 20.1185 39.9014 2
      vertex 23.8815 39.9014 2
    endloop
  endfacet
  facet normal 0 0 1
    outer loop
      vertex 13 37.5885 2
      vertex 7.65 38 2
      vertex 9.95565 35.3766 2
    endloop
  endfacet
  facet normal 0 0 1
    outer loop
      vertex 6.825 39.4289 2
      vertex 13 37.5885 2
      vertex 16.4377 39.119 2
    endloop
  endfacet
  facet normal 0 0 1
    outer loop
      vertex 2 42 2
      vertex 16.4377 39.119 2
      vertex 20.1185 39.9014 2
    endloop
  endfacet
  facet normal 0 0 1
    outer loop
      vertex 13 37.5885 2
      vertex 6.825 39.4289 2
      vertex 7.65 38 2
    endloop
  endfacet
  facet normal -0 0 1
    outer loop
      vertex 2 42 2
      vertex 20.1185 39.9014 2
      vertex 42 42 2
    endloop
  endfacet
  facet normal 0 0 1
    outer loop
      vertex 16.4377 39.119 2
      vertex 2 42 2
      vertex 6.825 39.4289 2
    endloop
  endfacet
  facet normal 0 0 1
    outer loop
      vertex 4.39334 25.7424 2
      vertex 2 42 2
      vertex 4 22 2
    endloop
  endfacet
  facet normal 0 0 1
    outer loop
      vertex 5.175 39.4289 2
      vertex 2 42 2
      vertex 4.35 38 2
    endloop
  endfacet
  facet normal 0 0 1
    outer loop
      vertex 6.825 39.4289 2
      vertex 2 42 2
      vertex 5.175 39.4289 2
    endloop
  endfacet
  facet normal -0 0 1
    outer loop
      vertex 39.6067 18.2576 2
      vertex 42 2 2
      vertex 40 22 2
    endloop
  endfacet
  facet normal -0 0 1
    outer loop
      vertex 38.825 4.57106 2
      vertex 42 2 2
      vertex 39.65 6 2
    endloop
  endfacet
  facet normal -0 0 1
    outer loop
      vertex 37.175 4.57106 2
      vertex 42 2 2
      vertex 38.825 4.57106 2
    endloop
  endfacet
  facet normal -0 0 1
    outer loop
      vertex 31 6.41154 2
      vertex 36.35 6 2
      vertex 34.0443 8.62339 2
    endloop
  endfacet
  facet normal 0 0 1
    outer loop
      vertex 36.35 6 2
      vertex 31 6.41154 2
      vertex 37.175 4.57106 2
    endloop
  endfacet
  facet normal 0 0 1
    outer loop
      vertex 28.5 2 2
      vertex 37.175 4.57106 2
      vertex 31 6.41154 2
    endloop
  endfacet
  facet normal 0 0 1
    outer loop
      vertex 28.5 2 2
      vertex 31 6.41154 2
      vertex 28.5 3 2
    endloop
  endfacet
  facet normal 0 0 1
    outer loop
      vertex 37.175 4.57106 2
      vertex 28.5 2 2
      vertex 42 2 2
    endloop
  endfacet
  facet normal 0 0 1
    outer loop
      vertex 42 42 2
      vertex 39.6067 25.7424 2
      vertex 40 22 2
    endloop
  endfacet
  facet normal 0 0 1
    outer loop
      vertex 38.4438 29.3213 2
      vertex 39.65 38 2
      vertex 38.825 36.5711 2
    endloop
  endfacet
  facet normal 0 0 1
    outer loop
      vertex 39.65 38 2
      vertex 38.4438 29.3213 2
      vertex 39.6067 25.7424 2
    endloop
  endfacet
  facet normal 0 0 1
    outer loop
      vertex 36.5623 32.5801 2
      vertex 38.825 36.5711 2
      vertex 37.175 36.5711 2
    endloop
  endfacet
  facet normal 0 0 1
    outer loop
      vertex 38.825 36.5711 2
      vertex 36.5623 32.5801 2
      vertex 38.4438 29.3213 2
    endloop
  endfacet
  facet normal 0 0 1
    outer loop
      vertex 34.0443 35.3766 2
      vertex 37.175 36.5711 2
      vertex 36.35 38 2
    endloop
  endfacet
  facet normal 0 0 1
    outer loop
      vertex 37.175 36.5711 2
      vertex 34.0443 35.3766 2
      vertex 36.5623 32.5801 2
    endloop
  endfacet
  facet normal 0.994522 -0.104528 0
    outer loop
      vertex 4 22 2
      vertex 4.39334 25.7424 0
      vertex 4.39334 25.7424 2
    endloop
  endfacet
  facet normal 0.994522 -0.104528 0
    outer loop
      vertex 4.39334 25.7424 0
      vertex 4 22 2
      vertex 4 22 0
    endloop
  endfacet
  facet normal 0.207912 0.978148 -0
    outer loop
      vertex 20.1185 4.09861 0
      vertex 16.4377 4.88098 2
      vertex 20.1185 4.09861 2
    endloop
  endfacet
  facet normal 0.207912 0.978148 0
    outer loop
      vertex 16.4377 4.88098 2
      vertex 20.1185 4.09861 0
      vertex 16.4377 4.88098 0
    endloop
  endfacet
  facet normal 0.866025 0.5 0
    outer loop
      vertex 7.43769 11.4199 2
      vertex 5.55618 14.6787 0
      vertex 5.55618 14.6787 2
    endloop
  endfacet
  facet normal 0.866025 0.5 0
    outer loop
      vertex 5.55618 14.6787 0
      vertex 7.43769 11.4199 2
      vertex 7.43769 11.4199 0
    endloop
  endfacet
  facet normal -0.866025 -0.5 0
    outer loop
      vertex 7.65 6 0
      vertex 6.825 7.42894 2
      vertex 6.825 7.42894 0
    endloop
  endfacet
  facet normal -0.866025 -0.5 0
    outer loop
      vertex 6.825 7.42894 2
      vertex 7.65 6 0
      vertex 7.65 6 2
    endloop
  endfacet
  facet normal 0 -1 0
    outer loop
      vertex 5.175 7.42894 0
      vertex 6.825 7.42894 2
      vertex 5.175 7.42894 2
    endloop
  endfacet
  facet normal 0 -1 -0
    outer loop
      vertex 6.825 7.42894 2
      vertex 5.175 7.42894 0
      vertex 6.825 7.42894 0
    endloop
  endfacet
  facet normal 0 1 -0
    outer loop
      vertex 6.825 4.57106 0
      vertex 5.175 4.57106 2
      vertex 6.825 4.57106 2
    endloop
  endfacet
  facet normal 0 1 0
    outer loop
      vertex 5.175 4.57106 2
      vertex 6.825 4.57106 0
      vertex 5.175 4.57106 0
    endloop
  endfacet
  facet normal 0.866025 -0.5 0
    outer loop
      vertex 4.35 6 2
      vertex 5.175 7.42894 0
      vertex 5.175 7.42894 2
    endloop
  endfacet
  facet normal 0.866025 -0.5 0
    outer loop
      vertex 5.175 7.42894 0
      vertex 4.35 6 2
      vertex 4.35 6 0
    endloop
  endfacet
  facet normal -0.866026 0.5 0
    outer loop
      vertex 6.825 4.57106 0
      vertex 7.65 6 2
      vertex 7.65 6 0
    endloop
  endfacet
  facet normal -0.866026 0.5 0
    outer loop
      vertex 7.65 6 2
      vertex 6.825 4.57106 0
      vertex 6.825 4.57106 2
    endloop
  endfacet
  facet normal 0.866026 0.5 0
    outer loop
      vertex 5.175 4.57106 2
      vertex 4.35 6 0
      vertex 4.35 6 2
    endloop
  endfacet
  facet normal 0.866026 0.5 0
    outer loop
      vertex 4.35 6 0
      vertex 5.175 4.57106 2
      vertex 5.175 4.57106 0
    endloop
  endfacet
  facet normal -0.866025 -0.5 0
    outer loop
      vertex 39.65 6 0
      vertex 38.825 7.42894 2
      vertex 38.825 7.42894 0
    endloop
  endfacet
  facet normal -0.866025 -0.5 0
    outer loop
      vertex 38.825 7.42894 2
      vertex 39.65 6 0
      vertex 39.65 6 2
    endloop
  endfacet
  facet normal 0.866025 0.5 0
    outer loop
      vertex 37.175 4.57106 2
      vertex 36.35 6 0
      vertex 36.35 6 2
    endloop
  endfacet
  facet normal 0.866025 0.5 0
    outer loop
      vertex 36.35 6 0
      vertex 37.175 4.57106 2
      vertex 37.175 4.57106 0
    endloop
  endfacet
  facet normal 0 -1 0
    outer loop
      vertex 37.175 7.42894 0
      vertex 38.825 7.42894 2
      vertex 37.175 7.42894 2
    endloop
  endfacet
  facet normal 0 -1 -0
    outer loop
      vertex 38.825 7.42894 2
      vertex 37.175 7.42894 0
      vertex 38.825 7.42894 0
    endloop
  endfacet
  facet normal 0 1 -0
    outer loop
      vertex 38.825 4.57106 0
      vertex 37.175 4.57106 2
      vertex 38.825 4.57106 2
    endloop
  endfacet
  facet normal 0 1 0
    outer loop
      vertex 37.175 4.57106 2
      vertex 38.825 4.57106 0
      vertex 37.175 4.57106 0
    endloop
  endfacet
  facet normal 0.866025 -0.5 0
    outer loop
      vertex 36.35 6 2
      vertex 37.175 7.42894 0
      vertex 37.175 7.42894 2
    endloop
  endfacet
  facet normal 0.866025 -0.5 0
    outer loop
      vertex 37.175 7.42894 0
      vertex 36.35 6 2
      vertex 36.35 6 0
    endloop
  endfacet
  facet normal -0.866025 0.5 0
    outer loop
      vertex 38.825 4.57106 0
      vertex 39.65 6 2
      vertex 39.65 6 0
    endloop
  endfacet
  facet normal -0.866025 0.5 0
    outer loop
      vertex 39.65 6 2
      vertex 38.825 4.57106 0
      vertex 38.825 4.57106 2
    endloop
  endfacet
  facet normal -0.866025 -0.5 0
    outer loop
      vertex 7.65 38 0
      vertex 6.825 39.4289 2
      vertex 6.825 39.4289 0
    endloop
  endfacet
  facet normal -0.866025 -0.5 0
    outer loop
      vertex 6.825 39.4289 2
      vertex 7.65 38 0
      vertex 7.65 38 2
    endloop
  endfacet
  facet normal 0 -1 0
    outer loop
      vertex 5.175 39.4289 0
      vertex 6.825 39.4289 2
      vertex 5.175 39.4289 2
    endloop
  endfacet
  facet normal 0 -1 -0
    outer loop
      vertex 6.825 39.4289 2
      vertex 5.175 39.4289 0
      vertex 6.825 39.4289 0
    endloop
  endfacet
  facet normal 0 1 -0
    outer loop
      vertex 6.825 36.5711 0
      vertex 5.175 36.5711 2
      vertex 6.825 36.5711 2
    endloop
  endfacet
  facet normal 0 1 0
    outer loop
      vertex 5.175 36.5711 2
      vertex 6.825 36.5711 0
      vertex 5.175 36.5711 0
    endloop
  endfacet
  facet normal 0.866025 -0.5 0
    outer loop
      vertex 4.35 38 2
      vertex 5.175 39.4289 0
      vertex 5.175 39.4289 2
    endloop
  endfacet
  facet normal 0.866025 -0.5 0
    outer loop
      vertex 5.175 39.4289 0
      vertex 4.35 38 2
      vertex 4.35 38 0
    endloop
  endfacet
  facet normal -0.866026 0.499999 0
    outer loop
      vertex 6.825 36.5711 0
      vertex 7.65 38 2
      vertex 7.65 38 0
    endloop
  endfacet
  facet normal -0.866026 0.499999 0
    outer loop
      vertex 7.65 38 2
      vertex 6.825 36.5711 0
      vertex 6.825 36.5711 2
    endloop
  endfacet
  facet normal 0.866026 0.499999 0
    outer loop
      vertex 5.175 36.5711 2
      vertex 4.35 38 0
      vertex 4.35 38 2
    endloop
  endfacet
  facet normal 0.866026 0.499999 0
    outer loop
      vertex 4.35 38 0
      vertex 5.175 36.5711 2
      vertex 5.175 36.5711 0
    endloop
  endfacet
  facet normal -0.866025 -0.500001 0
    outer loop
      vertex 39.65 38 0
      vertex 38.825 39.4289 2
      vertex 38.825 39.4289 0
    endloop
  endfacet
  facet normal -0.866025 -0.500001 0
    outer loop
      vertex 38.825 39.4289 2
      vertex 39.65 38 0
      vertex 39.65 38 2
    endloop
  endfacet
  facet normal 0 -1 0
    outer loop
      vertex 37.175 39.4289 0
      vertex 38.825 39.4289 2
      vertex 37.175 39.4289 2
    endloop
  endfacet
  facet normal 0 -1 -0
    outer loop
      vertex 38.825 39.4289 2
      vertex 37.175 39.4289 0
      vertex 38.825 39.4289 0
    endloop
  endfacet
  facet normal 0 1 -0
    outer loop
      vertex 38.825 36.5711 0
      vertex 37.175 36.5711 2
      vertex 38.825 36.5711 2
    endloop
  endfacet
  facet normal 0 1 0
    outer loop
      vertex 37.175 36.5711 2
      vertex 38.825 36.5711 0
      vertex 37.175 36.5711 0
    endloop
  endfacet
  facet normal 0.866025 -0.500001 0
    outer loop
      vertex 36.35 38 2
      vertex 37.175 39.4289 0
      vertex 37.175 39.4289 2
    endloop
  endfacet
  facet normal 0.866025 -0.500001 0
    outer loop
      vertex 37.175 39.4289 0
      vertex 36.35 38 2
      vertex 36.35 38 0
    endloop
  endfacet
  facet normal -0.866025 0.5 0
    outer loop
      vertex 38.825 36.5711 0
      vertex 39.65 38 2
      vertex 39.65 38 0
    endloop
  endfacet
  facet normal -0.866025 0.5 0
    outer loop
      vertex 39.65 38 2
      vertex 38.825 36.5711 0
      vertex 38.825 36.5711 2
    endloop
  endfacet
  facet normal 0.866025 0.5 0
    outer loop
      vertex 37.175 36.5711 2
      vertex 36.35 38 0
      vertex 36.35 38 2
    endloop
  endfacet
  facet normal 0.866025 0.5 0
    outer loop
      vertex 36.35 38 0
      vertex 37.175 36.5711 2
      vertex 37.175 36.5711 0
    endloop
  endfacet
  facet normal -1 0 0
    outer loop
      vertex 0 0 0
      vertex 0 44 4
      vertex 0 44 0
    endloop
  endfacet
  facet normal -1 -0 0
    outer loop
      vertex 0 44 4
      vertex 0 0 0
      vertex 0 0 4
    endloop
  endfacet
  facet normal 1 -0 0
    outer loop
      vertex 44 0 4
      vertex 44 44 0
      vertex 44 44 4
    endloop
  endfacet
  facet normal 1 0 0
    outer loop
      vertex 44 44 0
      vertex 44 0 4
      vertex 44 0 0
    endloop
  endfacet
  facet normal 0 1 -0
    outer loop
      vertex 44 44 0
      vertex 0 44 4
      vertex 44 44 4
    endloop
  endfacet
  facet normal 0 1 0
    outer loop
      vertex 0 44 4
      vertex 44 44 0
      vertex 0 44 0
    endloop
  endfacet
  facet normal 0 -1 0
    outer loop
      vertex 0 0 0
      vertex 15.5 0 4
      vertex 0 0 4
    endloop
  endfacet
  facet normal 0 -1 -0
    outer loop
      vertex 15.5 0 4
      vertex 0 0 0
      vertex 28.5 0 4
    endloop
  endfacet
  facet normal 0 -1 0
    outer loop
      vertex 44 0 0
      vertex 28.5 0 4
      vertex 0 0 0
    endloop
  endfacet
  facet normal 0 -1 0
    outer loop
      vertex 28.5 0 4
      vertex 44 0 0
      vertex 44 0 4
    endloop
  endfacet
  facet normal 0 -1 0
    outer loop
      vertex 15.5 0 12
      vertex 21.175 0 7.42894
      vertex 28.5 0 12
    endloop
  endfacet
  facet normal 0 -1 0
    outer loop
      vertex 15.5 0 12
      vertex 20.35 0 6
      vertex 21.175 0 7.42894
    endloop
  endfacet
  facet normal 0 -1 0
    outer loop
      vertex 15.5 0 4
      vertex 20.35 0 6
      vertex 15.5 0 12
    endloop
  endfacet
  facet normal 0 -1 -0
    outer loop
      vertex 21.175 0 4.57106
      vertex 15.5 0 4
      vertex 22.825 0 4.57106
    endloop
  endfacet
  facet normal 0 -1 -0
    outer loop
      vertex 20.35 0 6
      vertex 15.5 0 4
      vertex 21.175 0 4.57106
    endloop
  endfacet
  facet normal 0 -1 0
    outer loop
      vertex 22.825 0 7.42894
      vertex 28.5 0 12
      vertex 21.175 0 7.42894
    endloop
  endfacet
  facet normal 0 -1 0
    outer loop
      vertex 23.65 0 6
      vertex 28.5 0 12
      vertex 22.825 0 7.42894
    endloop
  endfacet
  facet normal 0 -1 0
    outer loop
      vertex 28.5 0 4
      vertex 23.65 0 6
      vertex 22.825 0 4.57106
    endloop
  endfacet
  facet normal 0 -1 0
    outer loop
      vertex 23.65 0 6
      vertex 28.5 0 4
      vertex 28.5 0 12
    endloop
  endfacet
  facet normal 0 -1 0
    outer loop
      vertex 28.5 0 4
      vertex 22.825 0 4.57106
      vertex 15.5 0 4
    endloop
  endfacet
  facet normal 0 -0.59239 0.805651
    outer loop
      vertex 33 34 29
      vertex 15.5 3 6.20588
      vertex 28.5 3 6.20588
    endloop
  endfacet
  facet normal 0 -0.59239 0.805651
    outer loop
      vertex 11 34 29
      vertex 15.5 3 6.20588
      vertex 33 34 29
    endloop
  endfacet
  facet normal -1.08872e-08 -0.59239 0.805651
    outer loop
      vertex 0 0 4
      vertex 15.5 3 6.20588
      vertex 11 34 29
    endloop
  endfacet
  facet normal 0 -0.59239 0.805651
    outer loop
      vertex 15.5 3 6.20588
      vertex 0 0 4
      vertex 15.5 0 4
    endloop
  endfacet
  facet normal 1.08872e-08 -0.59239 0.805651
    outer loop
      vertex 28.5 3 6.20588
      vertex 44 0 4
      vertex 33 34 29
    endloop
  endfacet
  facet normal 0 -0.59239 0.805651
    outer loop
      vertex 44 0 4
      vertex 28.5 3 6.20588
      vertex 28.5 0 4
    endloop
  endfacet
  facet normal -2.80889e-07 -0.59239 0.805651
    outer loop
      vertex 23.5311 3 6.20588
      vertex 22.825 0.776638 4.57106
      vertex 23.65 2.72 6
    endloop
  endfacet
  facet normal 0 -0.59239 0.805651
    outer loop
      vertex 23.5311 3 6.20588
      vertex 21.175 0.776638 4.57106
      vertex 22.825 0.776638 4.57106
    endloop
  endfacet
  facet normal 0 -0.59239 0.805651
    outer loop
      vertex 20.4689 3 6.20588
      vertex 21.175 0.776638 4.57106
      vertex 23.5311 3 6.20588
    endloop
  endfacet
  facet normal 2.80886e-07 -0.59239 0.805651
    outer loop
      vertex 21.175 0.776638 4.57106
      vertex 20.4689 3 6.20588
      vertex 20.35 2.72 6
    endloop
  endfacet
  facet normal -0.920967 0 0.38964
    outer loop
      vertex 0 44 4
      vertex 0 0 4
      vertex 11 35.732 30
    endloop
  endfacet
  facet normal 0 0.9827 0.185205
    outer loop
      vertex 44 44 4
      vertex 11 40.732 21.3397
      vertex 33 40.732 21.3397
    endloop
  endfacet
  facet normal 0 0.9827 0.185205
    outer loop
      vertex 11 40.732 21.3397
      vertex 44 44 4
      vertex 0 44 4
    endloop
  endfacet
  facet normal 0 -0.500001 0.866025
    outer loop
      vertex 11 35.732 30
      vertex 33 34 29
      vertex 33 35.732 30
    endloop
  endfacet
  facet normal 0 -0.500001 0.866025
    outer loop
      vertex 33 34 29
      vertex 11 35.732 30
      vertex 11 34 29
    endloop
  endfacet
  facet normal -0.38941 -0.460533 0.797665
    outer loop
      vertex 11 35.732 30
      vertex 0 0 4
      vertex 11 34 29
    endloop
  endfacet
  facet normal 0 0.866026 0.5
    outer loop
      vertex 33 35.732 30
      vertex 31 36.732 28.2679
      vertex 11 35.732 30
    endloop
  endfacet
  facet normal -3.17891e-07 0.866025 0.5
    outer loop
      vertex 33 35.732 30
      vertex 31 39.732 23.0718
      vertex 31 36.732 28.2679
    endloop
  endfacet
  facet normal 0 0.866026 0.5
    outer loop
      vertex 31 39.732 23.0718
      vertex 33 40.732 21.3397
      vertex 13 39.732 23.0718
    endloop
  endfacet
  facet normal 1.90735e-07 0.866025 0.5
    outer loop
      vertex 33 40.732 21.3397
      vertex 31 39.732 23.0718
      vertex 33 35.732 30
    endloop
  endfacet
  facet normal -0 0.866026 0.5
    outer loop
      vertex 13 36.732 28.2679
      vertex 11 35.732 30
      vertex 31 36.732 28.2679
    endloop
  endfacet
  facet normal 3.17891e-07 0.866025 0.5
    outer loop
      vertex 13 39.732 23.0718
      vertex 11 35.732 30
      vertex 13 36.732 28.2679
    endloop
  endfacet
  facet normal -1.90735e-07 0.866025 0.5
    outer loop
      vertex 13 39.732 23.0718
      vertex 11 40.732 21.3397
      vertex 11 35.732 30
    endloop
  endfacet
  facet normal -0 0.866026 0.5
    outer loop
      vertex 11 40.732 21.3397
      vertex 13 39.732 23.0718
      vertex 33 40.732 21.3397
    endloop
  endfacet
  facet normal 0.38941 -0.460533 0.797665
    outer loop
      vertex 33 35.732 30
      vertex 33 34 29
      vertex 44 0 4
    endloop
  endfacet
  facet normal 0.468904 0.764916 0.441624
    outer loop
      vertex 33 40.732 21.3397
      vertex 33 35.732 30
      vertex 44 44 4
    endloop
  endfacet
  facet normal 0.920967 0 0.38964
    outer loop
      vertex 44 44 4
      vertex 33 35.732 30
      vertex 44 0 4
    endloop
  endfacet
  facet normal -0.468904 0.764916 0.441624
    outer loop
      vertex 11 40.732 21.3397
      vertex 0 44 4
      vertex 11 35.732 30
    endloop
  endfacet
  facet normal 1 -0 0
    outer loop
      vertex 2 2 4
      vertex 2 42 2
      vertex 2 42 4
    endloop
  endfacet
  facet normal 1 0 0
    outer loop
      vertex 2 42 2
      vertex 2 2 4
      vertex 2 2 2
    endloop
  endfacet
  facet normal 0 0.576251 -0.817273
    outer loop
      vertex 2 2 4
      vertex 15.5 3 4.70509
      vertex 15.5 2 4
    endloop
  endfacet
  facet normal 1.43505e-08 0.576251 -0.817273
    outer loop
      vertex 15.5 3 4.70509
      vertex 2 2 4
      vertex 13 35 27.2679
    endloop
  endfacet
  facet normal 0 0.576251 -0.817273
    outer loop
      vertex 28.5 3 4.70509
      vertex 42 2 4
      vertex 28.5 2 4
    endloop
  endfacet
  facet normal -1.43505e-08 0.576251 -0.817273
    outer loop
      vertex 42 2 4
      vertex 28.5 3 4.70509
      vertex 31 35 27.2679
    endloop
  endfacet
  facet normal 0 0.576251 -0.817273
    outer loop
      vertex 22.9024 3 4.70509
      vertex 31 35 27.2679
      vertex 28.5 3 4.70509
    endloop
  endfacet
  facet normal 0 0.576251 -0.817273
    outer loop
      vertex 21.0976 3 4.70509
      vertex 22.9024 3 4.70509
      vertex 22.825 2.80991 4.57106
    endloop
  endfacet
  facet normal 0 0.576251 -0.817273
    outer loop
      vertex 21.0976 3 4.70509
      vertex 22.825 2.80991 4.57106
      vertex 21.175 2.80991 4.57106
    endloop
  endfacet
  facet normal 0 0.576251 -0.817273
    outer loop
      vertex 22.9024 3 4.70509
      vertex 21.0976 3 4.70509
      vertex 31 35 27.2679
    endloop
  endfacet
  facet normal 0 0.576251 -0.817273
    outer loop
      vertex 13 35 27.2679
      vertex 21.0976 3 4.70509
      vertex 15.5 3 4.70509
    endloop
  endfacet
  facet normal 0 0.576251 -0.817273
    outer loop
      vertex 21.0976 3 4.70509
      vertex 13 35 27.2679
      vertex 31 35 27.2679
    endloop
  endfacet
  facet normal 0 1 -0
    outer loop
      vertex 15.5 2 2
      vertex 2 2 4
      vertex 15.5 2 4
    endloop
  endfacet
  facet normal 0 1 0
    outer loop
      vertex 2 2 4
      vertex 15.5 2 2
      vertex 2 2 2
    endloop
  endfacet
  facet normal 0 1 -0
    outer loop
      vertex 42 2 2
      vertex 28.5 2 4
      vertex 42 2 4
    endloop
  endfacet
  facet normal 0 1 0
    outer loop
      vertex 28.5 2 4
      vertex 42 2 2
      vertex 28.5 2 2
    endloop
  endfacet
  facet normal 0.910803 0 -0.412842
    outer loop
      vertex 2 42 4
      vertex 13 36.732 28.2679
      vertex 2 2 4
    endloop
  endfacet
  facet normal 0 -0.993004 -0.118085
    outer loop
      vertex 2 42 4
      vertex 31 39.732 23.0718
      vertex 13 39.732 23.0718
    endloop
  endfacet
  facet normal 0 -0.993004 -0.118085
    outer loop
      vertex 31 39.732 23.0718
      vertex 2 42 4
      vertex 42 42 4
    endloop
  endfacet
  facet normal -1 0 0
    outer loop
      vertex 42 2 2
      vertex 42 42 4
      vertex 42 42 2
    endloop
  endfacet
  facet normal -1 -0 0
    outer loop
      vertex 42 42 4
      vertex 42 2 2
      vertex 42 2 4
    endloop
  endfacet
  facet normal 0 0.500001 -0.866025
    outer loop
      vertex 13 35 27.2679
      vertex 31 36.732 28.2679
      vertex 31 35 27.2679
    endloop
  endfacet
  facet normal 0 0.500001 -0.866025
    outer loop
      vertex 31 36.732 28.2679
      vertex 13 35 27.2679
      vertex 13 36.732 28.2679
    endloop
  endfacet
  facet normal 0.31498 0.47455 -0.821943
    outer loop
      vertex 13 36.732 28.2679
      vertex 13 35 27.2679
      vertex 2 2 4
    endloop
  endfacet
  facet normal -0.31498 0.47455 -0.821943
    outer loop
      vertex 31 36.732 28.2679
      vertex 42 2 4
      vertex 31 35 27.2679
    endloop
  endfacet
  facet normal 0 -1 0
    outer loop
      vertex 2 42 2
      vertex 42 42 4
      vertex 2 42 4
    endloop
  endfacet
  facet normal 0 -1 -0
    outer loop
      vertex 42 42 4
      vertex 2 42 2
      vertex 42 42 2
    endloop
  endfacet
  facet normal -0.567001 -0.71336 -0.411858
    outer loop
      vertex 31 39.732 23.0718
      vertex 42 42 4
      vertex 31 36.732 28.2679
    endloop
  endfacet
  facet normal -0.910803 -0 -0.412842
    outer loop
      vertex 42 42 4
      vertex 42 2 4
      vertex 31 36.732 28.2679
    endloop
  endfacet
  facet normal 0.567001 -0.71336 -0.411858
    outer loop
      vertex 13 39.732 23.0718
      vertex 13 36.732 28.2679
      vertex 2 42 4
    endloop
  endfacet
  facet normal -1 0 0
    outer loop
      vertex 15.5 0 12
      vertex 15.5 3 6.20588
      vertex 15.5 0 4
    endloop
  endfacet
  facet normal -1 0 0
    outer loop
      vertex 15.5 3 6.20588
      vertex 15.5 0 12
      vertex 15.5 3 12
    endloop
  endfacet
  facet normal -1 0 0
    outer loop
      vertex 15.5 2 4
      vertex 15.5 3 2
      vertex 15.5 2 2
    endloop
  endfacet
  facet normal -1 0 0
    outer loop
      vertex 15.5 3 2
      vertex 15.5 2 4
      vertex 15.5 3 4.70509
    endloop
  endfacet
  facet normal -0 0 1
    outer loop
      vertex 15.5 3 12
      vertex 28.5 0 12
      vertex 28.5 3 12
    endloop
  endfacet
  facet normal 0 0 1
    outer loop
      vertex 28.5 0 12
      vertex 15.5 3 12
      vertex 15.5 0 12
    endloop
  endfacet
  facet normal 1 -0 0
    outer loop
      vertex 28.5 0 12
      vertex 28.5 3 6.20588
      vertex 28.5 3 12
    endloop
  endfacet
  facet normal 1 0 0
    outer loop
      vertex 28.5 3 6.20588
      vertex 28.5 0 12
      vertex 28.5 0 4
    endloop
  endfacet
  facet normal 1 -0 0
    outer loop
      vertex 28.5 2 4
      vertex 28.5 3 2
      vertex 28.5 3 4.70509
    endloop
  endfacet
  facet normal 1 0 0
    outer loop
      vertex 28.5 3 2
      vertex 28.5 2 4
      vertex 28.5 2 2
    endloop
  endfacet
  facet normal 0 1 -0
    outer loop
      vertex 28.5 3 6.20588
      vertex 15.5 3 12
      vertex 28.5 3 12
    endloop
  endfacet
  facet normal 0 1 0
    outer loop
      vertex 15.5 3 12
      vertex 28.5 3 6.20588
      vertex 15.5 3 6.20588
    endloop
  endfacet
  facet normal 0 1 -0
    outer loop
      vertex 28.5 3 2
      vertex 22.9024 3 4.70509
      vertex 28.5 3 4.70509
    endloop
  endfacet
  facet normal 0 1 0
    outer loop
      vertex 22.825 3 4.57106
      vertex 28.5 3 2
      vertex 21.175 3 4.57106
    endloop
  endfacet
  facet normal 0 1 0
    outer loop
      vertex 22.9024 3 4.70509
      vertex 28.5 3 2
      vertex 22.825 3 4.57106
    endloop
  endfacet
  facet normal 0 1 0
    outer loop
      vertex 15.5 3 2
      vertex 21.0976 3 4.70509
      vertex 21.175 3 4.57106
    endloop
  endfacet
  facet normal 0 1 0
    outer loop
      vertex 15.5 3 2
      vertex 21.175 3 4.57106
      vertex 28.5 3 2
    endloop
  endfacet
  facet normal 0 1 0
    outer loop
      vertex 21.0976 3 4.70509
      vertex 15.5 3 2
      vertex 15.5 3 4.70509
    endloop
  endfacet
  facet normal -0.866026 0 0.499999
    outer loop
      vertex 23.65 0 6
      vertex 22.825 0.776638 4.57106
      vertex 22.825 0 4.57106
    endloop
  endfacet
  facet normal -0.866026 0 0.499999
    outer loop
      vertex 22.825 0.776638 4.57106
      vertex 23.65 0 6
      vertex 23.65 2.72 6
    endloop
  endfacet
  facet normal -0.866027 0 0.499998
    outer loop
      vertex 22.9024 3 4.70509
      vertex 22.825 3 4.57106
      vertex 22.825 2.80991 4.57106
    endloop
  endfacet
  facet normal 0.866025 -0 0.5
    outer loop
      vertex 20.35 0 6
      vertex 21.175 0.776638 4.57106
      vertex 20.35 2.72 6
    endloop
  endfacet
  facet normal 0.866025 0 0.5
    outer loop
      vertex 21.175 0.776638 4.57106
      vertex 20.35 0 6
      vertex 21.175 0 4.57106
    endloop
  endfacet
  facet normal 0.866027 -0 0.499998
    outer loop
      vertex 21.175 2.80991 4.57106
      vertex 21.175 3 4.57106
      vertex 21.0976 3 4.70509
    endloop
  endfacet
  facet normal -0 0 1
    outer loop
      vertex 21.175 0.776638 4.57106
      vertex 22.825 0 4.57106
      vertex 22.825 0.776638 4.57106
    endloop
  endfacet
  facet normal 0 0 1
    outer loop
      vertex 22.825 0 4.57106
      vertex 21.175 0.776638 4.57106
      vertex 21.175 0 4.57106
    endloop
  endfacet
  facet normal -0 0 1
    outer loop
      vertex 21.175 3 4.57106
      vertex 22.825 2.80991 4.57106
      vertex 22.825 3 4.57106
    endloop
  endfacet
  facet normal 0 0 1
    outer loop
      vertex 22.825 2.80991 4.57106
      vertex 21.175 3 4.57106
      vertex 21.175 2.80991 4.57106
    endloop
  endfacet
  facet normal 0 -1 -5.84809e-07
    outer loop
      vertex 20.4689 3 6.20588
      vertex 22.825 3 7.42894
      vertex 21.175 3 7.42894
    endloop
  endfacet
  facet normal 0 -1 -5.84809e-07
    outer loop
      vertex 22.825 3 7.42894
      vertex 20.4689 3 6.20588
      vertex 23.5311 3 6.20588
    endloop
  endfacet
  facet normal 0.866026 -6.06544e-06 -0.5
    outer loop
      vertex 21.175 3 7.42894
      vertex 20.35 2.72 6
      vertex 20.4689 3 6.20588
    endloop
  endfacet
  facet normal 0.866025 0 -0.5
    outer loop
      vertex 21.175 0 7.42894
      vertex 20.35 2.72 6
      vertex 21.175 3 7.42894
    endloop
  endfacet
  facet normal 0.866025 0 -0.5
    outer loop
      vertex 20.35 2.72 6
      vertex 21.175 0 7.42894
      vertex 20.35 0 6
    endloop
  endfacet
  facet normal 0 0 -1
    outer loop
      vertex 21.175 0 7.42894
      vertex 22.825 3 7.42894
      vertex 22.825 0 7.42894
    endloop
  endfacet
  facet normal -0 0 -1
    outer loop
      vertex 22.825 3 7.42894
      vertex 21.175 0 7.42894
      vertex 21.175 3 7.42894
    endloop
  endfacet
  facet normal -0.866026 -1.66101e-07 -0.5
    outer loop
      vertex 23.65 2.72 6
      vertex 22.825 3 7.42894
      vertex 23.5311 3 6.20588
    endloop
  endfacet
  facet normal -0.866026 0 -0.5
    outer loop
      vertex 22.825 0 7.42894
      vertex 23.65 2.72 6
      vertex 23.65 0 6
    endloop
  endfacet
  facet normal -0.866026 0 -0.5
    outer loop
      vertex 23.65 2.72 6
      vertex 22.825 0 7.42894
      vertex 22.825 3 7.42894
    endloop
  endfacet
endsolid OpenSCAD_Model
